<svg width="33" height="32" viewBox="0 0 33 32" fill="none" xmlns="http://www.w3.org/2000/svg">
<g clip-path="url(#clip0_161_4085)">
<path d="M26.3335 18.3301V22.6801C26.3335 24.2601 25.4035 25.6701 23.9635 26.3301C22.2135 27.1301 19.5635 28.0001 16.3335 28.0001C13.1035 28.0001 10.4535 27.1301 8.6935 26.3301C7.2635 25.6701 6.3335 24.2601 6.3335 22.6801V18.3301L13.4435 21.5801C14.3535 22.0001 15.3335 22.2101 16.3335 22.2101C17.3335 22.2101 18.3135 22.0001 19.2235 21.5801L26.3335 18.3301Z" fill="#8979FF"/>
<path d="M30.3335 16.5V23C30.3335 23.55 29.8835 24 29.3335 24C28.7835 24 28.3335 23.55 28.3335 23V17.42L30.3335 16.5Z" fill="#8979FF"/>
<path d="M14.2715 19.764C14.9265 20.063 15.6295 20.213 16.3335 20.213C17.0375 20.213 17.7395 20.064 18.3955 19.764L31.1665 13.926C31.8865 13.597 32.3335 12.9 32.3335 12.107C32.3335 11.314 31.8865 10.616 31.1665 10.287L18.3955 4.44998C17.0845 3.85098 15.5835 3.85098 14.2725 4.44998L1.5005 10.286C0.780496 10.616 0.333496 11.313 0.333496 12.106C0.333496 12.899 0.780496 13.596 1.5005 13.926L14.2715 19.764Z" fill="#8979FF"/>
</g>
<defs>
<clipPath id="clip0_161_4085">
<rect width="32" height="32" fill="white" transform="translate(0.333496)"/>
</clipPath>
</defs>
</svg>
