<svg width="33" height="32" viewBox="0 0 33 32" fill="none" xmlns="http://www.w3.org/2000/svg">
<g clip-path="url(#clip0_161_4099)">
<path d="M1.66683 1.33325C0.93045 1.33325 0.333496 1.93021 0.333496 2.66659C0.333496 3.40297 0.93045 3.99992 1.66683 3.99992H4.03923C4.23335 3.99992 4.42256 4.061 4.58004 4.17452C4.73752 4.28803 4.8553 4.44822 4.91667 4.63239L9.31266 17.8228C9.50788 18.4085 9.5327 19.039 9.38298 19.6379L9.021 21.0885C8.48987 23.213 10.1436 25.3333 12.3335 25.3333H28.3335C29.0699 25.3333 29.6668 24.7363 29.6668 23.9999C29.6668 23.2635 29.0699 22.6666 28.3335 22.6666H12.3335C11.8143 22.6666 11.481 22.2406 11.6069 21.7369L11.8799 20.6466C11.9262 20.4619 12.0328 20.2979 12.183 20.1807C12.3331 20.0636 12.5181 19.9999 12.7085 19.9999H27.0002C27.5743 20.0002 28.0841 19.633 28.2658 19.0885L31.8205 8.42179C32.1084 7.55808 31.4653 6.66617 30.5549 6.66659H9.07308C8.87895 6.66659 8.68974 6.6055 8.53225 6.49199C8.37476 6.37848 8.25698 6.2183 8.19559 6.03413L6.93245 2.24471C6.75077 1.70012 6.24092 1.33295 5.66683 1.33325H1.66683ZM11.0002 26.6666C9.5274 26.6666 8.3335 27.8605 8.3335 29.3333C8.3335 30.806 9.5274 31.9999 11.0002 31.9999C12.4729 31.9999 13.6668 30.806 13.6668 29.3333C13.6668 27.8605 12.4729 26.6666 11.0002 26.6666ZM27.0002 26.6666C25.5274 26.6666 24.3335 27.8605 24.3335 29.3333C24.3335 30.806 25.5274 31.9999 27.0002 31.9999C28.4729 31.9999 29.6668 30.806 29.6668 29.3333C29.6668 27.8605 28.4729 26.6666 27.0002 26.6666Z" fill="#3CC3DF"/>
</g>
<defs>
<clipPath id="clip0_161_4099">
<rect width="32" height="32" fill="white" transform="translate(0.333496)"/>
</clipPath>
</defs>
</svg>
