<svg width="33" height="32" viewBox="0 0 33 32" fill="none" xmlns="http://www.w3.org/2000/svg">
<g clip-path="url(#clip0_161_4105)">
<path d="M13.2413 6.21232L14.159 8.76083C15.1784 11.5893 17.4057 13.8167 20.2342 14.8361L22.7827 15.7538C23.0125 15.8372 23.0125 16.1629 22.7827 16.2452L20.2342 17.1629C17.4057 18.1823 15.1784 20.4097 14.159 23.2382L13.2413 25.7867C13.1579 26.0164 12.8322 26.0164 12.7499 25.7867L11.8322 23.2382C10.8128 20.4097 8.58541 18.1823 5.75692 17.1629L3.20841 16.2452C2.97871 16.1618 2.97871 15.8361 3.20841 15.7538L5.75692 14.8361C8.58541 13.8167 10.8128 11.5893 11.8322 8.76083L12.7499 6.21232C12.8322 5.98147 13.1579 5.98147 13.2413 6.21232Z" fill="#FFAE4C"/>
<path d="M24.7129 0.0880392L25.178 1.37829C25.6946 2.81025 26.8225 3.93822 28.2545 4.45478L29.5447 4.91991C29.6613 4.96219 29.6613 5.12676 29.5447 5.16905L28.2545 5.63418C26.8225 6.15073 25.6946 7.2787 25.178 8.71066L24.7129 10.0009C24.6706 10.1175 24.506 10.1175 24.4637 10.0009L23.9986 8.71066C23.482 7.2787 22.3541 6.15073 20.9221 5.63418L19.6319 5.16905C19.5153 5.12676 19.5153 4.96219 19.6319 4.91991L20.9221 4.45478C22.3541 3.93822 23.482 2.81025 23.9986 1.37829L24.4637 0.0880392C24.506 -0.0296719 24.6717 -0.0296719 24.7129 0.0880392Z" fill="#FFAE4C"/>
<path d="M24.7129 21.9995L25.178 23.2898C25.6946 24.7217 26.8225 25.8497 28.2545 26.3663L29.5447 26.8314C29.6613 26.8737 29.6613 27.0383 29.5447 27.0805L28.2545 27.5457C26.8225 28.0622 25.6946 29.1902 25.178 30.6222L24.7129 31.9124C24.6706 32.029 24.506 32.029 24.4637 31.9124L23.9986 30.6222C23.482 29.1902 22.3541 28.0622 20.9221 27.5457L19.6319 27.0805C19.5153 27.0383 19.5153 26.8737 19.6319 26.8314L20.9221 26.3663C22.3541 25.8497 23.482 24.7217 23.9986 23.2898L24.4637 21.9995C24.506 21.883 24.6717 21.883 24.7129 21.9995Z" fill="#FFAE4C"/>
</g>
<defs>
<clipPath id="clip0_161_4105">
<rect width="32" height="32" fill="white" transform="translate(0.333496)"/>
</clipPath>
</defs>
</svg>
