<svg width="33" height="32" viewBox="0 0 33 32" fill="none" xmlns="http://www.w3.org/2000/svg">
<g clip-path="url(#clip0_161_4114)">
<path d="M22.021 11.375C16.3347 11.375 11.7085 16.0012 11.7085 21.6875C11.7085 27.3738 16.3347 32 22.021 32C27.7073 32 32.3335 27.3738 32.3335 21.6875C32.3335 16.0012 27.7073 11.375 22.021 11.375ZM22.021 20.75C23.5719 20.75 24.8335 22.0116 24.8335 23.5625C24.8335 24.7831 24.0474 25.814 22.9585 26.2023V28.25H21.0835V26.2023C19.9946 25.814 19.2085 24.7831 19.2085 23.5625H21.0835C21.0835 24.0798 21.5037 24.5 22.021 24.5C22.5382 24.5 22.9585 24.0798 22.9585 23.5625C22.9585 23.0452 22.5382 22.625 22.021 22.625C20.4701 22.625 19.2085 21.3634 19.2085 19.8125C19.2085 18.5919 19.9946 17.561 21.0835 17.1727V15.125H22.9585V17.1727C24.0474 17.561 24.8335 18.5919 24.8335 19.8125H22.9585C22.9585 19.2952 22.5382 18.875 22.021 18.875C21.5037 18.875 21.0835 19.2952 21.0835 19.8125C21.0835 20.3298 21.5037 20.75 22.021 20.75Z" fill="#537FF1"/>
<path d="M10.771 11.375C16.5535 11.375 21.0835 8.904 21.0835 5.75C21.0835 2.596 16.5535 0 10.771 0C4.9885 0 0.333496 2.596 0.333496 5.75C0.333496 8.904 4.9885 11.375 10.771 11.375Z" fill="#537FF1"/>
<path d="M0.333496 21.0974V22.625C0.333496 25.779 4.9885 28.25 10.771 28.25C11.099 28.25 11.4168 28.2198 11.7397 28.204C11.0206 27.0733 10.4843 25.8187 10.1685 24.4774C5.98693 24.362 2.35612 23.077 0.333496 21.0974Z" fill="#537FF1"/>
<path d="M9.87856 22.5772C9.85706 22.2823 9.8335 21.9878 9.8335 21.6875C9.8335 20.7102 9.96156 19.7643 10.1799 18.8529C5.99318 18.7395 2.35793 17.4538 0.333496 15.4724V17C0.333496 19.9867 4.53737 22.3338 9.87856 22.5772Z" fill="#537FF1"/>
<path d="M10.771 17C10.772 17 10.7728 16.9998 10.7739 16.9998C11.3922 15.5221 12.291 14.19 13.4072 13.0738C12.5605 13.1808 11.6855 13.25 10.771 13.25C6.31993 13.25 2.45387 11.9227 0.333496 9.84741V11.375C0.333496 14.529 4.9885 17 10.771 17Z" fill="#537FF1"/>
</g>
<defs>
<clipPath id="clip0_161_4114">
<rect width="32" height="32" fill="white" transform="translate(0.333496)"/>
</clipPath>
</defs>
</svg>
