<svg width="33" height="32" viewBox="0 0 33 32" fill="none" xmlns="http://www.w3.org/2000/svg">
<path d="M22.2012 0.00114968H10.5568C10.1849 -0.00719914 9.87667 0.287465 9.86832 0.659374C9.86811 0.669477 9.86811 0.679579 9.86832 0.689682V2.72518C9.8832 2.90226 9.96318 3.06762 10.0928 3.18914L13.4754 6.57168C13.597 6.70133 13.7622 6.78131 13.9393 6.79618H15.6755V7.61935C14.3881 7.9258 13.4822 9.07983 13.4903 10.4032C13.4903 12.0068 14.7903 13.3069 16.3939 13.3069C17.9976 13.3069 19.2976 12.0069 19.2976 10.4032C19.2823 10.0295 18.9829 9.72999 18.6091 9.71476C18.2371 9.71469 17.9355 10.0162 17.9355 10.3881C17.9355 10.3932 17.9355 10.3982 17.9356 10.4033C17.9356 11.2547 17.2454 11.9449 16.394 11.9449C15.5426 11.9449 14.8524 11.2547 14.8524 10.4033C14.8524 9.57669 15.5225 8.90661 16.3491 8.90661C16.721 8.91489 17.0292 8.62009 17.0374 8.24825C17.0376 8.2432 17.0376 8.23814 17.0376 8.23309V6.73634H18.7588C18.9562 6.73353 19.1444 6.65285 19.2826 6.51183L22.6652 3.12929C22.7948 3.00771 22.8748 2.84242 22.8897 2.66534V0.689682C22.8744 0.31595 22.575 0.0164442 22.2012 0.00114968Z" fill="#F15353"/>
<path d="M31.0331 17.4676C31.0126 17.4662 30.992 17.4658 30.9715 17.4662H28.2176L20.4945 12.0481C20.1681 11.8737 19.7643 11.9482 19.5217 12.2277C19.3079 12.522 19.3731 12.9338 19.6674 13.1476C19.6785 13.1557 19.6898 13.1633 19.7013 13.1707L25.8827 17.4662H6.88946L13.011 13.1557C13.3011 12.9282 13.3605 12.5124 13.1457 12.2128C12.9213 11.935 12.5295 11.8592 12.2177 12.0332L4.55452 17.4662H1.68084C1.31293 17.489 1.02199 17.7865 1.00732 18.1547V31.3108C1.02199 31.679 1.31293 31.9765 1.68084 31.9992H30.9714C31.3433 32.0076 31.6515 31.7129 31.6599 31.341C31.6601 31.3309 31.6601 31.3208 31.6599 31.3108V18.1847C31.6848 17.8135 31.4042 17.4925 31.0331 17.4676ZM6.59009 26.8357C6.59009 27.1994 6.29522 27.4942 5.93152 27.4942C5.56782 27.4942 5.27294 27.1994 5.27294 26.8357V22.6748C5.27294 22.3111 5.56782 22.0162 5.93152 22.0162C6.29522 22.0162 6.59009 22.3111 6.59009 22.6748V26.8357ZM10.7809 26.8357C10.7809 27.1994 10.486 27.4942 10.1223 27.4942C9.75858 27.4942 9.4637 27.1994 9.4637 26.8357V22.6748C9.43894 22.3037 9.71964 21.9827 10.0908 21.9578C10.1063 21.9568 10.1218 21.9563 10.1372 21.9564C10.4941 21.9797 10.7738 22.2723 10.7808 22.6299L10.7809 26.8357ZM14.9866 26.8357C14.9787 27.2126 14.6751 27.5162 14.2982 27.5241C13.9349 27.541 13.6266 27.2603 13.6097 26.8969C13.6087 26.8765 13.6087 26.856 13.6097 26.8356V22.6747C13.6096 22.3027 13.9111 22.0011 14.2831 22.0011C14.2881 22.0011 14.2932 22.0011 14.2982 22.0012C14.6665 22.0159 14.964 22.3068 14.9867 22.6747L14.9866 26.8357ZM19.1474 26.8357C19.1395 27.2126 18.8359 27.5162 18.459 27.5241C18.0787 27.5241 17.7705 27.2159 17.7705 26.8357V22.6748C17.7862 22.3037 18.0877 22.0089 18.459 22.0013C18.8272 22.0159 19.1247 22.3069 19.1474 22.6748V26.8357ZM22.7285 27.6179C22.3524 27.6738 22.0022 27.4143 21.9463 27.0381C21.9363 26.971 21.9363 26.9028 21.9463 26.8357V22.6748C21.969 22.3069 22.2665 22.0159 22.6347 22.0013C23.003 22.0159 23.3004 22.307 23.3232 22.6748L23.3082 26.8357C23.3642 27.2118 23.1046 27.562 22.7285 27.6179ZM27.4692 26.8357C27.4861 27.199 27.2053 27.5072 26.842 27.5241C26.8215 27.5251 26.8011 27.5251 26.7806 27.5241C26.4038 27.5162 26.1001 27.2126 26.0922 26.8357V22.6748C26.1149 22.3069 26.4124 22.0159 26.7806 22.0013C27.1525 21.993 27.4607 22.2878 27.469 22.6596C27.4691 22.6647 27.4691 22.6697 27.4691 22.6748V26.8357H27.4692Z" fill="#F15353"/>
</svg>
