<svg width="33" height="32" viewBox="0 0 33 32" fill="none" xmlns="http://www.w3.org/2000/svg">
<g clip-path="url(#clip0_161_4136)">
<path d="M30.5534 9.88992C29.1234 6.29992 25.0534 4.54992 21.4634 5.97992C20.9484 6.18492 20.4734 6.44492 20.0384 6.74992C18.9484 7.50992 17.6634 7.95492 16.3334 7.95492C15.6684 7.95492 15.0134 7.84492 14.3934 7.63992C13.7684 7.43492 13.1734 7.12992 12.6334 6.74992C12.1984 6.44492 11.7184 6.18492 11.2034 5.97992C7.61338 4.54992 3.54338 6.29992 2.11338 9.88992C0.683376 13.4849 -1.48162 24.4499 3.11838 26.2849C5.64838 27.2949 8.59338 24.8849 10.9684 21.9199C11.8284 20.8399 13.1434 20.2299 14.5234 20.2299H18.1434C19.5234 20.2299 20.8384 20.8399 21.6984 21.9199C24.0784 24.8849 27.0184 27.2949 29.5534 26.2849C34.1534 24.4499 31.9834 13.4849 30.5534 9.88992ZM11.1584 14.2249H9.28838V16.0949C9.28838 16.6249 8.85838 17.0549 8.32838 17.0549C7.79838 17.0549 7.36838 16.6249 7.36838 16.0949V14.2249H5.49338C4.96338 14.2249 4.53338 13.7949 4.53338 13.2649C4.53338 12.7349 4.96338 12.3049 5.49338 12.3049H7.36838V10.4299C7.36838 9.89992 7.79838 9.46992 8.32838 9.46992C8.85838 9.46992 9.28838 9.89992 9.28838 10.4299V12.3049H11.1584C11.6884 12.3049 12.1184 12.7349 12.1184 13.2649C12.1184 13.7949 11.6884 14.2249 11.1584 14.2249ZM23.9934 9.12992C24.7684 9.12992 25.3934 9.75492 25.3934 10.5299C25.3934 11.2999 24.7684 11.9249 23.9934 11.9249C23.2234 11.9249 22.5984 11.2999 22.5984 10.5299C22.5984 9.75492 23.2234 9.12992 23.9934 9.12992ZM21.2584 14.6649C20.4884 14.6649 19.8584 14.0399 19.8584 13.2649C19.8584 12.4949 20.4884 11.8699 21.2584 11.8699C22.0284 11.8699 22.6584 12.4949 22.6584 13.2649C22.6584 14.0399 22.0284 14.6649 21.2584 14.6649ZM23.9934 17.3999C23.2234 17.3999 22.5984 16.7699 22.5984 16.0049C22.5984 15.2249 23.2234 14.5999 23.9934 14.5999C24.7684 14.5999 25.3934 15.2249 25.3934 16.0049C25.3934 16.7699 24.7684 17.3999 23.9934 17.3999ZM26.7334 14.6649C25.9584 14.6649 25.3334 14.0399 25.3334 13.2649C25.3334 12.4949 25.9584 11.8699 26.7334 11.8699C27.5034 11.8699 28.1284 12.4949 28.1284 13.2649C28.1284 14.0399 27.5034 14.6649 26.7334 14.6649Z" fill="#D463DA"/>
</g>
<defs>
<clipPath id="clip0_161_4136">
<rect width="32" height="32" fill="white" transform="translate(0.333496)"/>
</clipPath>
</defs>
</svg>
