<svg width="33" height="32" viewBox="0 0 33 32" fill="none" xmlns="http://www.w3.org/2000/svg">
<g clip-path="url(#clip0_161_4142)">
<path d="M22.8458 29.2004H3.29581C1.60206 29.2004 0.395809 27.5504 0.914559 25.9379L2.97081 19.5129C3.63331 17.4504 5.88956 16.3816 7.90206 17.1629C9.23956 17.6816 10.9583 18.0879 13.0646 18.0879C14.9333 18.0879 16.4958 17.7691 17.7646 17.3316C17.9646 18.7441 18.6083 20.1129 19.6958 21.1941C20.9396 22.4379 22.5833 23.1441 24.3396 23.1941L25.2208 25.9379C25.7396 27.5504 24.5396 29.2004 22.8458 29.2004Z" fill="#E2DBFF"/>
<path d="M13.0707 15.688C16.6295 15.688 19.5145 12.8031 19.5145 9.24429C19.5145 5.6855 16.6295 2.80054 13.0707 2.80054C9.51192 2.80054 6.62695 5.6855 6.62695 9.24429C6.62695 12.8031 9.51192 15.688 13.0707 15.688Z" fill="#E2DBFF"/>
<path d="M31.5458 21.7943L29.1958 19.4443C30.6333 17.2755 30.3958 14.3193 28.4896 12.413C26.3083 10.2318 22.7646 10.2318 20.5896 12.413C18.4083 14.5943 18.4083 18.138 20.5896 20.313C22.5021 22.2255 25.4583 22.4568 27.6271 21.0193L29.977 23.3693C30.4083 23.8005 31.1146 23.8005 31.5458 23.3693C31.977 22.938 31.977 22.2318 31.5458 21.7943ZM22.1521 18.7443C20.8396 17.4318 20.8396 15.3005 22.1521 13.9818C23.4646 12.663 25.5958 12.6693 26.9145 13.9818C28.2333 15.2943 28.227 17.4255 26.9145 18.738C25.602 20.0568 23.4708 20.0568 22.1521 18.7443Z" fill="#E2DBFF"/>
</g>
<defs>
<clipPath id="clip0_161_4142">
<rect width="32" height="32" fill="white" transform="translate(0.333496)"/>
</clipPath>
</defs>
</svg>
