<svg width="118" height="49" viewBox="0 0 118 49" fill="none" xmlns="http://www.w3.org/2000/svg">
<g clip-path="url(#clip0_168_3667)">
<mask id="mask0_168_3667" style="mask-type:luminance" maskUnits="userSpaceOnUse" x="1" y="0" width="117" height="49">
<path d="M117.071 0.5H1.24817V48.2384H117.071V0.5Z" fill="white"/>
</mask>
<g mask="url(#mask0_168_3667)">
<path d="M23.3374 22.0193V30.8089C23.3374 33.0518 24.264 34.1429 26.1687 34.1429H26.9923C28.8969 34.1429 29.8235 33.0518 29.8235 30.8089V26.505H34.199V30.627C34.199 36.2645 31.7796 39.1742 26.9408 39.1742H26.0142C21.2269 39.1742 18.756 36.3251 18.756 31.2939V9.71394C18.756 3.40964 21.1754 0.5 26.0142 0.5H26.9408C31.7281 0.5 34.199 3.34904 34.199 9.04712V21.9587H23.3374V22.0193ZM23.3374 16.8668H29.772V8.86522C29.772 6.62239 28.8455 5.53127 26.9408 5.53127H26.2202C24.3155 5.53127 23.3889 6.62239 23.3889 8.86522V16.8668H23.3374Z" fill="white"/>
<path d="M36.7716 0.921919H41.3459V3.33295C42.0573 2.44599 42.9178 1.73715 43.8743 1.24997C44.8307 0.762789 45.863 0.507578 46.9077 0.5C50.8062 0.5 52.7295 3.51378 52.7295 7.91388V31.4214C52.7295 35.8819 50.8062 38.8354 46.9077 38.8354C45.8711 38.8392 44.8445 38.601 43.8889 38.135C42.9334 37.669 42.0686 36.9847 41.3459 36.1229V48.2384H36.7716V0.921919ZM41.3459 31.9037C42.4977 33.1239 43.9962 33.8104 45.5562 33.8325C47.2196 33.8325 48.2071 32.9284 48.2071 30.7585V8.57697C48.2071 6.40702 47.2716 5.50288 45.5562 5.50288C44.001 5.55284 42.5106 6.23564 41.3459 7.4317V31.9037Z" fill="white"/>
<path d="M55.3029 25.2126C55.3029 20.6108 56.5898 18.758 60.0386 17.3834L66.1128 14.9929V8.7176C66.1128 6.50631 65.1864 5.31104 63.2814 5.31104H62.5612C60.6565 5.31104 59.7299 6.50631 59.7299 8.7176V14.0067H55.3543V8.92674C55.3543 3.3687 57.7738 0.5 62.6128 0.5H63.4877C68.2753 0.5 70.7457 3.30893 70.7457 8.92674V38.1516H66.2163V35.8207C65.5044 36.6857 64.6503 37.3751 63.7034 37.8474C62.7569 38.3198 61.7383 38.5656 60.708 38.5699C57.1045 38.5699 55.4058 36.1793 55.4058 31.9959V25.2424L55.3029 25.2126ZM66.1128 31.8464V19.5947L61.9949 21.3877C60.3478 22.1646 59.7814 23.1208 59.7814 25.2723V30.95C59.7814 32.7428 60.5534 33.6393 61.9949 33.6393C63.4921 33.5362 64.9271 32.9113 66.1128 31.8464Z" fill="white"/>
<path d="M89.287 38.5094H84.7388V8.23479C84.7388 6.36155 83.9634 5.51555 82.5682 5.51555C81.3277 5.51555 79.9843 6.0594 78.3829 7.38887V38.5094H73.8341V0.922988H78.3829V3.34012C79.096 2.46058 79.9532 1.75638 80.9026 1.26871C81.852 0.781036 82.8756 0.519704 83.9122 0.5C86.2374 0.5 87.7878 1.58769 88.615 3.58184C90.2171 1.95027 92.129 0.5 94.7646 0.5C98.2786 0.5 100.088 3.03799 100.088 7.14713V38.5699H95.5401V8.23479C95.5401 6.36155 94.7646 5.51555 93.3695 5.51555C92.129 5.51555 90.7856 6.0594 89.1829 7.38887V38.5094H89.287Z" fill="white"/>
<path d="M12.5731 4.125V11.0743L5.17415 19.5342L12.5731 27.8734V34.9435L1.24817 22.1327V17.0567L12.5731 4.125Z" fill="#00B5D1"/>
<path d="M117.073 17.0567V22.1327L105.748 34.9435V27.8734L113.148 19.5342L105.748 11.0138V4.125L117.073 17.0567Z" fill="#00B5D1"/>
</g>
</g>
<defs>
<clipPath id="clip0_168_3667">
<rect width="116.571" height="48" fill="white" transform="translate(0.880981 0.5)"/>
</clipPath>
</defs>
</svg>
