<svg width="223" height="38" viewBox="0 0 223 38" fill="none" xmlns="http://www.w3.org/2000/svg">
<g clip-path="url(#clip0_168_3659)">
<path d="M23.3038 5.5085C20.1099 6.43352 16.9938 7.70541 14.3063 9.67106C12.6314 10.9044 11.1122 12.4461 10.2553 14.3732C9.63211 15.7607 9.43737 17.3795 9.78793 18.8826C10.1774 20.6941 11.2681 22.2743 12.5923 23.5462C25.2902 17.6493 37.9881 11.7908 50.686 5.89393C46.1288 4.42932 41.2989 3.81266 36.547 3.77411C32.0676 3.77411 27.5884 4.27516 23.3038 5.5085ZM34.6385 0.189697H37.6766C44.2203 0.382408 50.8029 1.46158 56.8792 3.96682C58.3203 4.54495 59.7227 5.23872 61.0469 5.97102C47.0248 13.1783 33.0025 20.4243 18.9803 27.6317C22.3301 29.0577 25.9135 29.9442 29.5358 30.4452C33.4699 30.9848 37.4818 31.0234 41.4158 30.6765C44.4929 30.3682 47.57 29.7901 50.4913 28.865C53.062 28.0556 55.5549 26.9764 57.7751 25.4733C59.1383 24.5483 60.3848 23.4691 61.3975 22.1587C62.1376 21.1566 62.7218 20.0389 62.9945 18.8441C63.384 17.0711 63.0334 15.1826 62.1376 13.6023C63.8124 12.6388 65.4484 11.6753 67.1232 10.7117C67.5127 11.1742 67.9023 11.6367 68.2528 12.0992C68.9539 13.1013 69.5381 14.219 69.9276 15.3753C70.4729 17.0326 70.6287 18.8055 70.3171 20.5013C70.0834 21.6962 69.655 22.8524 69.0707 23.8931C68.4865 25.0108 67.6684 26.0129 66.8116 26.9379C65.0588 28.7879 62.9944 30.2911 60.7742 31.5245C58.2035 32.9505 55.438 34.0682 52.5947 34.8776C47.7648 36.3036 42.7402 36.9974 37.6766 37.113H34.6385C30.8213 36.9974 26.9651 36.5734 23.2259 35.7641C21.7458 35.4172 20.2657 35.0703 18.8245 34.5692C15.0852 33.3744 11.4628 31.7171 8.30779 29.4046C6.39921 27.9786 4.64643 26.2442 3.43896 24.1629C2.54309 22.6597 1.99782 20.9639 1.91992 19.191V18.0733C1.95887 17.3409 2.07569 16.6472 2.27044 15.9534C2.9326 13.5252 4.41276 11.4055 6.20449 9.67106C8.96999 7.01165 12.3976 5.12309 15.9422 3.73557C21.9405 1.42304 28.2894 0.382408 34.6385 0.189697Z" fill="#0082CA"/>
<path d="M171.317 12.0992C168.473 12.4075 165.864 14.1419 164.383 16.5316C162.864 18.9597 162.592 22.0431 163.565 24.741C164.423 27.015 166.175 28.9806 168.395 30.0213C170.537 31.0619 173.108 31.2161 175.367 30.4452C177.393 29.7901 179.146 28.4025 180.314 26.6295C181.677 24.5483 182.183 21.966 181.638 19.5379C181.171 17.2638 179.808 15.2211 177.938 13.8721C176.069 12.4075 173.653 11.7908 171.317 12.0992ZM181.911 0.189697H185.572C185.572 2.07826 185.572 3.92828 185.572 5.81685C185.612 8.12937 185.572 10.4034 185.572 12.7159C185.572 17.4951 185.534 22.2743 185.572 27.0536C185.572 29.3275 185.572 31.6015 185.572 33.8755C184.365 33.8755 183.118 33.8755 181.911 33.8755C181.911 32.7577 181.911 31.64 181.911 30.5223C180.002 32.5265 177.432 33.8755 174.706 34.3766C171.94 34.8776 169.018 34.4536 166.487 33.1817C164.306 32.1026 162.436 30.3682 161.189 28.2869C159.748 25.9358 159.125 23.1608 159.358 20.4243C159.553 17.919 160.488 15.4524 162.046 13.4867C163.605 11.4825 165.747 9.94086 168.162 9.13146C170.849 8.20646 173.809 8.20645 176.497 9.09293C178.523 9.74814 180.392 10.9044 181.872 12.4461C181.911 8.28354 181.911 4.23662 181.911 0.189697Z" fill="#0082CA"/>
<path d="M218.172 0.189697H221.911C221.911 11.6367 221.911 23.0452 221.911 34.4921C220.664 34.4921 219.418 34.4921 218.172 34.4921C218.172 23.0452 218.132 11.6367 218.172 0.189697Z" fill="#0082CA"/>
<path d="M141.561 12.0603C138.834 12.3686 136.302 13.9104 134.822 16.1458C133.226 18.4583 132.797 21.4646 133.615 24.124C134.316 26.5522 136.069 28.6335 138.328 29.7897C140.042 30.6762 142.028 31.023 143.937 30.7532C145.417 30.5606 146.819 29.9824 148.066 29.1345C150.091 27.7085 151.533 25.473 151.961 23.0449C152.506 20.1542 151.571 17.0322 149.545 14.9125C147.521 12.8312 144.482 11.7135 141.561 12.0603ZM135.134 10.7114C137.471 9.0926 140.314 8.24468 143.158 8.3603C146.508 8.47593 149.78 9.94057 152.078 12.3686C152.078 11.2895 152.078 10.1718 152.078 9.0926C153.285 9.0926 154.532 9.0926 155.738 9.0926C155.738 13.0624 155.738 17.0708 155.738 21.0407C155.778 25.3188 155.738 29.597 155.738 33.8752C154.532 33.8752 153.324 33.8752 152.078 33.8752C152.078 32.7575 152.078 31.6011 152.078 30.4834C150.13 32.5647 147.443 33.9522 144.599 34.3762C141.638 34.8387 138.523 34.2606 135.952 32.7189C133.537 31.2929 131.628 29.1345 130.537 26.5522C129.331 23.7386 129.174 20.5396 130.071 17.6104C130.927 14.8739 132.719 12.3686 135.134 10.7114Z" fill="#0082CA"/>
<path d="M198.316 12.8313C196.446 13.6407 194.888 15.0283 193.875 16.7627C192.668 18.8054 192.317 21.3106 192.862 23.5846C198.316 20.8096 203.73 18.0345 209.183 15.2595C207.781 13.6792 205.833 12.523 203.73 12.1761C201.899 11.8677 199.991 12.0991 198.316 12.8313ZM195.706 9.94071C199.095 8.09066 203.302 7.82087 206.885 9.28547C210.235 10.6345 212.962 13.3709 214.246 16.7241C207.625 20.1158 200.964 23.5075 194.343 26.9378C195.473 28.5179 197.069 29.7128 198.9 30.368C200.614 30.9847 202.562 31.0618 204.315 30.5992C206.69 30.0211 208.833 28.4409 210.079 26.3596C210.819 25.1263 211.287 23.7388 211.404 22.3127C211.404 22.1971 211.52 22.1971 211.559 22.1585C212.727 21.5804 213.857 20.9637 215.026 20.3856C215.259 23.3148 214.481 26.3211 212.845 28.7493C211.364 30.9461 209.183 32.7191 206.69 33.6827C203.535 34.9159 199.874 34.8389 196.797 33.4899C193.564 32.1024 190.954 29.4044 189.708 26.1669C188.772 23.7002 188.579 20.9251 189.24 18.3428C190.136 14.7969 192.512 11.6751 195.706 9.94071Z" fill="#0082CA"/>
<path d="M89.366 12.9094C88.0417 13.4875 86.8731 14.3354 85.9383 15.4146C84.7697 16.7636 83.9907 18.4209 83.7571 20.1938C83.5623 21.3501 83.6791 22.5449 83.8739 23.6626C89.3269 20.8875 94.7412 18.1125 100.194 15.3375C98.8697 13.8344 97.0782 12.7552 95.1306 12.3312C93.2221 11.9458 91.1967 12.1385 89.366 12.9094ZM89.2101 9.05514C92.3651 8.09159 95.8707 8.32284 98.8312 9.78744C101.792 11.2135 104.128 13.7959 105.336 16.8406C98.7144 20.2709 92.0536 23.6241 85.432 27.0543C87.0679 29.4054 89.8333 30.9085 92.7157 30.9856C95.3254 31.1012 97.9736 30.0606 99.7659 28.2105C100.856 27.1699 101.635 25.8209 102.103 24.3949C102.337 23.7397 102.453 23.0074 102.531 22.3136C103.739 21.697 104.946 21.0803 106.192 20.4636C106.427 23.3157 105.686 26.2449 104.128 28.6345C102.57 31.0627 100.194 32.9127 97.4681 33.8763C94.7023 34.8399 91.5472 34.8399 88.7817 33.8763C86.2888 33.0284 84.1076 31.371 82.5885 29.2898C81.1863 27.4012 80.2905 25.1272 80.0957 22.7761C79.862 20.3094 80.3295 17.8042 81.4589 15.5688C83.017 12.5239 85.8604 10.0957 89.2101 9.05514Z" fill="#0082CA"/>
<path d="M105.957 9.24829C107.398 9.24829 108.879 9.24829 110.32 9.24829C112.813 12.4472 115.305 15.6078 117.799 18.7682C120.37 15.6078 122.94 12.4472 125.472 9.24829C126.991 9.24829 128.471 9.24829 129.99 9.24829C129.172 10.4045 128.237 11.5223 127.381 12.6786C125.121 15.5692 122.862 18.4213 120.564 21.312C123.875 25.5516 127.147 29.7527 130.458 33.9924C128.9 33.9924 127.341 33.9924 125.783 33.9924C123.174 30.6391 120.564 27.286 117.954 23.9328C115.305 27.2475 112.696 30.6391 110.047 33.9924C108.528 33.9924 107.01 33.9924 105.49 33.9924C107.36 31.6413 109.191 29.2517 111.06 26.9006C112.501 25.0505 113.942 23.239 115.345 21.3891C113.475 18.9609 111.566 16.5327 109.697 14.1046C108.411 12.4858 107.126 10.9056 105.957 9.24829Z" fill="#0082CA"/>
</g>
<defs>
<clipPath id="clip0_168_3659">
<rect width="221.865" height="37.6206" fill="white" transform="translate(0.982422 0.189697)"/>
</clipPath>
</defs>
</svg>
