<svg width="223" height="34" viewBox="0 0 223 34" fill="none" xmlns="http://www.w3.org/2000/svg">
<g clip-path="url(#clip0_168_3651)">
<path d="M17.0596 9.54607C15.2886 9.97674 13.4844 10.6394 12.0477 11.7657C10.7112 12.7927 9.80904 14.2834 9.30781 15.8736C8.30543 18.8552 8.33882 22.0687 8.37224 25.1828C10.2768 25.1828 12.1814 25.1828 14.0858 25.1828C17.26 25.0834 20.5011 24.7522 23.4414 23.4602C25.346 22.6319 27.0166 21.2074 27.8519 19.2859C29.3221 16.0062 29.3221 12.3289 29.2887 8.78411C28.7206 8.78411 28.186 8.78411 27.618 8.78411C24.1097 8.71785 20.5345 8.75098 17.0596 9.54607ZM174.3 10.4736C175.703 10.4405 177.074 10.4736 178.476 10.4736C178.476 16.9669 178.476 23.427 178.476 29.9202C177.106 29.9202 175.703 29.9202 174.333 29.9202C174.3 23.427 174.333 16.9338 174.3 10.4736ZM149.975 10.4405C151.345 10.4405 152.749 10.4405 154.118 10.4405V29.9202C152.749 29.9202 151.345 29.9202 149.975 29.9202C149.975 23.427 149.975 16.9338 149.975 10.4405ZM49.9043 10.4405C51.3076 10.4405 52.6775 10.4075 54.0808 10.4405C54.0475 16.9338 54.0808 23.427 54.0808 29.9202C52.711 29.9202 51.3076 29.9202 49.9377 29.9202C49.9043 23.427 49.9043 16.9338 49.9043 10.4405ZM211.822 11.0037C213.526 9.91048 215.665 9.74485 217.636 10.0761C219.006 10.308 220.343 10.9043 221.245 11.9976C222.548 13.5215 222.982 15.6086 222.982 17.5632C222.916 21.7043 222.982 25.8123 222.949 29.9534C221.579 29.9534 220.209 29.9534 218.805 29.9534C218.805 26.1767 218.805 22.4 218.805 18.6233C218.773 17.4638 218.605 16.2712 217.904 15.3105C217.303 14.4823 216.367 13.9853 215.365 13.8196C213.76 13.4884 211.989 14.1178 210.953 15.3768C210.186 16.3043 209.851 17.5301 209.851 18.7228C209.851 22.4663 209.851 26.2098 209.851 29.9202C208.481 29.9202 207.077 29.9202 205.708 29.9202C205.708 23.427 205.708 16.9338 205.708 10.4405C207.077 10.4405 208.481 10.4405 209.851 10.4405C209.851 11.2688 209.851 12.0638 209.851 12.8921C210.352 12.1633 211.021 11.5007 211.822 11.0037ZM191.073 13.4553C189.503 13.7203 188.099 14.8798 187.631 16.4037C187.131 17.9608 187.264 19.5841 187.264 21.1743C187.264 22.4994 187.398 23.8908 188.133 25.0172C188.801 26.1104 190.004 26.8062 191.274 26.9718C192.242 27.0712 193.245 27.0049 194.147 26.6074C195.283 26.1104 196.118 25.0834 196.486 23.957C196.887 22.7976 196.787 21.5387 196.853 20.346C196.821 19.0871 196.853 17.7951 196.52 16.5693C196.152 15.2442 195.116 14.151 193.813 13.6872C192.911 13.3559 191.975 13.3228 191.073 13.4553ZM190.572 10.0099C192.744 9.71171 195.016 10.0761 196.954 11.1032C198.558 11.9645 199.761 13.4553 200.395 15.1117C200.964 16.5031 201.131 18.027 201.064 19.5509C201.131 20.7436 201.064 21.9362 200.93 23.0957C200.629 25.6466 199.092 28.0981 196.787 29.324C195.216 30.1521 193.379 30.4834 191.608 30.4503C189.202 30.3509 186.663 29.4896 185.059 27.6343C183.622 25.9779 182.987 23.7914 182.987 21.6381C182.987 20.2135 182.92 18.7559 183.087 17.3313C183.322 15.2111 184.358 13.1571 186.028 11.8319C187.331 10.805 188.968 10.2418 190.572 10.0099ZM133.136 10.8381C134.672 10.043 136.443 9.87736 138.147 9.87736C140.42 9.94362 142.758 10.308 144.796 11.3681C144.295 12.4283 143.794 13.4553 143.293 14.5153C141.823 13.9191 140.219 13.5215 138.615 13.389C137.412 13.3228 136.142 13.389 135.04 13.8859C134.071 14.3166 133.503 15.5424 133.871 16.5693C134.071 17.1326 134.539 17.5301 135.106 17.7289C135.675 17.9608 136.309 18.027 136.911 18.0932C138.482 18.2589 140.018 18.3914 141.589 18.6565C143.125 18.9215 144.529 19.9485 145.197 21.3399C145.732 22.4331 145.798 23.6921 145.699 24.8846C145.531 26.3092 144.73 27.6012 143.627 28.4625C142.291 29.5559 140.586 30.0527 138.916 30.2515C136.944 30.5165 134.973 30.3178 133.035 29.854C132.133 29.622 131.198 29.4233 130.362 28.9595C130.195 28.8932 130.095 28.7276 130.195 28.562C130.529 27.5681 130.897 26.5743 131.264 25.6135C133.871 26.7399 136.845 27.3693 139.651 26.6736C140.486 26.4748 141.322 25.9779 141.622 25.1497C141.856 24.3215 141.756 23.2945 141.054 22.6982C140.452 22.1681 139.617 22.0025 138.815 21.9031C137.245 21.7043 135.708 21.6049 134.138 21.373C132.333 21.0748 130.663 19.7828 130.162 18.027C129.794 16.7681 129.728 15.4098 130.128 14.151C130.596 12.6602 131.766 11.5338 133.136 10.8381ZM117.064 10.043C118.868 9.8111 120.84 9.94362 122.444 10.8713C124.114 11.8319 125.016 13.6872 125.35 15.5092C125.585 16.9669 125.551 18.4577 125.551 19.9485C125.551 23.2945 125.551 26.6074 125.551 29.9534C124.147 29.9534 122.744 29.9534 121.374 29.9534C121.374 26.8723 121.374 23.7914 121.374 20.7105C121.374 19.4847 121.441 18.2258 121.207 17C121.04 16.0393 120.506 15.1449 119.703 14.5485C117.933 13.2565 115.193 13.5547 113.722 15.1449C113.122 15.7411 112.754 16.5362 112.553 17.3645C112.319 18.4577 112.386 19.5841 112.353 20.6773C112.353 23.7583 112.353 26.8062 112.353 29.8871C110.949 29.9202 109.579 29.8871 108.176 29.8871C108.176 23.3939 108.176 16.9338 108.176 10.4405C109.546 10.4405 110.949 10.4405 112.319 10.4405C112.319 11.2356 112.319 12.0638 112.319 12.859C113.522 11.4013 115.193 10.2749 117.064 10.043ZM91.5366 22.5987C90.8683 23.2283 90.8014 24.2552 90.9017 25.1165C90.9685 25.8785 91.4697 26.5743 92.1714 26.8723C93.3408 27.3693 94.7108 27.3031 95.9136 27.0049C97.0161 26.7399 97.9855 26.011 98.5199 25.0172C99.0881 24.0564 99.0881 22.8969 99.0543 21.8368C97.5177 21.8368 95.9804 21.8037 94.41 21.8368C93.4077 21.87 92.3385 21.9362 91.5366 22.5987ZM89.0306 11.2025C91.002 10.1093 93.3074 9.91049 95.5127 9.94362C97.5177 10.043 99.7228 10.2749 101.227 11.6995C102.797 13.124 103.131 15.3768 103.197 17.3976C103.197 21.5718 103.197 25.746 103.197 29.9202C101.794 29.9202 100.391 29.9202 99.0205 29.9202C99.0205 29.2577 99.0205 28.562 99.0205 27.8994C98.0858 29.2577 96.5485 30.1521 94.9112 30.384C93.0735 30.6491 91.0688 30.5497 89.3647 29.7215C87.8946 28.9926 86.959 27.4687 86.7586 25.8454C86.5915 24.2221 86.7252 22.4331 87.7609 21.0748C88.7634 19.7497 90.4339 19.1534 92.0378 18.9215C94.3433 18.6233 96.6823 18.7228 99.0205 18.6896C99.0205 17.4638 99.0543 16.0724 98.2855 15.0123C97.4839 13.9522 96.0473 13.6872 94.7776 13.654C92.8397 13.5877 90.8349 13.9191 89.1642 14.946C88.7299 13.9853 88.2621 13.0577 87.7944 12.097C88.1284 11.6995 88.6297 11.4675 89.0306 11.2025ZM82.3814 10.2418C83.0497 10.043 83.7514 9.94362 84.4531 9.97674C84.4531 11.3019 84.4531 12.5939 84.4531 13.9191C83.551 13.9191 82.6154 13.9191 81.78 14.2834C80.477 14.8467 79.4412 16.0062 78.9066 17.2982C78.4722 18.2921 78.4053 19.3853 78.4053 20.4454C78.4053 23.6258 78.4053 26.773 78.4053 29.9534C77.0355 29.9534 75.6321 29.9534 74.2622 29.9534C74.2622 23.4602 74.2622 16.9669 74.2622 10.4736C75.6321 10.4736 77.0355 10.4736 78.4053 10.4736C78.4053 11.4344 78.4053 12.362 78.4053 13.3228C79.3743 11.9314 80.7442 10.7055 82.3814 10.2418ZM160.467 4.64302H164.643C164.643 6.56449 164.643 8.51908 164.643 10.4405C166.281 10.4405 167.918 10.4405 169.555 10.4405C169.555 11.5669 169.555 12.6933 169.555 13.7866C167.918 13.7866 166.281 13.7866 164.643 13.7866C164.643 17.1326 164.611 20.4786 164.677 23.8245C164.711 24.454 164.81 25.1165 165.078 25.7129C165.378 26.3423 166.047 26.6736 166.715 26.773C167.784 26.9386 168.887 26.8062 169.957 26.6074C169.957 27.7668 169.957 28.9263 169.957 30.0859C168.319 30.4503 166.615 30.5828 164.978 30.2515C164.143 30.0859 163.307 29.7546 162.605 29.2245C161.603 28.4295 160.934 27.2368 160.701 26.011C160.5 24.9509 160.434 23.8908 160.434 22.8306C160.467 16.8012 160.467 10.7387 160.467 4.64302ZM60.3959 4.64302C61.7659 4.64302 63.1692 4.64302 64.5391 4.64302C64.5391 6.56449 64.5391 8.51908 64.5391 10.4405C66.1763 10.4405 67.8469 10.4405 69.4842 10.4405C69.4842 11.5669 69.5175 12.6602 69.4508 13.7866C67.8135 13.7534 66.1763 13.7866 64.5391 13.7866C64.4722 16.6025 64.5057 19.4515 64.5391 22.2675C64.5391 23.3276 64.5056 24.3877 64.8397 25.4147C65.0402 26.0773 65.6416 26.6074 66.3433 26.7399C67.5127 26.9718 68.7156 26.8393 69.8851 26.6074C69.8851 27.7668 69.8851 28.9263 69.8851 30.0859C67.9472 30.5497 65.8087 30.6491 63.9043 29.9865C62.5343 29.5227 61.4651 28.3963 60.9639 27.0712C60.4961 25.8785 60.3625 24.5865 60.3625 23.3276C60.3959 17.1326 60.3959 10.8713 60.3959 4.64302ZM174.233 2.48966C175.67 2.48966 177.106 2.48966 178.544 2.48966C178.544 3.91419 178.544 5.33872 178.544 6.79639C177.106 6.79639 175.67 6.79639 174.233 6.79639C174.233 5.33872 174.233 3.91419 174.233 2.48966ZM149.875 2.48966H154.219C154.219 3.91419 154.219 5.37185 154.219 6.79639C152.782 6.79639 151.312 6.79639 149.875 6.79639C149.875 5.33872 149.875 3.91419 149.875 2.48966ZM49.8374 2.48966H54.1477C54.1477 3.91419 54.1477 5.37185 54.1477 6.79639H49.8374C49.8374 5.33872 49.8374 3.91419 49.8374 2.48966ZM13.5512 2.02586C16.8257 1.03199 20.3006 0.667576 23.7087 0.601318C24.6443 0.667576 25.5798 0.634447 26.5154 0.634447H37.5082C37.5082 2.05898 37.5416 3.48352 37.4747 4.90805C37.408 9.31417 37.7087 13.7866 36.7731 18.1264C36.0714 21.4393 34.668 24.6527 32.2958 27.1374C30.5917 28.9263 28.4867 30.2846 26.1812 31.2122C22.4724 32.7361 18.4629 33.2331 14.4868 33.3987H0.15271V21.87C0.219535 20.8429 0.25294 19.7828 0.353178 18.7559C0.754131 14.946 1.89019 11.1032 4.2625 8.05528C6.60139 5.07369 9.97602 3.08597 13.5512 2.02586Z" fill="url(#paint0_linear_168_3651)"/>
</g>
<defs>
<linearGradient id="paint0_linear_168_3651" x1="0.173544" y1="16.9946" x2="222.949" y2="16.9946" gradientUnits="userSpaceOnUse">
<stop stop-color="#F704D1"/>
<stop offset="1" stop-color="#2880FC"/>
</linearGradient>
<clipPath id="clip0_168_3651">
<rect width="222.83" height="32.7974" fill="white" transform="translate(0.15271 0.601318)"/>
</clipPath>
</defs>
</svg>
