<svg width="185" height="41" viewBox="0 0 185 41" fill="none" xmlns="http://www.w3.org/2000/svg">
<g clip-path="url(#clip0_168_3678)">
<path fill-rule="evenodd" clip-rule="evenodd" d="M36.8233 20.8226C37.1131 17.8835 39.1777 14.7294 40.6267 13.3674C42.4016 11.6829 45.1182 10.1774 48.7042 10.1416C51.928 10.1058 54.5722 11.3961 56.7817 13.3316C58.5929 14.9086 60.5126 18.3854 60.5126 20.8226H36.8233ZM46.8569 40.5001H51.0949C51.0949 40.2491 51.6745 40.3208 52.2902 40.2133C56.3471 39.4965 60.078 37.4893 62.3237 34.0484C62.7585 33.4033 64.0986 30.8943 64.0625 29.9982H59.4984C59.1724 30.5359 58.9913 31.1094 58.6291 31.6829C56.0573 35.8047 50.4791 37.5251 45.6253 36.2706C40.1557 34.837 37.3305 30.0699 36.7509 24.9803C36.7509 24.9445 36.7147 24.7294 36.7147 24.7294C36.7147 24.371 36.7147 24.5861 36.7871 24.4786C36.932 24.371 57.8322 24.4427 61.4182 24.4427C62.5049 24.4427 63.9537 24.5144 65.0042 24.4427L65.0766 24.1202C65.2577 22.7939 65.0042 19.9982 64.7506 18.7438C62.9033 10.285 54.862 5.30291 46.0238 6.55739C41.2787 7.2384 37.0769 9.92656 34.6138 13.9767C31.1365 19.7474 31.2451 27.9553 35.0122 33.5466C37.4753 37.2384 41.6409 39.8549 46.2049 40.3566C46.9293 40.3925 46.7845 40.3208 46.8569 40.5001Z" fill="white"/>
<path fill-rule="evenodd" clip-rule="evenodd" d="M152.118 24.8378C151.757 28.0637 150.453 31.3969 148.134 33.44C142.773 38.1353 134.805 37.4185 130.639 31.8988C128.828 29.4973 127.633 25.9489 128.031 22.1138C128.719 15.3396 133.717 9.74822 141.433 10.5368C148.75 11.2536 152.807 18.1712 152.118 24.8378ZM138.137 40.5009H142.085C142.085 40.2858 142.23 40.3576 142.882 40.2858C146.794 39.8199 150.38 37.741 152.843 34.8737C155.451 31.8629 156.9 27.6335 156.719 22.4364C156.393 13.2249 149.474 6.34321 140.057 6.37905C130.494 6.41489 123.829 13.1891 123.467 22.4364C123.285 27.4901 124.807 31.9346 127.343 34.8737C129.299 37.1317 131.689 38.8163 134.768 39.7124C136 40.0708 136.579 40.1783 137.775 40.3217C138.065 40.3934 138.065 40.3217 138.137 40.5009Z" fill="white"/>
<path fill-rule="evenodd" clip-rule="evenodd" d="M71.7054 39.7839C71.8502 39.2104 71.7416 21.9344 71.7416 20.8591C71.7416 17.5258 71.9951 15.5186 73.5889 13.2247C76.3418 9.3179 83.0787 8.63694 86.3387 13.1889C87.8963 15.3753 87.9691 17.8125 87.9691 20.9308C87.9691 22.0419 87.8603 39.1745 88.0051 39.7839H92.3523C92.4603 39.1387 92.3883 26.128 92.3883 25.0885C92.3883 20.6082 92.8587 15.5545 90.9395 11.8985C87.1723 4.69426 76.9213 4.76594 72.5384 9.9631C72.3211 10.214 71.9951 10.8233 71.7416 11.0025V6.98816H67.3586L67.3949 39.7481L71.7054 39.7839Z" fill="white"/>
<path fill-rule="evenodd" clip-rule="evenodd" d="M184.209 39.8198V16.8091C184.028 16.5941 184.064 16.2356 183.991 15.8772C183.521 12.7947 181.999 9.85567 179.391 8.17109C175.37 5.51875 169.357 5.76965 165.663 8.78039C165.192 9.17471 164.359 9.99903 164.033 10.5009C163.888 10.7159 163.743 10.9668 163.562 11.0743L163.526 7.05998L159.179 7.09582L159.216 39.8557H163.562C163.707 39.2105 163.598 22.0779 163.598 20.9309C163.598 17.6693 163.779 15.5546 165.445 13.2965C168.525 9.13887 175.117 8.92375 178.196 13.2607C179.789 15.5188 179.862 17.8126 179.862 21.0026C179.862 21.9704 179.789 39.3897 179.898 39.8557L184.209 39.8198Z" fill="white"/>
<path fill-rule="evenodd" clip-rule="evenodd" d="M0.452393 7.16697C0.705948 7.38203 10.1599 31.3247 11.9348 35.6616L13.1664 38.7441C13.3113 39.0666 13.4199 39.5326 13.601 39.7476L21.4975 39.7834L28.0537 23.4035C29.1042 20.6437 30.2995 17.9555 31.3499 15.1957C31.6397 14.443 34.5375 7.41787 34.6099 6.95191C33.8493 6.95191 30.6617 6.84439 30.227 7.0236L18.9982 35.8408L16.1728 35.8766L4.90772 6.98776H0.488617L0.452393 7.16697Z" fill="white"/>
<path fill-rule="evenodd" clip-rule="evenodd" d="M99.6318 0.5H95.2494C95.2494 9.17384 95.2494 17.8835 95.2494 26.5574C95.2494 28.6362 95.1406 31.0018 95.2854 33.0806C95.539 37.0591 97.7486 39.2814 101.733 39.7114C102.529 39.7831 107.637 39.8907 108.144 39.7473C108.289 39.4247 108.217 36.1273 108.144 35.9122C104.921 35.5538 99.6318 37.3101 99.6318 31.862C99.6318 28.8871 99.523 11.0734 99.7046 10.9301C100.284 10.715 107.021 10.9659 108.434 10.8584V7.0233L99.6678 6.98746L99.6318 0.5Z" fill="white"/>
<path fill-rule="evenodd" clip-rule="evenodd" d="M110.859 10.8957H116.582C116.763 11.6125 116.51 35.1968 116.618 39.3545L116.691 39.7487L121.001 39.7845L121.037 7.06055H110.895L110.859 10.8957Z" fill="white"/>
</g>
<defs>
<clipPath id="clip0_168_3678">
<rect width="184" height="40" fill="white" transform="translate(0.452393 0.5)"/>
</clipPath>
</defs>
</svg>
