<svg width="170" height="56" viewBox="0 0 170 56" fill="none" xmlns="http://www.w3.org/2000/svg">
<path d="M58.1612 18.976L44.1229 5.18456C40.7261 1.84737 36.283 0.0425661 31.8298 0C27.3688 0.0425661 22.9335 1.84737 19.5282 5.18456L5.49836 18.976C-1.38884 25.744 -1.38884 36.7175 5.49836 43.4856L7.26911 45.2223C10.4275 48.3211 26.8495 55.4041 28.3223 56V29.2174C28.3223 28.4001 27.7519 27.6595 26.9772 27.353L18.2256 23.9307C17.4935 24.5436 16.557 24.9097 15.5269 24.9097C13.2028 24.9097 11.3299 23.0283 11.3299 20.7127C11.3299 18.3971 13.2113 16.5157 15.5269 16.5157C17.6723 16.5157 19.443 18.1332 19.6899 20.2019L28.2117 23.5306C29.378 23.9818 30.5954 24.2201 31.8213 24.2372C33.0472 24.2201 34.2731 23.9903 35.4309 23.5306L43.9611 20.2019C44.2165 18.1332 45.9788 16.5157 48.1241 16.5157C50.4482 16.5157 52.3211 18.3971 52.3211 20.7127C52.3211 23.0283 50.4397 24.9097 48.1241 24.9097C47.094 24.9097 46.149 24.5436 45.4254 23.9307L36.6653 27.353C35.8821 27.6595 35.3202 28.3916 35.3202 29.2174V56C36.793 55.4041 53.2235 48.3211 56.3734 45.2223L58.1442 43.477C65.0484 36.709 65.0484 25.744 58.1612 18.976ZM31.8298 18.3375C29.0289 18.3375 26.7559 16.0645 26.7559 13.2636C26.7559 10.4628 29.0289 8.18972 31.8298 8.18972C34.6306 8.18972 36.8951 10.4628 36.8951 13.2636C36.8951 16.0645 34.6221 18.3375 31.8298 18.3375Z" fill="#7DBA28"/>
<path d="M83.8794 7.48315H80.9509V25.7355H83.8794V7.48315Z" fill="#FAFAFA"/>
<path d="M91.4822 25.7355H94.4022V10.0541L99.8005 10.0882V7.48315H86.1274V10.0882L91.4822 10.0541V25.7355Z" fill="#FAFAFA"/>
<path d="M111.411 19.1718H114.604C115.574 19.1718 116.46 19.0185 117.243 18.712C118.026 18.4056 118.69 17.9884 119.243 17.4521C119.797 16.9243 120.222 16.2943 120.52 15.5792C120.827 14.8726 120.972 14.1064 120.972 13.2721C120.972 12.4378 120.835 11.7057 120.546 10.9905C120.265 10.2839 119.856 9.67099 119.329 9.14317C118.801 8.62386 118.154 8.20672 117.387 7.91727C116.621 7.61079 115.744 7.46606 114.774 7.46606H108.491V25.7184H111.42L111.411 19.1718ZM111.403 10.0881H114.757C115.83 10.0881 116.638 10.3691 117.2 10.948C117.762 11.5269 118.043 12.3016 118.043 13.2806C118.043 14.3107 117.737 15.1109 117.124 15.6984C116.519 16.2858 115.676 16.5752 114.595 16.5752H111.403V10.0881Z" fill="#FAFAFA"/>
<path d="M130.336 7.48315H127.357L120.699 25.7355H123.739L125.305 21.2405H132.371L133.963 25.7355H137.002L130.336 7.48315ZM126.207 18.7121L127.561 14.8386L128.812 10.5139H128.863L130.115 14.8386L131.46 18.7121H126.207Z" fill="#FAFAFA"/>
<path d="M151.228 16.3625C151.952 15.426 152.309 14.3363 152.309 13.0679C152.309 12.2846 152.173 11.561 151.883 10.8885C151.602 10.2159 151.194 9.62001 150.666 9.11773C150.138 8.61544 149.474 8.20681 148.682 7.92587C147.891 7.64494 147.005 7.4917 146.018 7.4917H139.335V25.7441H142.263V18.7632H145.439L149.5 25.7441H152.633L148.333 18.3205C149.542 17.9374 150.504 17.2819 151.228 16.3625ZM142.263 16.1496V10.0882H146.035C147.15 10.0882 147.984 10.3607 148.546 10.9055C149.108 11.4503 149.389 12.174 149.389 13.0679C149.389 13.9618 149.1 14.7535 148.478 15.3154C147.874 15.8772 147.031 16.1496 145.95 16.1496H142.263Z" fill="#FAFAFA"/>
<path d="M158.379 7.48315H155.451V25.7355H158.379V7.48315Z" fill="#FAFAFA"/>
<path d="M170 25.7355L162.091 16.039L169.762 7.4917H166.4L159.41 15.2558V16.9329L166.527 25.7355H170Z" fill="#FAFAFA"/>
<path d="M150.589 40.9568H154.446L152.505 35.6531L150.589 40.9568Z" fill="#7DBA28"/>
<path d="M107.062 39.876H103.844V43.3664H107.062V43.3749C107.547 43.3749 107.947 43.2046 108.279 42.8641C108.611 42.5236 108.773 42.1064 108.773 41.6212C108.773 41.1359 108.603 40.7273 108.271 40.3868C107.939 40.0462 107.539 39.876 107.062 39.876Z" fill="#7DBA28"/>
<path d="M107.861 38.1052C108.168 37.7902 108.321 37.3986 108.321 36.9389C108.321 36.4792 108.168 36.1046 107.853 35.7811C107.538 35.4491 107.163 35.2874 106.721 35.2874H103.843V38.582H106.721C107.172 38.582 107.555 38.4202 107.861 38.1052Z" fill="#7DBA28"/>
<path d="M167.156 30.1199H83.6581C82.0831 30.1199 80.8146 31.3969 80.8146 32.9633V45.6906C80.8146 47.2655 82.0916 48.534 83.6581 48.534H167.156C168.731 48.534 169.999 47.2655 169.999 45.6906V32.9633C169.999 31.3883 168.722 30.1199 167.156 30.1199ZM92.1542 41.1019C92.1542 42.2597 91.7797 43.1792 91.0305 43.8687C90.2813 44.5668 89.3108 44.9159 88.1275 44.9159C86.9442 44.9159 85.9651 44.5668 85.216 43.8772C84.4583 43.1877 84.0837 42.2597 84.0837 41.1019V33.9508H85.5139V41.0423C85.5139 41.8 85.7353 42.4045 86.1865 42.8471C86.6377 43.2898 87.2847 43.5197 88.1275 43.5197C88.9703 43.5197 89.6173 43.2983 90.0685 42.8471C90.5197 42.4045 90.7411 41.8 90.7411 41.0423V33.9508H92.1542V41.1019ZM100.812 44.7115H93.7803V43.4686L98.9819 35.3044H93.925V33.9508H100.693V35.1852L95.4744 43.3579H100.812V44.7115ZM109.266 43.8347C108.661 44.4221 107.921 44.7115 107.052 44.7115H102.413V33.9423H106.72C107.563 33.9423 108.27 34.2232 108.857 34.7851C109.445 35.347 109.734 36.0451 109.734 36.8794C109.734 37.8414 109.342 38.5905 108.568 39.1269C109.062 39.3652 109.453 39.6973 109.743 40.1399C110.032 40.5826 110.177 41.0849 110.177 41.6638C110.177 42.5236 109.87 43.2473 109.266 43.8347ZM118.298 44.7115H111.871V33.9423H118.222V35.2959H113.301V38.599H117.839V39.9356H113.301V43.3579H118.298V44.7115ZM126.096 44.7115L121.448 39.544V44.7115H120.018V33.9423H121.448V38.8034L125.943 33.9423H127.697L122.947 39.1694L127.85 44.7115H126.096ZM130.557 44.7201H129.127V33.9508H130.557V44.7201ZM138.892 44.0475C138.177 44.6349 137.283 44.9159 136.176 44.9159C135.172 44.9159 134.312 44.6775 133.597 44.2093C132.882 43.741 132.388 43.094 132.098 42.2682L133.333 41.5617C133.75 42.8642 134.712 43.5112 136.21 43.5112C136.951 43.5112 137.513 43.3579 137.904 43.06C138.296 42.7535 138.492 42.3534 138.492 41.8511C138.492 41.3488 138.296 40.9572 137.904 40.6933C137.513 40.4379 136.866 40.1655 135.955 39.876C135.504 39.7313 135.163 39.6206 134.925 39.527C134.686 39.4419 134.397 39.3056 134.039 39.1269C133.682 38.9481 133.418 38.7608 133.248 38.5735C133.077 38.3862 132.916 38.1393 132.779 37.8243C132.643 37.5179 132.575 37.1688 132.575 36.7772C132.575 35.8408 132.907 35.1001 133.563 34.5553C134.218 34.0104 135.018 33.7295 135.963 33.7295C136.815 33.7295 137.555 33.9423 138.185 34.3765C138.815 34.8107 139.292 35.3725 139.607 36.0876L138.407 36.7772C137.947 35.6705 137.13 35.1171 135.963 35.1171C135.376 35.1171 134.908 35.2619 134.55 35.5513C134.193 35.8408 134.014 36.2239 134.014 36.7176C134.014 37.1859 134.184 37.5519 134.525 37.7903C134.865 38.0287 135.444 38.2926 136.278 38.5565C136.576 38.6501 136.789 38.7182 136.908 38.7523C137.027 38.7949 137.223 38.863 137.487 38.9651C137.751 39.0673 137.938 39.1524 138.066 39.212C138.185 39.2716 138.356 39.3567 138.568 39.4759C138.781 39.5866 138.934 39.6973 139.037 39.7994C139.139 39.9016 139.258 40.0293 139.394 40.174C139.53 40.3187 139.633 40.472 139.692 40.6252C139.752 40.7784 139.811 40.9572 139.854 41.153C139.896 41.3488 139.922 41.5702 139.922 41.7915C139.922 42.7365 139.581 43.4856 138.892 44.0475ZM144.911 44.7201H143.498V35.3044H140.331V33.9508H148.095V35.3044H144.911V44.7201ZM155.816 44.7115L154.939 42.2938H150.095L149.218 44.7115H147.695L151.713 33.9423H153.33L157.349 44.7115H155.816ZM166.739 44.7201H165.581L160.047 36.6751V44.7201H158.617V33.9508H159.775L165.308 41.9788V33.9508H166.739V44.7201Z" fill="#7DBA28"/>
</svg>
