<svg width="90" height="59" viewBox="0 0 90 59" fill="none" xmlns="http://www.w3.org/2000/svg">
<path d="M88.0967 58.7313H1.54565C0.692117 58.7313 1.52588e-05 58.0392 1.52588e-05 57.1857V1.54563C1.52588e-05 0.692101 0.692117 0 1.54565 0H88.0969C88.9504 0 89.6425 0.692101 89.6425 1.54563V57.1857C89.6423 58.0394 88.9502 58.7313 88.0967 58.7313Z" fill="#FF4B55"/>
<path d="M23.2356 29.3657C23.2356 36.1992 28.7738 41.7376 35.6012 41.7376C38.1456 41.7376 40.4919 40.9557 42.4462 39.6305C42.7423 39.4298 43.0842 39.8168 42.8365 40.0747C40.0327 42.995 36.1063 44.8215 31.7374 44.8215C22.8684 44.8215 15.745 37.3449 16.3205 28.3487C16.8232 20.4945 23.3349 14.188 31.2006 13.9196C35.779 13.7632 39.9082 15.6137 42.8258 18.647C43.076 18.9072 42.7347 19.2999 42.4359 19.0975C40.4837 17.7753 38.1413 16.994 35.6012 16.994C28.774 16.994 23.2356 22.5449 23.2356 29.3657Z" fill="#F5F5F5"/>
<path d="M51.4206 27.2394L48.998 24.0702C48.8627 23.893 48.5794 23.9902 48.5815 24.2133L48.6169 28.2022L44.8542 29.5268C44.6437 29.6009 44.6488 29.9001 44.8615 29.9672L48.6661 31.1663L48.7632 35.1542C48.7687 35.3771 49.0551 35.4648 49.1845 35.2832L51.5005 32.0354L55.3232 33.1754C55.5368 33.2391 55.7088 32.9942 55.576 32.8149L53.2028 29.6084L55.4682 26.3251C55.595 26.1416 55.415 25.9025 55.2035 25.9732L51.4206 27.2394Z" fill="#F5F5F5"/>
</svg>
