<svg width="90" height="60" viewBox="0 0 90 60" fill="none" xmlns="http://www.w3.org/2000/svg">
<path d="M88.1259 59.2462H1.5748C0.721277 59.2462 0.0291748 58.5555 0.0291748 57.7037V2.17629C0.0291748 1.32449 0.721277 0.633789 1.5748 0.633789H88.1261C88.9796 0.633789 89.6717 1.32449 89.6717 2.17629V57.7037C89.6715 58.5557 88.9794 59.2462 88.1259 59.2462Z" fill="#41479B"/>
<path d="M43.3046 0.633789H40.6199L26.3034 9.99471V0.633789H18.5756V9.99471L4.25916 0.633789H1.5748C0.721275 0.633789 0.0291748 1.32432 0.0291748 2.17612V3.39957L12.3121 11.4306H0.0291748V19.1428H12.3121L0.0291748 27.174V28.3975C0.0291748 29.2493 0.721275 29.94 1.5748 29.94H4.25951L18.576 20.5791V29.94H26.3038V20.5791L40.6201 29.94H43.3048C44.1583 29.94 44.8504 29.2493 44.8504 28.3975V27.174L32.5675 19.143H44.8503V11.4308H32.5673L44.8503 3.39975V2.17629C44.8503 1.32432 44.1581 0.633789 43.3046 0.633789Z" fill="#F5F5F5"/>
<path d="M44.8504 12.9733H24.7581V0.633789H20.1215V12.9733H0.0291748V17.6005H20.1215V29.94H24.7581V17.6005H44.8504V12.9733Z" fill="#FF4B55"/>
<path d="M17.2681 10.9772L0.776054 0.633789C0.337194 0.90206 0.0291748 1.35301 0.0291748 1.89195V1.97051L14.3896 10.9772H17.2681Z" fill="#FF4B55"/>
<path d="M28.8274 10.9773L44.8505 1.37493C44.572 0.939895 44.0806 0.633911 43.4934 0.633911H43.1472L25.8876 10.9773H28.8274Z" fill="#FF4B55"/>
<path d="M16.0473 19.5967L0.0291748 29.1806C0.305391 29.6262 0.805158 29.94 1.4019 29.94H1.70427L18.992 19.5967H16.0473V19.5967Z" fill="#FF4B55"/>
<path d="M44.8505 28.7048L30.4383 19.5967H27.6115L43.9777 29.94C44.4679 29.7185 44.8043 29.2543 44.8505 28.7048Z" fill="#FF4B55"/>
<path d="M22.7653 38.8068L23.9082 42.672L27.5709 41.1776C27.8834 41.05 28.1675 41.4151 27.9767 41.6987L25.7393 45.024L29.1634 47.0256C29.4555 47.1964 29.3541 47.6515 29.0186 47.6755L25.0856 47.9569L25.693 51.9474C25.7448 52.2879 25.3341 52.4905 25.1067 52.2366L22.4397 49.2621L19.7727 52.2366C19.5453 52.4903 19.1346 52.2877 19.1864 51.9474L19.7938 47.9569L15.8608 47.6755C15.5253 47.6515 15.4239 47.1964 15.716 47.0256L19.1401 45.024L16.9027 41.6987C16.7119 41.4151 16.996 41.05 17.3085 41.1776L20.9712 42.672L22.1141 38.8068C22.2121 38.477 22.6678 38.477 22.7653 38.8068Z" fill="#F5F5F5"/>
<path d="M69.148 11.101L69.7195 13.0335L71.5506 12.2864C71.7067 12.2227 71.8489 12.4051 71.7534 12.547L70.6348 14.2098L72.3468 15.2107C72.4928 15.2959 72.4421 15.5236 72.2743 15.5355L70.3079 15.6761L70.6115 17.6712C70.6375 17.8416 70.4321 17.9428 70.3183 17.8158L68.9849 16.3286L67.6515 17.8158C67.5377 17.9426 67.3325 17.8414 67.3583 17.6712L67.6619 15.6761L65.6955 15.5355C65.5277 15.5236 65.477 15.2959 65.623 15.2107L67.335 14.2098L66.2164 12.547C66.1209 12.4051 66.2631 12.2227 66.4192 12.2864L68.2503 13.0335L68.8218 11.101C68.8713 10.9361 69.0994 10.9361 69.148 11.101Z" fill="#F5F5F5"/>
<path d="M55.3567 24.8922L55.9282 26.8248L57.7593 26.0777C57.9154 26.014 58.0576 26.1964 57.9621 26.3383L56.8436 28.001L58.5555 29.0019C58.7016 29.0872 58.6508 29.3149 58.483 29.3267L56.5167 29.4674L56.8202 31.4625C56.8462 31.6328 56.6408 31.7341 56.527 31.6071L55.1936 30.1199L53.8602 31.6071C53.7465 31.7339 53.5412 31.6326 53.567 31.4625L53.8706 29.4674L51.9043 29.3267C51.7364 29.3149 51.6857 29.0872 51.8318 29.0019L53.5437 28.001L52.4252 26.3383C52.3297 26.1964 52.4719 26.014 52.628 26.0777L54.4591 26.8248L55.0305 24.8922C55.08 24.7273 55.3079 24.7273 55.3567 24.8922Z" fill="#F5F5F5"/>
<path d="M81.2151 19.7204L81.7866 21.6529L83.6177 20.9058C83.7738 20.8421 83.916 21.0245 83.8205 21.1664L82.702 22.8291L84.4139 23.83C84.56 23.9153 84.5093 24.143 84.3414 24.1549L82.3751 24.2955L82.6786 26.2906C82.7046 26.4609 82.4992 26.5622 82.3856 26.4352L81.0522 24.948L79.7187 26.4352C79.605 26.562 79.3997 26.4608 79.4255 26.2906L79.7291 24.2955L77.7627 24.1549C77.5949 24.143 77.5441 23.9153 77.6902 23.83L79.4022 22.8291L78.2836 21.1664C78.1881 21.0245 78.3303 20.8421 78.4864 20.9058L80.3176 21.6529L80.8891 19.7204C80.9384 19.5554 81.1663 19.5554 81.2151 19.7204Z" fill="#F5F5F5"/>
<path d="M69.148 43.855L69.7195 45.7876L71.5506 45.0403C71.7067 44.9766 71.8489 45.159 71.7534 45.3009L70.6348 46.9637L72.3468 47.9646C72.4928 48.0499 72.4421 48.2776 72.2743 48.2894L70.3079 48.4301L70.6115 50.4253C70.6375 50.5956 70.4321 50.6968 70.3183 50.5699L68.9849 49.0826L67.6515 50.5699C67.5377 50.6967 67.3325 50.5954 67.3583 50.4253L67.6619 48.4301L65.6955 48.2894C65.5277 48.2776 65.477 48.0499 65.623 47.9646L67.335 46.9637L66.2164 45.3009C66.1209 45.159 66.2631 44.9766 66.4192 45.0403L68.2503 45.7876L68.8218 43.855C68.8713 43.6901 69.0994 43.6901 69.148 43.855Z" fill="#F5F5F5"/>
<path d="M73.0852 28.3744L72.5668 30.0016L70.9283 30.0149C70.7162 30.0168 70.6281 30.3 70.799 30.4319L72.117 31.4508L71.6227 33.0862C71.5588 33.298 71.7891 33.473 71.9615 33.3439L73.2947 32.3465L74.6278 33.3439C74.8004 33.473 75.0306 33.2978 74.9667 33.0862L74.4723 31.4508L75.7904 30.4319C75.9612 30.2998 75.8731 30.0168 75.661 30.0149L74.0226 30.0016L73.5042 28.3744C73.4369 28.1636 73.1522 28.1636 73.0852 28.3744Z" fill="#F5F5F5"/>
</svg>
