<svg width="90" height="60" viewBox="0 0 90 60" fill="none" xmlns="http://www.w3.org/2000/svg">
<path d="M88.155 59.3652H1.60395C0.750421 59.3652 0.0583191 58.6731 0.0583191 57.8196V2.17954C0.0583191 1.32601 0.750421 0.633911 1.60395 0.633911H88.1552C89.0087 0.633911 89.7008 1.32601 89.7008 2.17954V57.8196C89.7006 58.6733 89.0086 59.3652 88.155 59.3652Z" fill="#FF4B55"/>
<path d="M89.7006 22.272H40.2428V0.634277H24.7872V22.272H0.0583191V37.7276H24.7872V59.3654H40.2428V37.7276H89.7006V22.272Z" fill="#F5F5F5"/>
<path d="M89.7006 25.3631H37.1517V0.634277H27.8784V25.3631H0.0583191V34.6366H27.8784V59.3654H37.1517V34.6366H89.7006V25.3631Z" fill="#41479B"/>
</svg>
