<svg width="91" height="60" viewBox="0 0 91 60" fill="none" xmlns="http://www.w3.org/2000/svg">
<path d="M88.6697 59.3651H2.11863C1.2651 59.3651 0.572998 58.673 0.572998 57.8195V2.17942C0.572998 1.32589 1.2651 0.633789 2.11863 0.633789H88.6699C89.5234 0.633789 90.2155 1.32589 90.2155 2.17942V57.8195C90.2153 58.6732 89.5232 59.3651 88.6697 59.3651Z" fill="#73AF00"/>
<path d="M44.5908 8.85082L12.0157 28.6791C11.0263 29.2812 11.0263 30.7172 12.0157 31.3195L44.5908 51.148C45.0844 51.4484 45.7044 51.4484 46.1981 51.148L78.7735 31.3197C79.7629 30.7176 79.7629 29.2816 78.7735 28.6793L46.1981 8.85082C45.7045 8.55038 45.0844 8.55038 44.5908 8.85082Z" fill="#FFE15A"/>
<path d="M45.3942 42.3641C52.2229 42.3641 57.7586 36.8284 57.7586 29.9997C57.7586 23.1711 52.2229 17.6354 45.3942 17.6354C38.5656 17.6354 33.0299 23.1711 33.0299 29.9997C33.0299 36.8284 38.5656 42.3641 45.3942 42.3641Z" fill="#41479B"/>
<path d="M34.7842 23.6746C34.2008 24.6512 33.7503 25.7126 33.4527 26.8396C40.307 26.3238 50.4466 28.2413 56.9001 34.5035C57.3214 33.4283 57.5994 32.2829 57.7038 31.0855C51.0399 25.4771 41.8273 23.4827 34.7842 23.6746Z" fill="#F5F5F5"/>
<path d="M45.9056 34.2193L46.2348 35.2064L47.2753 35.2144C47.4099 35.2155 47.4658 35.3874 47.3576 35.4674L46.5205 36.0856L46.8344 37.0777C46.875 37.2062 46.7287 37.3124 46.6192 37.234L45.7727 36.6289L44.9262 37.234C44.8166 37.3124 44.6704 37.2062 44.711 37.0777L45.0249 36.0856L44.1879 35.4674C44.0795 35.3874 44.1353 35.2155 44.27 35.2144L45.3105 35.2064L45.6397 34.2193C45.6822 34.0915 45.8629 34.0915 45.9056 34.2193Z" fill="#F5F5F5"/>
<path d="M49.9501 36.7732L50.0917 37.1979L50.5396 37.2014C50.5975 37.2018 50.6217 37.2758 50.575 37.3103L50.2146 37.5763L50.3496 38.0033C50.3671 38.0586 50.3043 38.1043 50.257 38.0705L49.8927 37.8102L49.5283 38.0705C49.4812 38.1043 49.4182 38.0586 49.4357 38.0033L49.5707 37.5763L49.2104 37.3103C49.1638 37.276 49.1878 37.202 49.2457 37.2014L49.6936 37.1979L49.8352 36.7732C49.8538 36.718 49.9317 36.718 49.9501 36.7732Z" fill="#F5F5F5"/>
<path d="M44.1574 32.3441L44.2991 32.7688L44.7469 32.7723C44.8049 32.7727 44.829 32.8468 44.7823 32.8812L44.422 33.1472L44.557 33.5742C44.5745 33.6295 44.5116 33.6752 44.4643 33.6414L44.1 33.3811L43.7357 33.6414C43.6886 33.6752 43.6255 33.6295 43.643 33.5742L43.778 33.1472L43.4177 32.8812C43.3711 32.8469 43.3951 32.7729 43.4531 32.7723L43.9009 32.7688L44.0426 32.3441C44.0611 32.2891 44.139 32.2891 44.1574 32.3441Z" fill="#F5F5F5"/>
<path d="M36.3129 31.829L36.4545 32.2537L36.9024 32.2572C36.9603 32.2576 36.9845 32.3316 36.9378 32.3661L36.5774 32.6321L36.7124 33.0591C36.7299 33.1144 36.6671 33.1601 36.6198 33.1263L36.2555 32.866L35.8911 33.1263C35.844 33.1601 35.781 33.1144 35.7985 33.0591L35.9335 32.6321L35.5732 32.3661C35.5266 32.3318 35.5506 32.2577 35.6085 32.2572L36.0564 32.2537L36.198 31.829C36.2168 31.774 36.2945 31.774 36.3129 31.829Z" fill="#F5F5F5"/>
<path d="M42.8754 36.6261L43.017 37.0508L43.4649 37.0543C43.5228 37.0547 43.547 37.1287 43.5003 37.1632L43.1399 37.4292L43.2749 37.8562C43.2924 37.9115 43.2296 37.9572 43.1823 37.9234L42.818 37.6631L42.4536 37.9234C42.4065 37.9572 42.3435 37.9115 42.361 37.8562L42.496 37.4292L42.1357 37.1632C42.0891 37.1289 42.1131 37.0548 42.171 37.0543L42.6189 37.0508L42.7605 36.6261C42.7793 36.5713 42.8572 36.5713 42.8754 36.6261Z" fill="#F5F5F5"/>
<path d="M39.2645 31.5326L39.3804 31.88L39.7466 31.883C39.7939 31.8833 39.8137 31.9439 39.7757 31.9721L39.481 32.1896L39.5915 32.5387C39.6059 32.5838 39.5544 32.6213 39.5157 32.5937L39.2177 32.3808L38.9197 32.5937C38.881 32.6213 38.8297 32.5838 38.8439 32.5387L38.9544 32.1896L38.6597 31.9721C38.6217 31.9439 38.6412 31.8833 38.6888 31.883L39.0551 31.88L39.171 31.5326C39.1858 31.4877 39.2494 31.4877 39.2645 31.5326Z" fill="#F5F5F5"/>
<path d="M50.2645 24.361L50.4095 24.7956L50.8675 24.7991C50.9269 24.7994 50.9514 24.8752 50.9036 24.9104L50.5352 25.1825L50.6734 25.6193C50.6914 25.6759 50.6268 25.7226 50.5786 25.6881L50.2059 25.4217L49.8331 25.6881C49.7848 25.7228 49.7206 25.6757 49.7384 25.6193L49.8766 25.1825L49.5082 24.9104C49.4604 24.8752 49.4851 24.7996 49.5443 24.7991L50.0023 24.7956L50.1472 24.361C50.1661 24.3046 50.2458 24.3046 50.2645 24.361Z" fill="#F5F5F5"/>
<path d="M36.8173 29.4074L36.9332 29.7548L37.2994 29.7577C37.3467 29.7581 37.3665 29.8187 37.3285 29.8469L37.0338 30.0643L37.1443 30.4134C37.1587 30.4586 37.1072 30.4961 37.0685 30.4684L36.7705 30.2555L36.4725 30.4684C36.4338 30.4961 36.3825 30.4586 36.3967 30.4134L36.5072 30.0643L36.2125 29.8469C36.1745 29.8187 36.194 29.7583 36.2416 29.7577L36.6079 29.7548L36.7238 29.4074C36.7386 29.3624 36.8022 29.3624 36.8173 29.4074Z" fill="#F5F5F5"/>
<path d="M38.5856 34.3033L38.761 34.8296L39.3157 34.8338C39.3874 34.8343 39.4172 34.9259 39.3594 34.9686L38.9131 35.2981L39.0805 35.8268C39.1022 35.8953 39.0243 35.952 38.9658 35.9102L38.5145 35.5877L38.0631 35.9102C38.0048 35.9519 37.9267 35.8953 37.9484 35.8268L38.1158 35.2981L37.6695 34.9686C37.6118 34.9259 37.6415 34.8343 37.7133 34.8338L38.268 34.8296L38.4434 34.3033C38.4667 34.2353 38.563 34.2353 38.5856 34.3033Z" fill="#F5F5F5"/>
<path d="M52.2057 36.8835L52.316 37.2146L52.6649 37.2172C52.7101 37.2175 52.7288 37.2751 52.6926 37.3019L52.4119 37.5092L52.5172 37.8419C52.5308 37.885 52.4818 37.9205 52.4449 37.8942L52.1611 37.6913L51.8771 37.8942C51.8403 37.9205 51.7913 37.885 51.8048 37.8419L51.91 37.5092L51.6293 37.3019C51.5931 37.2751 51.6118 37.2175 51.657 37.2172L52.0059 37.2146L52.1162 36.8835C52.1308 36.8406 52.1915 36.8406 52.2057 36.8835Z" fill="#F5F5F5"/>
<path d="M53.4263 34.3565L53.568 34.7813L54.0158 34.7848C54.0738 34.7851 54.098 34.8592 54.0512 34.8937L53.6909 35.1597L53.8259 35.5867C53.8434 35.642 53.7805 35.6877 53.7333 35.6539L53.3689 35.3936L53.0046 35.6539C52.9575 35.6877 52.8944 35.642 52.912 35.5867L53.0469 35.1597L52.6866 34.8937C52.6401 34.8594 52.664 34.7853 52.722 34.7848L53.1698 34.7813L53.3115 34.3565C53.3301 34.3014 53.408 34.3014 53.4263 34.3565Z" fill="#F5F5F5"/>
</svg>
