<svg width="90" height="60" viewBox="0 0 90 60" fill="none" xmlns="http://www.w3.org/2000/svg">
<path d="M88.184 59.365H1.63309C0.779564 59.365 0.0874634 58.6729 0.0874634 57.8194V2.17942C0.0874634 1.32589 0.779564 0.633789 1.63309 0.633789H88.1842C89.0377 0.633789 89.7298 1.32589 89.7298 2.17942V57.8194C89.7296 58.6729 89.0375 59.365 88.184 59.365Z" fill="#41479B"/>
<path d="M89.7296 2.17942C89.7296 1.32589 89.0375 0.633789 88.184 0.633789H81.2691L52.6361 19.3933V0.633789H37.1806V19.3933L8.54779 0.633789H1.63309C0.779564 0.633789 0.0874634 1.32589 0.0874634 2.17942V6.17672L24.6531 22.2715H0.0874634V37.7271H24.6531L0.0874634 53.8221V57.8194C0.0874634 58.6729 0.779564 59.365 1.63309 59.365H8.54797L37.1809 40.6054V59.365H52.6365V40.6054L81.2695 59.365H88.1843C89.0379 59.365 89.73 58.6729 89.73 57.8194V53.8221L65.1643 37.7273H89.7296V22.2717H65.164L89.7296 6.17672V2.17942Z" fill="#F5F5F5"/>
<path d="M89.7296 25.3628H49.5452V0.633789H40.2718V25.3628H0.0874634V34.636H40.2718V59.365H49.5452V34.636H89.7296V25.3628Z" fill="#FF4B55"/>
<path d="M31.4184 37.7275L0.131531 58.0366C0.240957 58.7829 0.856372 59.3654 1.63321 59.3654H3.76204L37.096 37.7277H31.4184V37.7275V37.7275Z" fill="#FF4B55"/>
<path d="M60.7348 37.7275H55.0573L88.3427 59.3334C89.1185 59.2508 89.7307 58.6173 89.7307 57.8196V56.5489L60.7348 37.7275Z" fill="#FF4B55"/>
<path d="M0.088623 3.88609L28.4133 22.2722H34.0908L0.989071 0.785034C0.460323 1.03067 0.088623 1.55855 0.088623 2.17991V3.88609Z" fill="#FF4B55"/>
<path d="M58.3152 22.2721L89.6772 1.91408C89.5469 1.19239 88.9446 0.634399 88.1853 0.634399H85.971L52.6376 22.2721H58.3152Z" fill="#FF4B55"/>
</svg>
