<svg width="90" height="59" viewBox="0 0 90 59" fill="none" xmlns="http://www.w3.org/2000/svg">
<path d="M88.0967 58.9987H1.54565C0.692117 58.9987 1.52588e-05 58.3065 1.52588e-05 57.453V1.81296C1.52588e-05 0.959435 0.692117 0.267334 1.54565 0.267334H88.0969C88.9504 0.267334 89.6425 0.959435 89.6425 1.81296V57.453C89.6423 58.3067 88.9502 58.9987 88.0967 58.9987Z" fill="#F5F5F5"/>
<path d="M53.4012 16.7701C46.2993 12.0357 36.7071 13.9713 31.9756 21.0607C29.6024 24.5993 30.5671 29.4076 34.1178 31.7749C37.6658 34.1422 42.4587 33.1808 44.826 29.6298C47.1933 26.0789 51.9893 25.1295 55.5372 27.4843C59.091 29.8516 60.0468 34.6599 57.6762 38.1985C62.4108 31.0972 60.4969 21.5047 53.4012 16.7701Z" fill="#FF4B55"/>
<path d="M31.976 21.0607C29.6027 24.5993 30.5675 29.4076 34.1181 31.7749C37.6662 34.1421 42.4591 33.1808 44.8264 29.6297C47.1937 26.0789 51.9897 25.1294 55.5376 27.4843C59.0914 29.8516 60.0472 34.6599 57.6766 38.1985C52.9483 45.3124 43.3592 47.2238 36.2573 42.4892C29.1619 37.755 27.2416 28.1625 31.976 21.0607Z" fill="#41479B"/>
<path d="M61.267 10.9323L64.0745 15.1522C64.3103 15.5067 64.2149 15.9854 63.861 16.2223L63.1491 16.699C62.7939 16.9368 62.3131 16.8412 62.0761 16.4854L59.2651 12.2666C59.0286 11.9117 59.1245 11.4322 59.4792 11.1953L60.1946 10.7177C60.55 10.4804 61.0303 10.5766 61.267 10.9323Z" fill="#464655"/>
<path d="M65.5996 17.4386L68.4162 21.6558C68.6539 22.012 68.5567 22.4938 68.1996 22.7298L67.4845 23.2024C67.1298 23.437 66.6522 23.3405 66.416 22.987L63.601 18.7742C63.364 18.4194 63.4592 17.9395 63.8141 17.7023L64.5274 17.2254C64.8823 16.9881 65.3624 17.0836 65.5996 17.4386Z" fill="#464655"/>
<path d="M64.2734 8.92644L71.4218 19.6543C71.6585 20.0093 71.5624 20.4891 71.2073 20.7258L70.4892 21.2045C70.1341 21.4413 69.6542 21.3452 69.4175 20.9902L62.2666 10.263C62.0297 9.90778 62.126 9.4277 62.4814 9.19116L63.2019 8.71161C63.5571 8.47543 64.0367 8.57137 64.2734 8.92644Z" fill="#464655"/>
<path d="M67.2715 6.92363L70.0851 11.1517C70.3221 11.5078 70.2248 11.9886 69.8678 12.2244L69.1524 12.6972C68.7973 12.9318 68.3195 12.8353 68.0835 12.4811L65.2678 8.25864C65.031 7.90357 65.1271 7.42367 65.4821 7.18696L66.1998 6.70863C66.5547 6.47174 67.0348 6.56786 67.2715 6.92363Z" fill="#464655"/>
<path d="M71.6061 13.4435L74.4153 17.6628C74.6517 18.0176 74.5559 18.4966 74.2017 18.7335L73.4882 19.2104C73.133 19.448 72.6522 19.352 72.4155 18.9963L69.6063 14.777C69.3701 14.4222 69.4657 13.9432 69.8199 13.7063L70.5334 13.2294C70.8884 12.9918 71.3692 13.0876 71.6061 13.4435Z" fill="#464655"/>
<path d="M23.2395 36.2833L30.387 46.9996C30.6237 47.3545 30.5282 47.8342 30.1731 48.0711L29.4573 48.549C29.1023 48.7861 28.6224 48.6903 28.3853 48.3351L21.2377 37.6188C21.001 37.2639 21.0966 36.7842 21.4517 36.5473L22.1674 36.0693C22.5225 35.8323 23.0026 35.9282 23.2395 36.2833Z" fill="#464655"/>
<path d="M20.2395 38.2875L23.0457 42.4967C23.2822 42.8514 23.1868 43.3302 22.8326 43.5675L22.1207 44.0441C21.7658 44.2817 21.2854 44.1862 21.0482 43.831L18.2386 39.6229C18.0016 39.268 18.0972 38.7881 18.4522 38.551L19.1676 38.0734C19.5225 37.8365 20.0026 37.9323 20.2395 38.2875Z" fill="#464655"/>
<path d="M24.5757 44.7963L27.3851 49.0161C27.6215 49.3708 27.5257 49.85 27.1711 50.0867L26.4572 50.564C26.1019 50.8014 25.6217 50.7057 25.3846 50.3502L22.5735 46.1313C22.3369 45.7764 22.4329 45.2968 22.7874 45.0599L23.5032 44.582C23.8586 44.3445 24.3388 44.4407 24.5757 44.7963Z" fill="#464655"/>
<path d="M17.2384 40.2915L24.3814 51.0084C24.6179 51.3631 24.5222 51.8424 24.168 52.0795L23.4542 52.5568C23.0991 52.7942 22.6189 52.6986 22.3818 52.3432L15.2346 41.6278C14.9977 41.2727 15.0938 40.7928 15.4489 40.5559L16.1671 40.0772C16.5218 39.8405 17.0017 39.9365 17.2384 40.2915Z" fill="#464655"/>
<path d="M21.2395 21.6567L28.386 10.9317C28.6229 10.5763 29.103 10.4803 29.4582 10.7174L30.1738 11.1952C30.5287 11.4321 30.6243 11.9118 30.3877 12.2667L23.2384 22.9858C23.002 23.34 22.5239 23.4363 22.169 23.2013L21.4562 22.7295C21.0994 22.4934 21.0024 22.0125 21.2395 21.6567Z" fill="#464655"/>
<path d="M18.2373 19.6547L25.3851 8.92756C25.622 8.57215 26.1024 8.4762 26.4576 8.71361L27.1714 9.19089C27.5258 9.42778 27.6214 9.9068 27.385 10.2617L20.2392 20.9894C20.0023 21.3448 19.5223 21.4409 19.167 21.2037L18.4513 20.7259C18.0966 20.4891 18.0008 20.0096 18.2373 19.6547Z" fill="#464655"/>
<path d="M15.2332 17.6618L22.3817 6.92394C22.6186 6.56835 23.0992 6.47223 23.4544 6.70964L24.1682 7.18692C24.5226 7.42381 24.6182 7.90248 24.3822 8.25737L17.2381 18.9968C17.0016 19.3524 16.5213 19.4487 16.1661 19.2118L15.4479 18.7331C15.093 18.4964 14.997 18.0168 15.2332 17.6618Z" fill="#464655"/>
<path d="M59.2667 46.9994L62.0763 42.7913C62.3135 42.436 62.7939 42.3406 63.1488 42.5782L63.8607 43.0549C64.2149 43.292 64.3102 43.771 64.0738 44.1257L61.2676 48.3347C61.0307 48.69 60.5506 48.7859 60.1956 48.5488L59.4802 48.0712C59.1253 47.8342 59.0297 47.3544 59.2667 46.9994Z" fill="#464655"/>
<path d="M63.6001 40.5128L66.4142 36.2839C66.651 35.9285 67.131 35.8322 67.4863 36.0691L68.2034 36.547C68.5587 36.7839 68.6546 37.2642 68.4175 37.6192L65.5975 41.8415C65.3609 42.1957 64.8828 42.2917 64.5279 42.0564L63.8167 41.585C63.4604 41.3489 63.3634 40.8684 63.6001 40.5128Z" fill="#464655"/>
<path d="M62.2665 49.0143L65.0778 44.7952C65.3145 44.44 65.7944 44.3438 66.1496 44.5807L66.8682 45.0599C67.2231 45.2966 67.319 45.776 67.0826 46.1313L64.2731 50.3507C64.0366 50.706 63.557 50.8023 63.2016 50.5657L62.4811 50.0862C62.1261 49.8497 62.0298 49.3696 62.2665 49.0143Z" fill="#464655"/>
<path d="M66.6053 42.4953L69.4181 38.286C69.6552 37.9314 70.1346 37.8358 70.4895 38.0724L71.2077 38.551C71.5629 38.7879 71.6589 39.2682 71.4214 39.6232L68.6087 43.8326C68.3719 44.1871 67.8923 44.2827 67.5376 44.0462L66.8192 43.5675C66.4636 43.331 66.3679 42.8505 66.6053 42.4953Z" fill="#464655"/>
<path d="M65.2683 51.0074L68.0828 46.7956C68.3192 46.4421 68.7966 46.3458 69.1513 46.5803L69.8667 47.053C70.2237 47.289 70.3211 47.7703 70.0836 48.1264L67.2713 52.3438C67.0346 52.6989 66.5547 52.7946 66.1996 52.5581L65.4819 52.0798C65.1267 51.8427 65.0309 51.3625 65.2683 51.0074Z" fill="#464655"/>
<path d="M69.6072 44.5097L72.4147 40.2928C72.6516 39.9372 73.1322 39.8411 73.4874 40.0787L74.2003 40.5552C74.5549 40.7923 74.6503 41.2719 74.4136 41.6266L71.6037 45.8378C71.3675 46.1922 70.8888 46.2883 70.5339 46.053L69.8231 45.582C69.4672 45.346 69.3703 44.8654 69.6072 44.5097Z" fill="#464655"/>
</svg>
