<svg width="90" height="59" viewBox="0 0 90 59" fill="none" xmlns="http://www.w3.org/2000/svg">
<path d="M1.57496 58.9987H88.1262C88.9797 58.9987 89.6718 58.3065 89.6718 57.453V1.81296C89.6718 0.959435 88.9797 0.267334 88.1262 0.267334H1.57496C0.721429 0.267509 0.0293274 0.959435 0.0293274 1.81296V57.453C0.0293274 58.3067 0.721429 58.9987 1.57496 58.9987Z" fill="#C8414B"/>
<path d="M89.6717 12.6328H0.0293274V46.6356H89.6717V12.6328Z" fill="#FFD250"/>
<path d="M37.8952 29.6334L39.2057 23.7364C39.3265 23.1933 38.9131 22.6782 38.3567 22.6782H37.4337C36.8774 22.6782 36.4642 23.1933 36.5847 23.7364L37.8952 29.6334Z" fill="#C8414B"/>
<path d="M39.441 26.5413H36.3499V39.6777H39.441V26.5413Z" fill="#F5F5F5"/>
<path d="M40.2125 24.9972H35.5758V26.5428H40.2125V24.9972Z" fill="#FAB446"/>
<path d="M40.2167 29.6328H32.4886V31.1784H40.2167V29.6328Z" fill="#C8414B"/>
<path d="M40.2166 35.815L35.5799 34.2695V32.7239L40.2166 34.2695V35.815Z" fill="#C8414B"/>
<path d="M14.7148 29.6328L16.0253 23.7358C16.1461 23.1927 15.7328 22.6776 15.1764 22.6776H14.2533C13.6971 22.6776 13.2839 23.1927 13.4044 23.7358L14.7148 29.6328Z" fill="#C8414B"/>
<path d="M20.122 24.9963C19.2684 24.9963 18.5763 25.6884 18.5763 26.542V36.588C18.5763 38.4658 20.3289 41.9976 26.3041 41.9976C32.2793 41.9976 34.0319 38.466 34.0319 36.588V26.542C34.0319 25.6884 33.3398 24.9963 32.4863 24.9963H20.122V24.9963Z" fill="#F5F5F5"/>
<path d="M26.3063 32.7241H18.5785V26.542C18.5785 25.6884 19.2706 24.9963 20.1242 24.9963H26.3063V32.7241Z" fill="#C8414B"/>
<path d="M26.3065 32.724H34.0343V36.5879C34.0343 38.722 32.3045 40.4518 30.1704 40.4518C28.0363 40.4518 26.3065 38.722 26.3065 36.5879V32.724V32.724Z" fill="#C8414B"/>
<path d="M18.5763 32.7244H26.3041V36.5883C26.3041 38.7223 24.5743 40.4522 22.4402 40.4522C20.3061 40.4522 18.5763 38.7223 18.5763 36.5883V32.7244V32.7244Z" fill="#FAB446"/>
<path d="M24.7553 39.662V32.7244H23.2096V40.3743C23.7846 40.2576 24.3041 40.0031 24.7553 39.662Z" fill="#C8414B"/>
<path d="M21.6642 40.3743V32.7244H20.1186V39.662C20.57 40.0031 21.0894 40.2576 21.6642 40.3743Z" fill="#C8414B"/>
<path d="M24.7586 29.6334H20.1219V31.1791H24.7586V29.6334Z" fill="#FFB441"/>
<path d="M24.7586 26.5413H20.1219V28.0869H24.7586V26.5413Z" fill="#FAB446"/>
<path d="M23.9841 27.4606H20.893V30.2605H23.9841V27.4606Z" fill="#FAB446"/>
<path d="M16.2565 26.5413H13.1654V39.6777H16.2565V26.5413Z" fill="#F5F5F5"/>
<path d="M17.0269 38.9073H12.3902V40.453H17.0269V38.9073Z" fill="#FAB446"/>
<path d="M17.0269 24.9972H12.3902V26.5428H17.0269V24.9972Z" fill="#FAB446"/>
<path d="M17.8038 40.4517H11.6216V41.9973H17.8038V40.4517Z" fill="#5064AA"/>
<path d="M40.9866 38.9073H36.3499V40.453H40.9866V38.9073Z" fill="#FAB446"/>
<path d="M40.9859 40.4517H34.8037V41.9973H40.9859V40.4517Z" fill="#5064AA"/>
<path d="M30.9408 23.451H21.6674V24.9967H30.9408V23.451Z" fill="#FAB446"/>
<path d="M27.0773 18.8148H25.5317V23.4515H27.0773V18.8148Z" fill="#FFB441"/>
<path d="M24.7581 21.1325C23.4796 21.1325 22.4398 20.0925 22.4398 18.8142C22.4398 17.5358 23.4798 16.496 24.7581 16.496C26.0365 16.496 27.0763 17.536 27.0763 18.8142C27.0765 20.0925 26.0365 21.1325 24.7581 21.1325ZM24.7581 18.0414C24.3317 18.0414 23.9852 18.3877 23.9852 18.8142C23.9852 19.2406 24.3316 19.5871 24.7581 19.5871C25.1846 19.5871 25.5309 19.2407 25.5309 18.8142C25.5309 18.3879 25.1846 18.0414 24.7581 18.0414Z" fill="#F5F5F5"/>
<path d="M27.8491 21.1325C26.5707 21.1325 25.5309 20.0925 25.5309 18.8142C25.5309 17.5358 26.5708 16.496 27.8491 16.496C29.1276 16.496 30.1674 17.536 30.1674 18.8142C30.1674 20.0925 29.1274 21.1325 27.8491 21.1325ZM27.8491 18.0414C27.4228 18.0414 27.0763 18.3877 27.0763 18.8142C27.0763 19.2406 27.4226 19.5871 27.8491 19.5871C28.2754 19.5871 28.6219 19.2407 28.6219 18.8142C28.6218 18.3879 28.2754 18.0414 27.8491 18.0414Z" fill="#F5F5F5"/>
<path d="M30.9407 22.678C29.6622 22.678 28.6224 21.6381 28.6224 20.3598C28.6224 19.0813 29.6624 18.0415 30.9407 18.0415C32.2191 18.0415 33.2589 19.0815 33.2589 20.3598C33.2589 21.6381 32.219 22.678 30.9407 22.678ZM30.9407 19.587C30.5143 19.587 30.1679 19.9333 30.1679 20.3598C30.1679 20.7861 30.5142 21.1326 30.9407 21.1326C31.367 21.1326 31.7135 20.7863 31.7135 20.3598C31.7135 19.9333 31.367 19.587 30.9407 19.587Z" fill="#F5F5F5"/>
<path d="M21.667 22.678C20.3885 22.678 19.3487 21.6381 19.3487 20.3598C19.3487 19.0813 20.3887 18.0415 21.667 18.0415C22.9454 18.0415 23.9852 19.0815 23.9852 20.3598C23.9854 21.6381 22.9454 22.678 21.667 22.678ZM21.667 19.587C21.2406 19.587 20.8941 19.9333 20.8941 20.3598C20.8941 20.7861 21.2405 21.1326 21.667 21.1326C22.0935 21.1326 22.4398 20.7861 22.4398 20.3596C22.4398 19.9333 22.0935 19.587 21.667 19.587Z" fill="#F5F5F5"/>
<path d="M30.94 35.8154V36.5882C30.94 37.0143 30.5933 37.361 30.1671 37.361C29.741 37.361 29.3943 37.0143 29.3943 36.5882V35.8154H30.94ZM32.4854 34.2699H27.8487V36.5882C27.8487 37.8666 28.8887 38.9064 30.167 38.9064C31.4454 38.9064 32.4852 37.8664 32.4852 36.5882V34.2699H32.4854Z" fill="#FAB446"/>
<path d="M30.168 31.1786C29.3144 31.1786 28.6223 30.4865 28.6223 29.633V28.0874C28.6223 27.2339 29.3144 26.5417 30.168 26.5417C31.0215 26.5417 31.7136 27.2339 31.7136 28.0874V29.633C31.7136 30.4865 31.0215 31.1786 30.168 31.1786Z" fill="#FFA0D2"/>
<path d="M26.3038 35.0414C27.5841 35.0414 28.622 34.0035 28.622 32.7232C28.622 31.4428 27.5841 30.4049 26.3038 30.4049C25.0234 30.4049 23.9855 31.4428 23.9855 32.7232C23.9855 34.0035 25.0234 35.0414 26.3038 35.0414Z" fill="#5064AA"/>
<path d="M27.0773 15.7229H25.5317V20.3596H27.0773V15.7229Z" fill="#FAB446"/>
<path d="M21.6664 23.4507L20.1208 21.905L21.0261 20.9997C22.4255 19.6003 24.3238 18.814 26.3031 18.814C28.2824 18.814 30.1805 19.6003 31.5801 20.9997L32.4855 21.905L30.9398 23.4507H21.6664Z" fill="#C8414B"/>
<path d="M26.3017 22.6776C26.7285 22.6776 27.0745 22.3316 27.0745 21.9048C27.0745 21.478 26.7285 21.132 26.3017 21.132C25.8748 21.132 25.5288 21.478 25.5288 21.9048C25.5288 22.3316 25.8748 22.6776 26.3017 22.6776Z" fill="#FFD250"/>
<path d="M23.2097 22.6777C23.6365 22.6777 23.9825 22.3317 23.9825 21.9049C23.9825 21.4781 23.6365 21.1321 23.2097 21.1321C22.7829 21.1321 22.4369 21.4781 22.4369 21.9049C22.4369 22.3317 22.7829 22.6777 23.2097 22.6777Z" fill="#FFD250"/>
<path d="M29.3919 22.6776C29.8187 22.6776 30.1647 22.3316 30.1647 21.9048C30.1647 21.478 29.8187 21.132 29.3919 21.132C28.9651 21.132 28.6191 21.478 28.6191 21.9048C28.6191 22.3316 28.9651 22.6776 29.3919 22.6776Z" fill="#FFD250"/>
<path d="M20.1183 29.6334H12.3902V31.1791H20.1183V29.6334Z" fill="#C8414B"/>
<path d="M12.3902 35.8156L17.0267 34.2701V32.7245L12.3902 34.2701V35.8156Z" fill="#C8414B"/>
</svg>
