<svg width="91" height="59" viewBox="0 0 91 59" fill="none" xmlns="http://www.w3.org/2000/svg">
<path d="M88.6696 58.9986H2.11851C1.26498 58.9986 0.572876 58.3065 0.572876 57.453V1.81296C0.572876 0.959435 1.26498 0.267334 2.11851 0.267334H88.6698C89.5233 0.267334 90.2154 0.959435 90.2154 1.81296V57.453C90.2152 58.3067 89.5231 58.9986 88.6696 58.9986Z" fill="#F5F5F5"/>
<path d="M70.1238 0.268311H20.6664V58.9998H70.1238V0.268311Z" fill="#F5F5F5"/>
<path d="M2.11851 0.267822C1.26498 0.267822 0.572876 0.959748 0.572876 1.81328V57.4533C0.572876 58.3069 1.26498 58.999 2.11851 58.999H20.6652V0.267822H2.11851Z" fill="#FF4B55"/>
<path d="M88.6708 0.267822H70.1241V58.999H88.6708C89.5243 58.999 90.2164 58.3069 90.2164 57.4533V1.81328C90.2164 0.959748 89.5243 0.267822 88.6708 0.267822Z" fill="#FF4B55"/>
<path d="M54.7742 36.4195L63.9455 31.1789L61.841 30.1267C61.2508 29.8315 60.9129 29.1942 61.0003 28.5399L61.685 23.4061L57.8022 24.5357C56.9445 24.7854 56.0544 24.2577 55.8614 23.3856L55.4895 21.7048L51.8438 25.9716C51.3383 26.563 50.3756 26.1113 50.5074 25.3444L52.0644 16.2913L49.6806 16.9433C48.9843 17.1338 48.249 16.8169 47.9095 16.1799L45.3993 11.4753V11.4683L45.3976 11.4718L45.3957 11.4683V11.4753L42.8855 16.1799C42.5457 16.8167 41.8103 17.1336 41.114 16.9433L38.7301 16.2913L40.2871 25.3444C40.4189 26.111 39.456 26.5628 38.9505 25.9716L35.3048 21.7048L34.9329 23.3856C34.74 24.2579 33.8498 24.7852 32.9921 24.5357L29.1093 23.4061L29.7941 28.5399C29.8814 29.194 29.5435 29.8315 28.9533 30.1267L26.8488 31.1789L36.0202 36.4196C36.9702 36.9626 37.3865 38.1139 37.0033 39.1387L36.2192 41.2356L44.0778 40.5647C44.5127 40.5276 44.8829 40.8778 44.8701 41.3139L44.6225 49.7256H46.1681L45.9204 41.3136C45.9076 40.8773 46.2777 40.5273 46.7126 40.5644L54.5749 41.2356L53.7909 39.1387C53.408 38.1137 53.8242 36.9622 54.7742 36.4195Z" fill="#FF4B55"/>
</svg>
