<svg width="90" height="59" viewBox="0 0 90 59" fill="none" xmlns="http://www.w3.org/2000/svg">
<path d="M88.1853 58.9988H1.63419C0.780664 58.9988 0.088562 58.3067 0.088562 57.4531V1.81309C0.088562 0.959557 0.780664 0.267456 1.63419 0.267456H88.1854C89.039 0.267456 89.7311 0.959557 89.7311 1.81309V57.4531C89.7309 58.3068 89.0388 58.9988 88.1853 58.9988Z" fill="#F5F5F5"/>
<path d="M89.7309 4.78546H0.088562V1.81308C0.088562 0.959557 0.780664 0.267456 1.63419 0.267456H88.1854C89.039 0.267456 89.7311 0.959557 89.7311 1.81308L89.7309 4.78546Z" fill="#FF4B55"/>
<path d="M89.7309 18.3389H0.088562V22.8567H89.7309V18.3389Z" fill="#FF4B55"/>
<path d="M89.7309 9.30273H0.088562V13.8206H89.7309V9.30273Z" fill="#FF4B55"/>
<path d="M89.7309 31.892H1.63419C0.780664 31.892 0.088562 31.1999 0.088562 30.3464V27.374H89.7309V31.892Z" fill="#FF4B55"/>
<path d="M89.7309 45.447H0.088562V49.9649H89.7309V45.447Z" fill="#FF4B55"/>
<path d="M88.1853 58.9989H1.63419C0.780664 58.9989 0.088562 58.3068 0.088562 57.4533V54.4811H89.7309V57.4535C89.7309 58.307 89.0388 58.9989 88.1853 58.9989Z" fill="#FF4B55"/>
<path d="M89.7309 36.4104H0.088562V40.9282H89.7309V36.4104Z" fill="#FF4B55"/>
<path d="M40.273 0.268188H1.63419C0.780664 0.268188 0.088562 0.960114 0.088562 1.81364V30.3469C0.088562 31.2004 0.780664 31.8925 1.63419 31.8925H40.2732C41.1267 31.8925 41.8188 31.2004 41.8188 30.3469V1.81364C41.8186 0.960114 41.1265 0.268188 40.273 0.268188Z" fill="#41479B"/>
<path d="M4.42982 3.81559L4.77193 4.84157L5.85341 4.8498C5.99348 4.85102 6.05143 5.02961 5.93885 5.11277L5.06887 5.75533L5.39522 6.78639C5.43759 6.9198 5.28544 7.03045 5.17147 6.94886L4.29168 6.32014L3.41189 6.94904C3.29791 7.03045 3.14611 6.91998 3.18813 6.78656L3.51448 5.7555L2.6445 5.11295C2.53192 5.02961 2.58987 4.8512 2.72994 4.84997L3.81142 4.84175L4.15354 3.81576C4.19766 3.6827 4.38535 3.6827 4.42982 3.81559Z" fill="#F5F5F5"/>
<path d="M4.42908 9.18252L4.7712 10.2085L5.85268 10.2167C5.99275 10.218 6.0507 10.3965 5.93812 10.4797L5.06814 11.1223L5.39449 12.1533C5.43686 12.2867 5.28471 12.3974 5.17073 12.3158L4.29094 11.6871L3.41115 12.316C3.29717 12.3974 3.14538 12.2869 3.1874 12.1535L3.51375 11.1224L2.64377 10.4799C2.53119 10.3965 2.58914 10.2181 2.72921 10.2169L3.81069 10.2087L4.1528 9.18269C4.19692 9.04981 4.38461 9.04981 4.42908 9.18252Z" fill="#F5F5F5"/>
<path d="M4.42908 14.5493L4.7712 15.5753L5.85268 15.5836C5.99275 15.5848 6.0507 15.7634 5.93812 15.8465L5.06814 16.4891L5.39449 17.5201C5.43686 17.6536 5.28471 17.7642 5.17073 17.6826L4.29094 17.0539L3.41115 17.6828C3.29717 17.7642 3.14538 17.6537 3.1874 17.5203L3.51375 16.4893L2.64377 15.8467C2.53119 15.7634 2.58914 15.585 2.72921 15.5837L3.81069 15.5755L4.1528 14.5495C4.19692 14.4166 4.38461 14.4166 4.42908 14.5493Z" fill="#F5F5F5"/>
<path d="M4.42908 19.9165L4.7712 20.9425L5.85268 20.9508C5.99275 20.952 6.0507 21.1306 5.93812 21.2137L5.06814 21.8563L5.39449 22.8873C5.43686 23.0208 5.28471 23.1314 5.17073 23.0498L4.29094 22.4211L3.41115 23.05C3.29717 23.1314 3.14538 23.0209 3.1874 22.8875L3.51375 21.8565L2.64377 21.2139C2.53119 21.1306 2.58914 20.9522 2.72921 20.9509L3.81069 20.9427L4.1528 19.9167C4.19692 19.7837 4.38461 19.7837 4.42908 19.9165Z" fill="#F5F5F5"/>
<path d="M4.42908 25.2835L4.7712 26.3095L5.85268 26.3177C5.99275 26.3189 6.0507 26.4975 5.93812 26.5807L5.06814 27.2232L5.39449 28.2543C5.43686 28.3877 5.28471 28.4984 5.17073 28.4168L4.29094 27.788L3.41115 28.4169C3.29717 28.4984 3.14538 28.3879 3.1874 28.2545L3.51375 27.2234L2.64377 26.5809C2.53119 26.4975 2.58914 26.3191 2.72921 26.3179L3.81069 26.3097L4.1528 25.2837C4.19692 25.1504 4.38461 25.1504 4.42908 25.2835Z" fill="#F5F5F5"/>
<path d="M8.59473 6.44695L8.93684 7.47293L10.0183 7.48116C10.1584 7.48239 10.2163 7.66097 10.1038 7.74413L9.23378 8.38669L9.56014 9.41775C9.60251 9.55116 9.45036 9.66182 9.33638 9.58023L8.45659 8.95133L7.5768 9.58023C7.46282 9.66164 7.31103 9.55116 7.35305 9.41775L7.6794 8.38669L6.80942 7.74413C6.69684 7.66079 6.75479 7.48239 6.89486 7.48116L7.97634 7.47293L8.31845 6.44695C8.3624 6.31423 8.55044 6.31423 8.59473 6.44695Z" fill="#F5F5F5"/>
<path d="M8.59473 11.8139L8.93684 12.8399L10.0183 12.8481C10.1584 12.8493 10.2163 13.0279 10.1038 13.1111L9.23378 13.7536L9.56014 14.7847C9.60251 14.9181 9.45036 15.0288 9.33638 14.9472L8.45659 14.3183L7.5768 14.9472C7.46282 15.0286 7.31103 14.9183 7.35305 14.7847L7.6794 13.7536L6.80942 13.1111C6.69684 13.0277 6.75479 12.8493 6.89486 12.8481L7.97634 12.8399L8.31845 11.8139C8.3624 11.681 8.55044 11.681 8.59473 11.8139Z" fill="#F5F5F5"/>
<path d="M8.59473 17.181L8.93684 18.2069L10.0183 18.2152C10.1584 18.2164 10.2163 18.395 10.1038 18.4782L9.23378 19.1207L9.56014 20.1518C9.60251 20.2852 9.45036 20.3958 9.33638 20.3142L8.45659 19.6853L7.5768 20.3142C7.46282 20.3957 7.31103 20.2852 7.35305 20.1518L7.6794 19.1207L6.80942 18.4782C6.69684 18.3948 6.75479 18.2164 6.89486 18.2152L7.97634 18.2069L8.31845 17.181C8.3624 17.0481 8.55044 17.0481 8.59473 17.181Z" fill="#F5F5F5"/>
<path d="M8.59473 22.5479L8.93684 23.5739L10.0183 23.5821C10.1584 23.5833 10.2163 23.7619 10.1038 23.8451L9.23378 24.4876L9.56014 25.5187C9.60251 25.6521 9.45036 25.7628 9.33638 25.6812L8.45659 25.0523L7.5768 25.6812C7.46282 25.7626 7.31103 25.6521 7.35305 25.5187L7.6794 24.4876L6.80942 23.8451C6.69684 23.7617 6.75479 23.5833 6.89486 23.5821L7.97634 23.5739L8.31845 22.5479C8.3624 22.4152 8.55044 22.4152 8.59473 22.5479Z" fill="#F5F5F5"/>
<path d="M12.7604 3.81561L13.1026 4.84159L14.184 4.84982C14.3241 4.85105 14.3821 5.02963 14.2695 5.11279L13.3995 5.75535L13.7259 6.78641C13.7682 6.91982 13.6161 7.03047 13.5021 6.94888L12.6223 6.31999L11.7425 6.94888C11.6285 7.0303 11.4767 6.91982 11.5188 6.78641L11.8451 5.75535L10.9751 5.11279C10.8625 5.02945 10.9205 4.85105 11.0606 4.84982L12.1421 4.84159L12.4842 3.81561C12.5283 3.68272 12.7161 3.68272 12.7604 3.81561Z" fill="#F5F5F5"/>
<path d="M12.7604 9.18254L13.1026 10.2085L14.184 10.2168C14.3241 10.218 14.3821 10.3966 14.2695 10.4797L13.3995 11.1223L13.7259 12.1533C13.7682 12.2868 13.6161 12.3974 13.5021 12.3158L12.6223 11.6869L11.7425 12.3158C11.6285 12.3972 11.4767 12.2868 11.5188 12.1533L11.8451 11.1223L10.9751 10.4797C10.8625 10.3964 10.9205 10.218 11.0606 10.2168L12.1421 10.2085L12.4842 9.18254C12.5283 9.04983 12.7161 9.04983 12.7604 9.18254Z" fill="#F5F5F5"/>
<path d="M12.7604 14.5494L13.1026 15.5753L14.184 15.5836C14.3241 15.5848 14.3821 15.7634 14.2695 15.8466L13.3995 16.4891L13.7259 17.5202C13.7682 17.6536 13.6161 17.7642 13.5021 17.6826L12.6223 17.0537L11.7425 17.6826C11.6285 17.7641 11.4767 17.6536 11.5188 17.5202L11.8451 16.4891L10.9751 15.8466C10.8625 15.7632 10.9205 15.5848 11.0606 15.5836L12.1421 15.5753L12.4842 14.5494C12.5283 14.4167 12.7161 14.4167 12.7604 14.5494Z" fill="#F5F5F5"/>
<path d="M12.7604 19.9166L13.1026 20.9425L14.184 20.9508C14.3241 20.952 14.3821 21.1306 14.2695 21.2137L13.3995 21.8563L13.7259 22.8874C13.7682 23.0208 13.6161 23.1314 13.5021 23.0498L12.6223 22.4209L11.7425 23.0498C11.6285 23.1313 11.4767 23.0208 11.5188 22.8874L11.8451 21.8563L10.9751 21.2137C10.8625 21.1304 10.9205 20.952 11.0606 20.9508L12.1421 20.9425L12.4842 19.9166C12.5283 19.7837 12.7161 19.7837 12.7604 19.9166Z" fill="#F5F5F5"/>
<path d="M12.7604 25.2835L13.1026 26.3095L14.184 26.3177C14.3241 26.319 14.3821 26.4975 14.2695 26.5807L13.3995 27.2233L13.7259 28.2543C13.7682 28.3877 13.6161 28.4984 13.5021 28.4168L12.6223 27.7879L11.7425 28.4168C11.6285 28.4982 11.4767 28.3877 11.5188 28.2543L11.8451 27.2233L10.9751 26.5807C10.8625 26.4974 10.9205 26.319 11.0606 26.3177L12.1421 26.3095L12.4842 25.2835C12.5283 25.1505 12.7161 25.1505 12.7604 25.2835Z" fill="#F5F5F5"/>
<path d="M16.9265 6.44695L17.2686 7.47293L18.3501 7.48116C18.4902 7.48239 18.5481 7.66097 18.4356 7.74413L17.5656 8.38669L17.8919 9.41775C17.9343 9.55116 17.7821 9.66182 17.6682 9.58023L16.7884 8.95133L15.9086 9.58023C15.7946 9.66164 15.6428 9.55116 15.6848 9.41775L16.0112 8.38669L15.1412 7.74413C15.0286 7.66079 15.0866 7.48239 15.2266 7.48116L16.3081 7.47293L16.6502 6.44695C16.6942 6.31423 16.8822 6.31423 16.9265 6.44695Z" fill="#F5F5F5"/>
<path d="M16.9265 11.8139L17.2686 12.8399L18.3501 12.8481C18.4902 12.8493 18.5481 13.0279 18.4356 13.1111L17.5656 13.7536L17.8919 14.7847C17.9343 14.9181 17.7821 15.0288 17.6682 14.9472L16.7884 14.3183L15.9086 14.9472C15.7946 15.0286 15.6428 14.9183 15.6848 14.7847L16.0112 13.7536L15.1412 13.1111C15.0286 13.0277 15.0866 12.8493 15.2266 12.8481L16.3081 12.8399L16.6502 11.8139C16.6942 11.681 16.8822 11.681 16.9265 11.8139Z" fill="#F5F5F5"/>
<path d="M16.9265 17.181L17.2686 18.2069L18.3501 18.2152C18.4902 18.2164 18.5481 18.395 18.4356 18.4782L17.5656 19.1207L17.8919 20.1518C17.9343 20.2852 17.7821 20.3958 17.6682 20.3142L16.7884 19.6853L15.9086 20.3142C15.7946 20.3957 15.6428 20.2852 15.6848 20.1518L16.0112 19.1207L15.1412 18.4782C15.0286 18.3948 15.0866 18.2164 15.2266 18.2152L16.3081 18.2069L16.6502 17.181C16.6942 17.0481 16.8822 17.0481 16.9265 17.181Z" fill="#F5F5F5"/>
<path d="M16.9265 22.5479L17.2686 23.5739L18.3501 23.5821C18.4902 23.5833 18.5481 23.7619 18.4356 23.8451L17.5656 24.4876L17.8919 25.5187C17.9343 25.6521 17.7821 25.7628 17.6682 25.6812L16.7884 25.0523L15.9086 25.6812C15.7946 25.7626 15.6428 25.6521 15.6848 25.5187L16.0112 24.4876L15.1412 23.8451C15.0286 23.7617 15.0866 23.5833 15.2266 23.5821L16.3081 23.5739L16.6502 22.5479C16.6942 22.4152 16.8822 22.4152 16.9265 22.5479Z" fill="#F5F5F5"/>
<path d="M21.0923 3.81561L21.4345 4.84159L22.5159 4.84982C22.656 4.85105 22.714 5.02963 22.6014 5.11279L21.7314 5.75535L22.0577 6.78641C22.1001 6.91982 21.948 7.03047 21.834 6.94888L20.954 6.31999L20.0742 6.94888C19.9603 7.0303 19.8085 6.91982 19.8505 6.78641L20.1768 5.75535L19.3069 5.11279C19.1943 5.02945 19.2522 4.85105 19.3923 4.84982L20.4738 4.84159L20.8159 3.81561C20.8602 3.68272 21.048 3.68272 21.0923 3.81561Z" fill="#F5F5F5"/>
<path d="M21.0923 9.18254L21.4345 10.2085L22.5159 10.2168C22.656 10.218 22.714 10.3966 22.6014 10.4797L21.7314 11.1223L22.0577 12.1533C22.1001 12.2868 21.948 12.3974 21.834 12.3158L20.954 11.6869L20.0742 12.3158C19.9603 12.3972 19.8085 12.2868 19.8505 12.1533L20.1768 11.1223L19.3069 10.4797C19.1943 10.3964 19.2522 10.218 19.3923 10.2168L20.4738 10.2085L20.8159 9.18254C20.8602 9.04983 21.048 9.04983 21.0923 9.18254Z" fill="#F5F5F5"/>
<path d="M21.0923 14.5494L21.4345 15.5753L22.5159 15.5836C22.656 15.5848 22.714 15.7634 22.6014 15.8466L21.7314 16.4891L22.0577 17.5202C22.1001 17.6536 21.948 17.7642 21.834 17.6826L20.954 17.0537L20.0742 17.6826C19.9603 17.7641 19.8085 17.6536 19.8505 17.5202L20.1768 16.4891L19.3069 15.8466C19.1943 15.7632 19.2522 15.5848 19.3923 15.5836L20.4738 15.5753L20.8159 14.5494C20.8602 14.4167 21.048 14.4167 21.0923 14.5494Z" fill="#F5F5F5"/>
<path d="M21.0923 19.9166L21.4345 20.9425L22.5159 20.9508C22.656 20.952 22.714 21.1306 22.6014 21.2137L21.7314 21.8563L22.0577 22.8874C22.1001 23.0208 21.948 23.1314 21.834 23.0498L20.954 22.4209L20.0742 23.0498C19.9603 23.1313 19.8085 23.0208 19.8505 22.8874L20.1768 21.8563L19.3069 21.2137C19.1943 21.1304 19.2522 20.952 19.3923 20.9508L20.4738 20.9425L20.8159 19.9166C20.8602 19.7837 21.048 19.7837 21.0923 19.9166Z" fill="#F5F5F5"/>
<path d="M21.0923 25.2835L21.4345 26.3095L22.5159 26.3177C22.656 26.319 22.714 26.4975 22.6014 26.5807L21.7314 27.2233L22.0577 28.2543C22.1001 28.3877 21.948 28.4984 21.834 28.4168L20.954 27.7879L20.0742 28.4168C19.9603 28.4982 19.8085 28.3877 19.8505 28.2543L20.1768 27.2233L19.3069 26.5807C19.1943 26.4974 19.2522 26.319 19.3923 26.3177L20.4738 26.3095L20.8159 25.2835C20.8602 25.1505 21.048 25.1505 21.0923 25.2835Z" fill="#F5F5F5"/>
<path d="M25.2583 6.44695L25.6004 7.47293L26.6819 7.48116C26.822 7.48239 26.8799 7.66097 26.7673 7.74413L25.8974 8.38669L26.2237 9.41775C26.2661 9.55116 26.1139 9.66182 26 9.58023L25.1202 8.95133L24.2404 9.58023C24.1264 9.66164 23.9746 9.55116 24.0166 9.41775L24.343 8.38669L23.473 7.74413C23.3604 7.66079 23.4184 7.48239 23.5584 7.48116L24.6399 7.47293L24.982 6.44695C25.0263 6.31423 25.214 6.31423 25.2583 6.44695Z" fill="#F5F5F5"/>
<path d="M25.2583 11.8139L25.6004 12.8399L26.6819 12.8481C26.822 12.8493 26.8799 13.0279 26.7673 13.1111L25.8974 13.7536L26.2237 14.7847C26.2661 14.9181 26.1139 15.0288 26 14.9472L25.1202 14.3183L24.2404 14.9472C24.1264 15.0286 23.9746 14.9183 24.0166 14.7847L24.343 13.7536L23.473 13.1111C23.3604 13.0277 23.4184 12.8493 23.5584 12.8481L24.6399 12.8399L24.982 11.8139C25.0263 11.681 25.214 11.681 25.2583 11.8139Z" fill="#F5F5F5"/>
<path d="M25.2583 17.181L25.6004 18.2069L26.6819 18.2152C26.822 18.2164 26.8799 18.395 26.7673 18.4782L25.8974 19.1207L26.2237 20.1518C26.2661 20.2852 26.1139 20.3958 26 20.3142L25.1202 19.6853L24.2404 20.3142C24.1264 20.3957 23.9746 20.2852 24.0166 20.1518L24.343 19.1207L23.473 18.4782C23.3604 18.3948 23.4184 18.2164 23.5584 18.2152L24.6399 18.2069L24.982 17.181C25.0263 17.0481 25.214 17.0481 25.2583 17.181Z" fill="#F5F5F5"/>
<path d="M25.2583 22.5479L25.6004 23.5739L26.6819 23.5821C26.822 23.5833 26.8799 23.7619 26.7673 23.8451L25.8974 24.4876L26.2237 25.5187C26.2661 25.6521 26.1139 25.7628 26 25.6812L25.1202 25.0523L24.2404 25.6812C24.1264 25.7626 23.9746 25.6521 24.0166 25.5187L24.343 24.4876L23.473 23.8451C23.3604 23.7617 23.4184 23.5833 23.5584 23.5821L24.6399 23.5739L24.982 22.5479C25.0263 22.4152 25.214 22.4152 25.2583 22.5479Z" fill="#F5F5F5"/>
<path d="M29.424 3.81561L29.7661 4.84159L30.8476 4.84982C30.9876 4.85105 31.0456 5.02963 30.933 5.11279L30.063 5.75535L30.3894 6.78641C30.4317 6.91982 30.2796 7.03047 30.1656 6.94888L29.2858 6.31999L28.406 6.94888C28.292 7.0303 28.1403 6.91982 28.1823 6.78641L28.5086 5.75535L27.6386 5.11279C27.5261 5.02945 27.584 4.85105 27.7241 4.84982L28.8056 4.84159L29.1477 3.81561C29.1916 3.68272 29.3797 3.68272 29.424 3.81561Z" fill="#F5F5F5"/>
<path d="M29.424 9.18254L29.7661 10.2085L30.8476 10.2168C30.9876 10.218 31.0456 10.3966 30.933 10.4797L30.063 11.1223L30.3894 12.1533C30.4317 12.2868 30.2796 12.3974 30.1656 12.3158L29.2858 11.6869L28.406 12.3158C28.292 12.3972 28.1403 12.2868 28.1823 12.1533L28.5086 11.1223L27.6386 10.4797C27.5261 10.3964 27.584 10.218 27.7241 10.2168L28.8056 10.2085L29.1477 9.18254C29.1916 9.04983 29.3797 9.04983 29.424 9.18254Z" fill="#F5F5F5"/>
<path d="M29.424 14.5494L29.7661 15.5753L30.8476 15.5836C30.9876 15.5848 31.0456 15.7634 30.933 15.8466L30.063 16.4891L30.3894 17.5202C30.4317 17.6536 30.2796 17.7642 30.1656 17.6826L29.2858 17.0537L28.406 17.6826C28.292 17.7641 28.1403 17.6536 28.1823 17.5202L28.5086 16.4891L27.6386 15.8466C27.5261 15.7632 27.584 15.5848 27.7241 15.5836L28.8056 15.5753L29.1477 14.5494C29.1916 14.4167 29.3797 14.4167 29.424 14.5494Z" fill="#F5F5F5"/>
<path d="M29.424 19.9166L29.7661 20.9425L30.8476 20.9508C30.9876 20.952 31.0456 21.1306 30.933 21.2137L30.063 21.8563L30.3894 22.8874C30.4317 23.0208 30.2796 23.1314 30.1656 23.0498L29.2858 22.4209L28.406 23.0498C28.292 23.1313 28.1403 23.0208 28.1823 22.8874L28.5086 21.8563L27.6386 21.2137C27.5261 21.1304 27.584 20.952 27.7241 20.9508L28.8056 20.9425L29.1477 19.9166C29.1916 19.7837 29.3797 19.7837 29.424 19.9166Z" fill="#F5F5F5"/>
<path d="M29.424 25.2835L29.7661 26.3095L30.8476 26.3177C30.9876 26.319 31.0456 26.4975 30.933 26.5807L30.063 27.2233L30.3894 28.2543C30.4317 28.3877 30.2796 28.4984 30.1656 28.4168L29.2858 27.7879L28.406 28.4168C28.292 28.4982 28.1403 28.3877 28.1823 28.2543L28.5086 27.2233L27.6386 26.5807C27.5261 26.4974 27.584 26.319 27.7241 26.3177L28.8056 26.3095L29.1477 25.2835C29.1916 25.1505 29.3797 25.1505 29.424 25.2835Z" fill="#F5F5F5"/>
<path d="M33.5896 6.44695L33.9317 7.47293L35.0132 7.48116C35.1533 7.48239 35.2112 7.66097 35.0986 7.74413L34.2287 8.38669L34.555 9.41775C34.5974 9.55116 34.4452 9.66182 34.3313 9.58023L33.4515 8.95133L32.5717 9.58023C32.4577 9.66164 32.3059 9.55116 32.3479 9.41775L32.6743 8.38669L31.8043 7.74413C31.6917 7.66079 31.7497 7.48239 31.8897 7.48116L32.9712 7.47293L33.3133 6.44695C33.3574 6.31423 33.5455 6.31423 33.5896 6.44695Z" fill="#F5F5F5"/>
<path d="M33.5896 11.8139L33.9317 12.8399L35.0132 12.8481C35.1533 12.8493 35.2112 13.0279 35.0986 13.1111L34.2287 13.7536L34.555 14.7847C34.5974 14.9181 34.4452 15.0288 34.3313 14.9472L33.4515 14.3183L32.5717 14.9472C32.4577 15.0286 32.3059 14.9183 32.3479 14.7847L32.6743 13.7536L31.8043 13.1111C31.6917 13.0277 31.7497 12.8493 31.8897 12.8481L32.9712 12.8399L33.3133 11.8139C33.3574 11.681 33.5455 11.681 33.5896 11.8139Z" fill="#F5F5F5"/>
<path d="M33.5896 17.181L33.9317 18.2069L35.0132 18.2152C35.1533 18.2164 35.2112 18.395 35.0986 18.4782L34.2287 19.1207L34.555 20.1518C34.5974 20.2852 34.4452 20.3958 34.3313 20.3142L33.4515 19.6853L32.5717 20.3142C32.4577 20.3957 32.3059 20.2852 32.3479 20.1518L32.6743 19.1207L31.8043 18.4782C31.6917 18.3948 31.7497 18.2164 31.8897 18.2152L32.9712 18.2069L33.3133 17.181C33.3574 17.0481 33.5455 17.0481 33.5896 17.181Z" fill="#F5F5F5"/>
<path d="M33.5896 22.5479L33.9317 23.5739L35.0132 23.5821C35.1533 23.5833 35.2112 23.7619 35.0986 23.8451L34.2287 24.4876L34.555 25.5187C34.5974 25.6521 34.4452 25.7628 34.3313 25.6812L33.4515 25.0523L32.5717 25.6812C32.4577 25.7626 32.3059 25.6521 32.3479 25.5187L32.6743 24.4876L31.8043 23.8451C31.6917 23.7617 31.7497 23.5833 31.8897 23.5821L32.9712 23.5739L33.3133 22.5479C33.3574 22.4152 33.5455 22.4152 33.5896 22.5479Z" fill="#F5F5F5"/>
<path d="M37.7557 3.81561L38.0978 4.84159L39.1793 4.84982C39.3193 4.85105 39.3773 5.02963 39.2647 5.11279L38.3947 5.75535L38.7211 6.78641C38.7635 6.91982 38.6113 7.03047 38.4973 6.94888L37.6175 6.31999L36.7378 6.94888C36.6238 7.0303 36.472 6.91982 36.514 6.78641L36.8404 5.75535L35.9704 5.11279C35.8578 5.02945 35.9157 4.85105 36.0558 4.84982L37.1373 4.84159L37.4794 3.81561C37.5235 3.68272 37.7112 3.68272 37.7557 3.81561Z" fill="#F5F5F5"/>
<path d="M37.7557 9.18254L38.0978 10.2085L39.1793 10.2168C39.3193 10.218 39.3773 10.3966 39.2647 10.4797L38.3947 11.1223L38.7211 12.1533C38.7635 12.2868 38.6113 12.3974 38.4973 12.3158L37.6175 11.6869L36.7378 12.3158C36.6238 12.3972 36.472 12.2868 36.514 12.1533L36.8404 11.1223L35.9704 10.4797C35.8578 10.3964 35.9157 10.218 36.0558 10.2168L37.1373 10.2085L37.4794 9.18254C37.5235 9.04983 37.7112 9.04983 37.7557 9.18254Z" fill="#F5F5F5"/>
<path d="M37.7557 14.5494L38.0978 15.5753L39.1793 15.5836C39.3193 15.5848 39.3773 15.7634 39.2647 15.8466L38.3947 16.4891L38.7211 17.5202C38.7635 17.6536 38.6113 17.7642 38.4973 17.6826L37.6175 17.0537L36.7378 17.6826C36.6238 17.7641 36.472 17.6536 36.514 17.5202L36.8404 16.4891L35.9704 15.8466C35.8578 15.7632 35.9157 15.5848 36.0558 15.5836L37.1373 15.5753L37.4794 14.5494C37.5235 14.4167 37.7112 14.4167 37.7557 14.5494Z" fill="#F5F5F5"/>
<path d="M37.7557 19.9166L38.0978 20.9425L39.1793 20.9508C39.3193 20.952 39.3773 21.1306 39.2647 21.2137L38.3947 21.8563L38.7211 22.8874C38.7635 23.0208 38.6113 23.1314 38.4973 23.0498L37.6175 22.4209L36.7378 23.0498C36.6238 23.1313 36.472 23.0208 36.514 22.8874L36.8404 21.8563L35.9704 21.2137C35.8578 21.1304 35.9157 20.952 36.0558 20.9508L37.1373 20.9425L37.4794 19.9166C37.5235 19.7837 37.7112 19.7837 37.7557 19.9166Z" fill="#F5F5F5"/>
<path d="M37.7557 25.2835L38.0978 26.3095L39.1793 26.3177C39.3193 26.319 39.3773 26.4975 39.2647 26.5807L38.3947 27.2233L38.7211 28.2543C38.7635 28.3877 38.6113 28.4984 38.4973 28.4168L37.6175 27.7879L36.7378 28.4168C36.6238 28.4982 36.472 28.3877 36.514 28.2543L36.8404 27.2233L35.9704 26.5807C35.8578 26.4974 35.9157 26.319 36.0558 26.3177L37.1373 26.3095L37.4794 25.2835C37.5235 25.1505 37.7112 25.1505 37.7557 25.2835Z" fill="#F5F5F5"/>
</svg>
