<svg width="90" height="59" viewBox="0 0 90 59" fill="none" xmlns="http://www.w3.org/2000/svg">
<path d="M88.1552 58.7313H1.6041C0.750574 58.7313 0.0584717 58.0392 0.0584717 57.1857V1.54563C0.0584717 0.692101 0.750574 0 1.6041 0H88.1554C89.0089 0 89.701 0.692101 89.701 1.54563V57.1857C89.7008 58.0394 89.0087 58.7313 88.1552 58.7313Z" fill="#FF4B55"/>
<path d="M61.8806 23.184H51.0617V12.3651C51.0617 11.5116 50.3696 10.8195 49.5161 10.8195H40.2427C39.3891 10.8195 38.697 11.5116 38.697 12.3651V23.184H27.8781C27.0246 23.184 26.3325 23.8761 26.3325 24.7296V34.003C26.3325 34.8566 27.0246 35.5487 27.8781 35.5487H38.697V46.3675C38.697 47.2211 39.3891 47.9132 40.2427 47.9132H49.5161C50.3696 47.9132 51.0617 47.2211 51.0617 46.3675V35.5483H61.8806C62.7341 35.5483 63.4262 34.8562 63.4262 34.0027V24.7293C63.4262 23.8759 62.7341 23.184 61.8806 23.184Z" fill="#F5F5F5"/>
</svg>
