<svg width="91" height="59" viewBox="0 0 91 59" fill="none" xmlns="http://www.w3.org/2000/svg">
<path d="M90.2156 4.19503H0.573242V1.54551C0.573242 0.691979 1.26534 -0.00012207 2.11887 -0.00012207H88.6701C89.5237 -0.00012207 90.2157 0.691979 90.2157 1.54551L90.2156 4.19503Z" fill="#FF4B55"/>
<path d="M90.2156 4.19397H0.573303V8.38895H90.2156V4.19397Z" fill="#F5F5F5"/>
<path d="M90.2156 8.39075H0.573303V12.5857H90.2156V8.39075Z" fill="#FF4B55"/>
<path d="M90.2156 12.5841H0.573303V16.7791H90.2156V12.5841Z" fill="#F5F5F5"/>
<path d="M90.2156 16.7806H0.573303V20.9756H90.2156V16.7806Z" fill="#FF4B55"/>
<path d="M90.2156 20.9757H0.573303V25.1707H90.2156V20.9757Z" fill="#F5F5F5"/>
<path d="M90.2156 25.1708H0.573303V29.3658H90.2156V25.1708Z" fill="#FF4B55"/>
<path d="M90.2156 29.3658H0.573303V33.5608H90.2156V29.3658Z" fill="#F5F5F5"/>
<path d="M90.2156 37.7561H0.573303V30.9114H2.11893L2.11928 33.5607H90.2156V37.7561Z" fill="#FF4B55"/>
<path d="M90.2156 37.7557H0.573303V41.9507H90.2156V37.7557Z" fill="#F5F5F5"/>
<path d="M90.2156 41.9508H0.573303V46.1458H90.2156V41.9508Z" fill="#FF4B55"/>
<path d="M90.2156 46.1473H0.573303V50.3423H90.2156V46.1473Z" fill="#F5F5F5"/>
<path d="M90.2156 50.3407H0.573303V54.5357H90.2156V50.3407Z" fill="#FF4B55"/>
<path d="M88.67 58.7312H2.11893C1.26541 58.7312 0.573303 58.0391 0.573303 57.1855V54.536H90.2156V57.1855C90.2156 58.0392 89.5235 58.7312 88.67 58.7312Z" fill="#F5F5F5"/>
<path d="M54.6678 33.5606H2.11887C1.26534 33.5606 0.573242 32.8685 0.573242 32.015V1.54551C0.573242 0.691979 1.26534 -0.00012207 2.11887 -0.00012207H54.6678C55.5214 -0.00012207 56.2135 0.691979 56.2135 1.54551V32.015C56.2133 32.8688 55.5214 33.5606 54.6678 33.5606Z" fill="#41479B"/>
<path d="M15.2532 16.7635C15.2532 10.918 19.998 6.17628 25.838 6.17628C27.3075 6.17628 28.7046 6.47707 29.9771 7.01913C30.1422 7.08951 30.2667 6.85963 30.1184 6.75843C28.0131 5.3252 25.4383 4.53996 22.6765 4.68352C16.6049 4.9992 11.64 9.88978 11.2475 15.9571C10.7911 23.0143 16.3755 28.8605 23.321 28.8605C25.831 28.8605 28.1642 28.0872 30.1018 26.776C30.251 26.675 30.1274 26.4447 29.9616 26.5149C28.6933 27.0528 27.3017 27.3511 25.8384 27.3511C19.998 27.351 15.2532 22.6092 15.2532 16.7635Z" fill="#FFE15A"/>
<path d="M39.4493 16.7635L43.924 15.0321C44.1452 14.9465 44.0699 14.6161 43.8334 14.635L39.0522 15.0179L42.3378 11.5057C42.4999 11.3326 42.2888 11.068 42.0839 11.1874L37.9313 13.6099L39.3645 9.02692C39.4353 8.80072 39.1303 8.65382 38.9977 8.85026L36.3095 12.8325L35.6199 8.07938C35.5859 7.84459 35.247 7.84441 35.2126 8.0792L34.7721 11.0868L34.5893 12.3596L34.519 12.8327L31.8307 8.85376C31.698 8.65732 31.3927 8.80439 31.4639 9.0306L32.9024 13.6097L28.7502 11.1873C28.5453 11.0677 28.3342 11.3324 28.4963 11.5056L31.7817 15.0177L26.9993 14.6348C26.7628 14.6159 26.6873 14.9463 26.9086 15.0319L31.3874 16.7633L26.9085 18.495C26.687 18.5807 26.7626 18.911 26.9992 18.8921L31.7817 18.5092L28.4961 22.0301C28.3342 22.2036 28.5458 22.4678 28.7505 22.3481L32.9026 19.9171L31.4641 24.4962C31.393 24.7224 31.698 24.8696 31.8309 24.673L34.5191 20.6941L34.5895 21.1784L34.7723 22.44L35.213 25.4556C35.2473 25.6906 35.5863 25.6902 35.6202 25.4555L36.3099 20.6944L38.9981 24.6767C39.1308 24.8731 39.4358 24.7266 39.3649 24.5L37.9317 19.9171L42.0838 22.3481C42.2884 22.4678 42.4999 22.2036 42.3382 22.0301L39.0524 18.5092L43.8337 18.8921C44.0702 18.911 44.1457 18.5807 43.9244 18.495L39.4493 16.7635Z" fill="#FFE15A"/>
</svg>
