<svg width="90" height="60" viewBox="0 0 90 60" fill="none" xmlns="http://www.w3.org/2000/svg">
<g clip-path="url(#clip0_757_40)">
<path d="M0.0877686 0H89.7303V59.7617H0.0877686V0Z" fill="white"/>
<path d="M37.1056 38.4323C37.0867 38.4096 37.0827 38.3142 37.0916 38.1006C37.0985 37.9357 37.1048 37.7399 37.1056 37.6657C37.1081 37.438 37.0644 36.9188 37.0385 36.8705C37.0251 36.8454 37.0142 36.8 37.0142 36.7693C37.0142 36.7387 36.9949 36.6748 36.9713 36.6272C36.9477 36.5797 36.9014 36.4851 36.8682 36.417C36.8388 36.3565 36.8084 36.2965 36.7768 36.237C36.7368 36.1643 36.4947 35.9221 36.462 35.9221C36.4483 35.9221 36.4132 35.8967 36.3842 35.8658C36.3551 35.8349 36.3195 35.8096 36.305 35.8096C36.2905 35.8096 36.2603 35.7893 36.2379 35.7646C36.2155 35.7398 36.1837 35.7195 36.1672 35.7195C36.1507 35.7195 36.1194 35.7047 36.0976 35.6866C36.0037 35.6085 35.8885 35.537 35.7158 35.4498L35.5311 35.3566L35.2995 35.3667C35.1722 35.3723 34.9769 35.3939 34.8655 35.4148C34.7542 35.4357 34.6023 35.4576 34.5281 35.4634C34.4538 35.4692 34.3728 35.4833 34.348 35.4946C34.3233 35.506 34.2373 35.5198 34.1568 35.5252C33.8912 35.5434 33.5856 35.6327 33.4934 35.7192C33.4669 35.7441 33.4348 35.7646 33.422 35.7646C33.4093 35.7646 33.3811 35.7842 33.3593 35.8082C33.3059 35.8673 33.1513 35.9041 32.9082 35.9156C32.7968 35.9208 32.696 35.9345 32.6843 35.9461C32.6725 35.9576 32.6371 35.9672 32.6055 35.9674C32.574 35.9676 32.503 35.9834 32.4478 36.0027C32.3273 36.0446 32.123 36.1007 32.0327 36.1168C31.9455 36.1322 31.7811 36.0851 31.6731 36.0137C31.6299 35.985 31.586 35.9571 31.5416 35.9302C31.5175 35.916 31.4592 35.8669 31.412 35.8208C31.3261 35.737 31.2696 35.6983 31.1648 35.6516C31.1216 35.6321 31.0786 35.6122 31.0358 35.5919C30.9779 35.5645 30.9194 35.5604 30.7543 35.5725C30.4749 35.5928 30.3833 35.5923 30.2721 35.5698C30.1445 35.544 29.9721 35.3842 29.9721 35.2919C29.9721 35.1929 29.6812 34.9546 29.5602 34.9546C29.5348 34.9546 29.483 34.9449 29.445 34.933L29.0813 34.8193C28.9192 34.7686 28.7269 34.6974 28.6538 34.6609C28.5807 34.6246 28.5086 34.5948 28.4935 34.5948C28.4784 34.5947 28.43 34.5744 28.3859 34.5496C28.3418 34.5249 28.2908 34.5047 28.2724 34.5047C28.2541 34.5047 28.2215 34.4953 28.2 34.4839C28.1785 34.4725 28.0597 34.453 27.936 34.4406C27.8122 34.4281 27.6756 34.4119 27.6322 34.4046C27.5889 34.3973 27.4826 34.3804 27.396 34.3672C27.207 34.3381 27.0831 34.2993 26.9658 34.2322C26.9178 34.2048 26.8693 34.1782 26.8203 34.1524C26.7883 34.136 26.7437 34.1022 26.7212 34.0774C26.6988 34.0525 26.6691 34.0322 26.6553 34.0322C26.6415 34.0322 26.5193 33.9209 26.3836 33.7847C26.2479 33.6486 26.1266 33.5371 26.1139 33.537C26.1014 33.5369 26.0538 33.5015 26.0082 33.4582C25.9627 33.4151 25.9166 33.3797 25.906 33.3797C25.8729 33.3797 25.712 33.2166 25.6285 33.0985C25.5847 33.0366 25.479 32.8443 25.3934 32.671C25.3078 32.4977 25.2126 32.3155 25.182 32.2661C25.1512 32.2165 25.0724 32.0718 25.0068 31.9444C24.9001 31.7373 24.8875 31.6979 24.8875 31.5721C24.8875 31.4895 24.8758 31.4197 24.8593 31.4033C24.8203 31.3642 24.8209 30.7599 24.8599 30.7209C24.8982 30.6826 24.8943 30.5422 24.8534 30.4838C24.8211 30.4378 24.6764 30.3305 24.5686 30.2729C24.4961 30.234 24.2825 30.1867 24.1759 30.1858C23.9123 30.1835 23.7797 30.0306 23.7164 29.6562C23.6888 29.4926 23.6621 29.374 23.5847 29.0713C23.5469 28.9228 23.5156 28.774 23.5154 28.7407C23.5152 28.7074 23.505 28.6739 23.4926 28.6662C23.4802 28.6586 23.47 28.6331 23.47 28.6095C23.47 28.5458 23.3953 28.3234 23.3324 28.1997C23.3204 28.1736 23.3136 28.1454 23.3125 28.1167C23.3125 28.0925 23.3024 28.0665 23.29 28.0588C23.2776 28.0511 23.2676 27.9853 23.2676 27.9126C23.2676 27.8398 23.2776 27.774 23.29 27.7663C23.3027 27.7585 23.3125 27.6513 23.3125 27.5217C23.3125 27.2839 23.2761 27.1526 23.1902 27.0812C23.1708 27.0652 23.155 27.0412 23.155 27.028C23.155 26.9958 23.0408 26.8777 23.0096 26.8777C22.978 26.8777 22.705 26.603 22.705 26.5712C22.705 26.5579 22.6854 26.5293 22.6613 26.5076C22.6373 26.4858 22.6112 26.4389 22.6034 26.4031C22.5955 26.3674 22.5798 26.3324 22.5683 26.3254C22.5569 26.3183 22.5476 26.2833 22.5476 26.2477C22.5476 26.2121 22.5375 26.1766 22.5251 26.169C22.5127 26.1613 22.5025 26.138 22.5023 26.117C22.502 26.0764 22.3849 25.8338 22.3377 25.7761C22.3221 25.757 22.296 25.7111 22.2796 25.674C22.2646 25.6396 22.2483 25.6058 22.2306 25.5728C22.2103 25.5357 22.1908 25.4982 22.1721 25.4603C22.1506 25.4169 22.0997 25.3223 22.059 25.25C22.0184 25.1777 21.9851 25.1042 21.9851 25.0868C21.9851 25.0695 21.975 25.0553 21.9627 25.0553C21.9503 25.0553 21.9401 25.0255 21.9401 24.9891C21.9401 24.9527 21.9311 24.9174 21.92 24.9105C21.9089 24.9036 21.8946 24.86 21.8881 24.8136C21.862 24.6268 21.7672 24.2965 21.725 24.2453C21.7055 24.2216 21.6948 24.0692 21.6889 23.7343C21.683 23.3953 21.6727 23.2489 21.6529 23.2291C21.6193 23.1955 21.6142 22.8148 21.6472 22.7944C21.6855 22.7708 21.7585 22.8264 21.8026 22.9131C21.8262 22.959 21.8667 23.0159 21.8927 23.0395C21.9188 23.0631 21.9401 23.0942 21.9401 23.1087C21.9401 23.1232 21.9655 23.1588 21.9963 23.1879C22.0273 23.217 22.0526 23.2523 22.0526 23.2663C22.0526 23.2955 22.169 23.4129 22.1979 23.4129C22.2083 23.4129 22.2703 23.461 22.3353 23.5197C22.4857 23.6555 22.6965 23.8178 22.7223 23.8178C22.7333 23.8178 22.766 23.8432 22.7951 23.8741C22.8242 23.905 22.8595 23.9304 22.8735 23.9304C22.8876 23.9304 22.9283 23.9607 22.9638 23.9978C22.9994 24.0349 23.0374 24.0653 23.0482 24.0653C23.0591 24.0653 23.1013 24.0907 23.1418 24.1216C23.1824 24.1525 23.2233 24.1778 23.2327 24.1778C23.2421 24.1778 23.2936 24.2074 23.3472 24.2436C23.4802 24.3332 23.5537 24.3649 23.8413 24.4561C24.3942 24.6315 24.5913 24.6714 24.9887 24.6884C25.2967 24.7017 25.6961 24.6572 25.8258 24.5953C25.8764 24.5714 25.9274 24.5482 25.9786 24.5256C26.0681 24.4861 26.4168 24.166 26.418 24.1221C26.4183 24.1094 26.4639 24.0504 26.5192 23.9908C26.5745 23.9313 26.6198 23.8755 26.6198 23.8668C26.6198 23.8582 26.6551 23.8108 26.6981 23.7614C26.7412 23.712 26.7766 23.6635 26.7769 23.6535C26.7771 23.6436 26.8076 23.6031 26.8447 23.5635C26.8818 23.524 26.9121 23.4807 26.9122 23.4674C26.9122 23.4541 26.9376 23.4195 26.9685 23.3904C26.9994 23.3613 27.0248 23.3257 27.0248 23.3112C27.0248 23.2967 27.045 23.2666 27.0698 23.2441C27.0945 23.2217 27.1148 23.1911 27.1148 23.1759C27.1148 23.1608 27.129 23.1366 27.1464 23.1222C27.1637 23.1078 27.2048 23.0433 27.2377 22.9788C27.2705 22.9144 27.3167 22.8313 27.3405 22.7941C27.3641 22.757 27.4196 22.6558 27.4638 22.5692C27.508 22.4826 27.5627 22.3813 27.5854 22.3442C27.6761 22.196 27.7897 21.9902 27.7897 21.9743C27.7897 21.965 27.81 21.9392 27.8348 21.9168C27.8595 21.8944 27.8797 21.8659 27.8797 21.8535C27.8797 21.8411 27.9051 21.7978 27.936 21.7573C27.9669 21.7167 27.9922 21.6743 27.9922 21.663C27.9922 21.6517 28.0125 21.6242 28.0372 21.6017C28.062 21.5793 28.0822 21.5495 28.0822 21.5353C28.0822 21.5211 28.1541 21.4391 28.2421 21.3531C28.33 21.2672 28.4278 21.1689 28.4595 21.1349C28.5119 21.0786 28.5315 21.073 28.6776 21.073C28.7659 21.073 28.8478 21.0822 28.8595 21.0935C28.8713 21.1047 28.9191 21.1187 28.9657 21.1248C29.0123 21.1307 29.065 21.1478 29.0827 21.1625C29.1234 21.1962 29.3898 21.1825 29.4996 21.1411C29.5429 21.1248 29.638 21.0826 29.7109 21.0472C29.7838 21.0119 29.8563 20.983 29.8721 20.983C29.8879 20.983 29.9042 20.9748 29.9083 20.9648C29.9218 20.9319 30.2506 20.7827 30.3658 20.7572C30.4475 20.7392 30.5613 20.7391 30.7821 20.7568C30.9491 20.7702 31.1668 20.7854 31.2658 20.7904C31.5218 20.8034 31.7569 20.8379 31.952 20.8913C32.0447 20.9166 32.1663 20.9489 32.2219 20.9632C32.2776 20.9774 32.3687 21.0093 32.4244 21.0339C32.4801 21.0586 32.5459 21.0866 32.5706 21.0963C32.6435 21.1247 32.9705 21.2756 33.0353 21.3107C33.0682 21.3285 33.1093 21.3431 33.1264 21.3431C33.1438 21.3431 33.1705 21.3557 33.186 21.3711C33.2015 21.3866 33.2212 21.4001 33.2299 21.4012C33.2481 21.4034 33.3076 21.4259 33.4031 21.4666C33.4548 21.4876 33.5073 21.5065 33.5606 21.5232C33.6101 21.5385 33.6682 21.5599 33.6897 21.5707C33.7111 21.5817 33.7536 21.5905 33.784 21.5905C33.8144 21.5905 33.8454 21.6006 33.8531 21.613C33.8614 21.6265 34.0104 21.6354 34.2243 21.6354C34.4383 21.6354 34.5872 21.6445 34.5956 21.658C34.6038 21.6714 34.7528 21.6805 34.9668 21.6805C35.1807 21.6805 35.3297 21.6715 35.338 21.658C35.3456 21.6456 35.397 21.6355 35.4521 21.6355C35.5073 21.6355 35.5699 21.6265 35.5914 21.6156C35.6129 21.6047 35.6608 21.5822 35.698 21.5657C35.7351 21.5492 35.8188 21.5024 35.884 21.4618C35.9492 21.4212 36.0105 21.388 36.0202 21.388C36.03 21.388 36.0722 21.3526 36.1142 21.3093C36.1562 21.266 36.2015 21.2305 36.215 21.2305C36.246 21.2305 36.4742 21.0008 36.4742 20.9697C36.4742 20.9569 36.502 20.9198 36.5361 20.8871C36.57 20.8545 36.6143 20.7944 36.6343 20.7535C36.7643 20.4883 36.8792 20.1917 36.8792 20.1211C36.8792 20.0928 36.8889 20.0598 36.9008 20.0479C36.9127 20.036 36.9337 19.9505 36.9475 19.8578C36.9613 19.7652 36.9826 19.6564 36.9949 19.6161C37.0076 19.5743 37.0106 19.4677 37.002 19.3686C36.9849 19.173 37.0112 19.0389 37.0812 18.9637C37.1062 18.937 37.1267 18.9085 37.1267 18.9005C37.1267 18.8926 37.173 18.8345 37.2297 18.7714C37.3024 18.6905 37.3294 18.6433 37.3216 18.6107C37.3068 18.5538 37.2913 18.4972 37.275 18.4407C37.2556 18.3727 37.2395 18.2866 37.2394 18.2495C37.2391 18.1749 37.294 17.8944 37.3158 17.8591C37.3233 17.8468 37.3301 17.722 37.3307 17.5817C37.3321 17.3038 37.3188 17.2582 37.1969 17.1242C37.1583 17.0817 37.1267 17.0385 37.1267 17.0281C37.1267 17.0178 37.1089 16.9896 37.0872 16.9656C37.0655 16.9416 37.0097 16.8461 36.9632 16.7533L36.8785 16.5846L36.8788 16.1076C36.879 15.8452 36.8883 15.6073 36.8994 15.5788C36.9319 15.4962 36.9716 15.0775 36.9743 14.7903C36.9766 14.5478 36.9802 14.526 37.0189 14.526C37.0421 14.526 37.0884 14.5513 37.1217 14.5822C37.1551 14.6131 37.1952 14.6385 37.2108 14.6385C37.2264 14.6385 37.2392 14.6474 37.2392 14.6584C37.2392 14.6694 37.272 14.695 37.3122 14.7154C37.3525 14.7359 37.4309 14.7876 37.4866 14.8304C37.5423 14.8734 37.603 14.915 37.6216 14.9231C37.6402 14.9311 37.6857 14.9595 37.7229 14.9862C37.7708 15.0192 37.8212 15.0483 37.8737 15.0734C37.9195 15.0947 37.97 15.1245 37.9862 15.1399C38.0344 15.1858 38.6525 15.4934 38.6966 15.4934C38.7191 15.4934 38.7472 15.5023 38.7589 15.5132C38.7865 15.5385 39.0316 15.6298 39.1124 15.6446C39.1466 15.6509 39.1801 15.665 39.1869 15.676C39.1936 15.6869 39.2234 15.6959 39.253 15.6959C39.289 15.6971 39.3246 15.704 39.3585 15.7162C39.4538 15.7537 39.7918 15.8544 39.8714 15.869C39.9148 15.877 40.2083 15.8901 40.5239 15.8981C41.0712 15.912 41.2844 15.935 41.5915 16.0134C41.6998 16.0411 41.859 16.0758 41.9526 16.0922C41.9897 16.0987 42.0403 16.1126 42.0651 16.1232C42.0898 16.1338 42.1505 16.148 42.2 16.1548C42.2495 16.1615 42.3609 16.1833 42.4475 16.2031C42.5342 16.2229 42.6455 16.244 42.695 16.25C42.7445 16.256 42.8052 16.2697 42.83 16.2803C42.8547 16.291 42.9256 16.3059 42.9875 16.3133C43.0493 16.3208 43.1506 16.3364 43.2125 16.3484C43.2743 16.3602 43.411 16.3813 43.5162 16.3952C43.6214 16.4091 43.7276 16.4291 43.7524 16.4397C43.7772 16.4502 43.8557 16.4643 43.9268 16.4711L44.1856 16.4956C44.2567 16.5023 44.3351 16.5172 44.3599 16.5286C44.3846 16.54 44.4808 16.5538 44.5736 16.5594C44.6664 16.5649 44.8436 16.5862 44.9673 16.6069C45.0911 16.6276 45.2784 16.6491 45.3836 16.6546C45.4887 16.6601 45.595 16.6739 45.6198 16.6852C45.6446 16.6966 45.766 16.7109 45.8898 16.7171C46.5169 16.7487 46.7879 16.7885 46.9603 16.8746C47.0002 16.8945 47.0561 16.9108 47.0843 16.9108C47.1127 16.9108 47.142 16.9209 47.1497 16.9332C47.1677 16.9624 47.2666 16.9624 47.2847 16.9332C47.2923 16.9209 47.3567 16.9108 47.4278 16.9108C47.4987 16.9108 47.5666 16.9013 47.5783 16.8898C47.59 16.8783 47.6959 16.8638 47.8134 16.8578C48.0925 16.8429 48.3704 16.8117 48.6459 16.7644C48.7634 16.7442 48.9052 16.7226 48.9608 16.7163C49.0165 16.7101 49.0823 16.6961 49.1071 16.6853C49.1318 16.6744 49.2027 16.6608 49.2646 16.655C49.504 16.6328 49.7837 16.5907 49.8211 16.5712C49.8426 16.56 49.9964 16.5508 50.1628 16.5508C50.3404 16.5508 50.4714 16.5415 50.4795 16.5284C50.4871 16.516 50.588 16.5059 50.7045 16.5059C50.8209 16.5059 50.9218 16.4958 50.9294 16.4833C50.9371 16.471 50.9952 16.4609 51.0585 16.4609C51.1219 16.4609 51.2049 16.4512 51.2428 16.4392C51.2809 16.4274 51.398 16.3978 51.5031 16.3735C51.6513 16.3382 51.7988 16.3005 51.9457 16.2602C52.1868 16.1938 52.2125 16.1913 52.5869 16.1965C52.865 16.2002 52.991 16.1938 53.0259 16.1738C53.0531 16.1584 53.1508 16.1459 53.244 16.1459C53.3369 16.1459 53.4192 16.1357 53.4268 16.1234C53.4344 16.111 53.4604 16.1008 53.4843 16.1008C53.5084 16.1008 53.528 16.0907 53.528 16.0784C53.528 16.066 53.5457 16.0551 53.5674 16.0542C53.5891 16.0533 53.6372 16.0332 53.6742 16.0095C53.7132 15.9849 53.7537 15.9626 53.7955 15.9431C53.825 15.9302 53.8706 15.9005 53.8967 15.877C54.1394 15.6596 54.3379 15.4934 54.3547 15.4934C54.3659 15.4934 54.3989 15.468 54.428 15.4372C54.4571 15.4063 54.4929 15.3809 54.5079 15.3809C54.5228 15.3809 54.547 15.3664 54.5617 15.3487C54.5843 15.3215 54.6625 15.2766 54.9004 15.1544C54.9971 15.1047 55.2375 14.9985 55.2534 14.9984C55.2634 14.9983 55.3215 14.973 55.3824 14.9421C55.4432 14.9112 55.5053 14.886 55.5202 14.886C55.5461 14.886 55.7674 14.7947 55.8507 14.7495C55.8722 14.738 55.9132 14.7285 55.9419 14.7285C55.9705 14.7285 56.0035 14.7198 56.0152 14.7092C56.0611 14.668 56.5912 14.526 56.6993 14.526C56.7355 14.526 56.7708 14.5169 56.7776 14.5058C56.7844 14.4948 56.8281 14.4807 56.8745 14.4745C56.9658 14.4624 57.3206 14.3801 57.4331 14.345C57.4711 14.3332 57.5388 14.3234 57.5837 14.3234C57.6285 14.3234 57.6714 14.3134 57.679 14.301C57.6867 14.2886 57.7214 14.2785 57.7563 14.2785C57.7912 14.2785 57.8561 14.2633 57.9005 14.2447C57.9449 14.2262 58.0266 14.211 58.0819 14.211C58.1372 14.211 58.1888 14.2009 58.1965 14.1885C58.2041 14.1761 58.2454 14.166 58.2881 14.166C58.3308 14.166 58.3834 14.1569 58.4049 14.1458C58.4264 14.1347 58.5655 14.0874 58.7139 14.0406C58.8624 13.9939 59.0244 13.9386 59.074 13.9177C59.1857 13.8712 59.2982 13.8265 59.4114 13.7836C59.4361 13.7744 59.507 13.7439 59.5689 13.716C59.621 13.6924 59.6735 13.6695 59.7264 13.6473C59.8687 13.5901 60.0985 13.4762 60.1764 13.4243C60.232 13.3878 60.2899 13.3549 60.3497 13.3258C60.3956 13.3047 60.4399 13.2765 60.4481 13.2631C60.4563 13.2498 60.4947 13.2246 60.5334 13.207C60.5721 13.1895 60.6494 13.1399 60.705 13.0969C60.7607 13.0539 60.8281 13.0092 60.8547 12.9976C60.8814 12.9859 60.9096 12.9659 60.9176 12.953C60.9255 12.9403 60.9669 12.9131 61.0097 12.8929C61.0525 12.8726 61.0875 12.847 61.0875 12.8361C61.0875 12.8251 61.1072 12.8161 61.1312 12.8161C61.1553 12.8161 61.1813 12.8057 61.1891 12.7931C61.1969 12.7805 61.3186 12.7136 61.4595 12.6446C61.6005 12.5755 61.7275 12.5049 61.7419 12.4876C61.7562 12.4702 61.7794 12.456 61.7934 12.4559C61.8073 12.4558 61.856 12.4203 61.9016 12.3772C61.9472 12.334 61.9932 12.2986 62.0038 12.2986C62.0144 12.2986 62.0606 12.2632 62.1066 12.2198C62.1525 12.1765 62.1983 12.1411 62.2085 12.1411C62.2186 12.1411 62.2667 12.1079 62.3153 12.0671C62.4188 11.9806 62.6356 11.8643 62.7637 11.8265C62.8475 11.8018 62.9458 11.7881 63.3486 11.7455C63.5039 11.729 63.6464 11.671 63.6816 11.6099C63.6915 11.5927 63.709 11.5787 63.7205 11.5787C63.732 11.5787 63.7949 11.5451 63.8601 11.504C63.9253 11.4629 64.0444 11.3969 64.1248 11.3573C64.2053 11.3177 64.2862 11.2762 64.3048 11.2651C64.3905 11.2134 64.906 10.9712 64.9301 10.9712C64.945 10.9712 64.9573 10.9611 64.9573 10.9487C64.9573 10.9363 64.9726 10.9262 64.9914 10.9262C65.01 10.9262 65.0429 10.9173 65.0645 10.9064C65.0859 10.8955 65.2604 10.8089 65.4522 10.7138C65.644 10.6188 65.8617 10.5071 65.936 10.4654C66.0102 10.4238 66.1441 10.353 66.2334 10.3082C66.3228 10.2634 66.4017 10.2172 66.4088 10.2058C66.4158 10.1944 66.4591 10.1677 66.505 10.1465C66.5509 10.1253 66.6417 10.0744 66.707 10.0334C66.7722 9.99229 66.834 9.95875 66.8441 9.95875C66.8543 9.95875 66.881 9.93858 66.9034 9.91378C66.9258 9.88905 66.9628 9.86881 66.9856 9.86881C67.0085 9.86881 67.0271 9.8591 67.0271 9.8473C67.0271 9.83557 67.0651 9.8086 67.1116 9.78746C67.1644 9.76263 67.2151 9.73363 67.2633 9.70073C67.3107 9.66831 67.3604 9.63959 67.4122 9.61482C67.4568 9.59406 67.5062 9.56179 67.5217 9.54296C67.5374 9.52414 67.5629 9.50882 67.5785 9.50882C67.5942 9.50882 67.636 9.49366 67.6714 9.47521C67.7587 9.42964 67.9915 9.42964 68.0089 9.47506C68.0237 9.51353 68.0891 9.51913 68.1468 9.48701C68.1971 9.45892 68.3925 9.39632 68.4299 9.39632C68.5375 9.39632 68.9169 9.12448 68.9169 9.04746C68.9169 9.01683 69.102 8.83381 69.133 8.83381C69.1457 8.83381 69.1852 8.80348 69.2208 8.76636C69.2563 8.72923 69.2975 8.69883 69.3122 8.69883C69.3269 8.69883 69.3528 8.68209 69.3699 8.66163C69.3868 8.64108 69.4716 8.5684 69.5582 8.50012C69.6448 8.43177 69.7461 8.34795 69.7832 8.31396C69.9015 8.20549 70.1353 8.01351 70.1813 7.98714C70.2056 7.97317 70.2582 7.93014 70.298 7.89152C70.3378 7.85298 70.3813 7.82138 70.3946 7.82138C70.408 7.82138 70.4313 7.80644 70.4465 7.78813C70.4617 7.76983 70.5009 7.74085 70.5337 7.72374C70.6356 7.67033 70.7033 7.63096 70.7693 7.58666C70.8809 7.51174 71.0563 7.46565 71.1408 7.48895C71.2173 7.51002 71.4957 7.50113 71.6393 7.47304C71.6826 7.4646 71.7687 7.4342 71.8306 7.40544C71.8924 7.37668 71.9906 7.332 72.0485 7.30608C72.1066 7.28023 72.1601 7.24931 72.1674 7.23751C72.1747 7.22563 72.1946 7.22122 72.2115 7.22772C72.2284 7.23422 72.2487 7.22906 72.2567 7.21622C72.2646 7.20337 72.3339 7.16138 72.4108 7.12284C72.6264 7.01467 72.7248 6.95976 72.8018 6.90463C72.8406 6.87677 72.8823 6.85398 72.8944 6.85398C72.9063 6.85398 72.9284 6.83934 72.9432 6.82149C72.958 6.80364 73.0427 6.75172 73.1316 6.70615C73.2203 6.66058 73.3067 6.61232 73.3236 6.59895C73.3654 6.56534 73.4278 6.53105 73.8554 6.3059C73.9173 6.27333 73.9974 6.24666 74.0334 6.24658H74.0987L74.0833 6.62338C74.0748 6.8306 74.057 7.04574 74.0438 7.10147C74.0282 7.17201 74.0165 7.24336 74.0087 7.3152C74.0025 7.37705 73.9883 7.43733 73.9771 7.44906C73.9659 7.46079 73.9566 7.49 73.9566 7.51383C73.9566 7.53788 73.8864 7.6264 73.7992 7.71201C73.7125 7.7971 73.6417 7.88181 73.6417 7.90026C73.6417 7.91879 73.6333 7.93388 73.623 7.93388C73.6127 7.93388 73.5904 7.96174 73.5734 7.99581C73.5563 8.0298 73.5305 8.07282 73.5161 8.09142C73.4936 8.12018 73.3454 8.39128 73.2438 8.58969C73.227 8.62233 73.1983 8.66155 73.18 8.67672C73.1617 8.69195 73.1464 8.71578 73.1461 8.72975C73.1453 8.7609 73.0347 8.8811 72.976 8.91472C72.7966 9.01728 72.7118 9.0506 72.5505 9.08168C72.4662 9.09792 72.3819 9.11415 72.2975 9.13038C72.1722 9.15458 71.8889 9.24931 71.7743 9.30541C71.5665 9.40715 71.5317 9.42829 71.4623 9.4947C71.4284 9.5272 71.3911 9.55387 71.3794 9.55402C71.3677 9.55409 71.3208 9.5895 71.2752 9.63275C71.2297 9.67593 71.1824 9.71126 71.1701 9.71126C71.1579 9.71126 71.1192 9.73465 71.0842 9.76326C71.0492 9.79187 70.964 9.84244 70.8948 9.87568C70.7152 9.96196 70.6494 10.0531 70.6494 10.2159C70.6494 10.271 70.6393 10.3223 70.627 10.33C70.6146 10.3376 70.6044 10.4135 70.6044 10.4987C70.6044 10.5839 70.5956 10.659 70.5848 10.6657C70.5741 10.6724 70.559 10.7091 70.5513 10.7474C70.5348 10.8294 70.3273 11.0565 70.2512 11.0755C70.2227 11.0827 70.1994 11.0976 70.1994 11.1086C70.1994 11.1197 70.1817 11.1288 70.1601 11.1288C70.1384 11.1289 70.0917 11.1441 70.0562 11.1626C70.0208 11.181 69.9733 11.1962 69.9507 11.1962C69.9281 11.1962 69.9033 11.2063 69.8957 11.2187C69.8881 11.2311 69.8621 11.2412 69.8379 11.2412C69.8137 11.2412 69.7511 11.2606 69.6986 11.2842C69.6461 11.3079 69.5627 11.3395 69.5133 11.3546C69.4637 11.3696 69.4072 11.3958 69.3876 11.4128C69.3681 11.4299 69.3468 11.4385 69.3402 11.432C69.3337 11.4254 69.3156 11.4355 69.2999 11.4544C69.2843 11.4733 69.2525 11.4887 69.2292 11.4887C69.206 11.4887 69.187 11.4988 69.187 11.5111C69.187 11.5235 69.168 11.5337 69.1448 11.5337C69.1216 11.5337 69.0899 11.5489 69.0746 11.5674C69.0591 11.586 69.0342 11.6012 69.019 11.6012C69.0038 11.6012 68.9731 11.6214 68.9508 11.6461C68.9284 11.6709 68.8989 11.6912 68.8854 11.6913C68.8718 11.6915 68.8152 11.7365 68.7596 11.7916C68.7038 11.8465 68.6463 11.892 68.6316 11.8926C68.6169 11.8932 68.5024 11.9949 68.3771 12.1186C68.2517 12.2424 68.1367 12.3436 68.1213 12.3436C68.106 12.3436 68.0591 12.379 68.0171 12.4224C67.9751 12.4657 67.9293 12.5011 67.9153 12.5011C67.9014 12.5011 67.8661 12.5264 67.8371 12.5573C67.808 12.5883 67.7727 12.6136 67.7586 12.6136C67.7446 12.6136 67.7134 12.6318 67.6894 12.6541C67.6655 12.6764 67.6307 12.7015 67.6121 12.7099C67.5935 12.7182 67.5379 12.75 67.4883 12.7804C67.255 12.9238 66.7073 13.1986 66.655 13.1986C66.64 13.1986 66.6152 13.2136 66.5998 13.232C66.5846 13.2505 66.5641 13.2607 66.5544 13.2547C66.5368 13.2438 66.0783 13.4709 66.0147 13.522C65.9962 13.537 65.9354 13.5722 65.8797 13.6004C65.7565 13.6627 65.6486 13.7387 65.5377 13.8412C65.4918 13.8837 65.4461 13.9186 65.4364 13.9187C65.4266 13.9188 65.334 13.9998 65.2309 14.0987C65.1277 14.1976 65.0351 14.2785 65.025 14.2785C65.015 14.2785 64.9309 14.3494 64.8382 14.4359C64.7454 14.5226 64.6603 14.5935 64.6489 14.5935C64.6234 14.5935 64.2205 15.0108 64.1586 15.1012C64.1063 15.1778 64.0349 15.33 64.0349 15.365C64.0349 15.4096 63.9395 15.5867 63.8874 15.6387C63.859 15.6671 63.8022 15.7139 63.761 15.7429C63.5632 15.8817 63.4243 16.0429 63.3245 16.2495C63.2697 16.3627 63.2249 16.4672 63.2249 16.4816C63.2249 16.557 62.9472 16.7758 62.8516 16.7758C62.8121 16.7758 62.64 16.8707 62.64 16.8925C62.64 16.9025 62.6235 16.9108 62.6035 16.9108C62.5835 16.9108 62.5333 16.9386 62.4919 16.9727C62.3547 17.0855 62.2762 17.1467 62.2252 17.1808C62.0283 17.3123 61.9631 17.353 61.8637 17.4064C61.7876 17.4457 61.7087 17.4791 61.6275 17.5065C61.5595 17.5284 61.4862 17.5551 61.4647 17.566C61.4432 17.5769 61.3769 17.5858 61.3174 17.5858C61.2577 17.5858 61.1994 17.5949 61.1877 17.6059C61.1759 17.6171 61.1257 17.6311 61.0763 17.6371C60.9788 17.649 60.8015 17.6986 60.6938 17.7441C60.6567 17.7598 60.6113 17.7757 60.593 17.7792C60.5747 17.7828 60.5561 17.7964 60.5517 17.8095C60.5474 17.8226 60.5298 17.8332 60.5127 17.8332C60.4675 17.8332 60.3324 17.9581 60.2737 18.0542C60.2401 18.1073 60.2022 18.1576 60.1604 18.2044C60.126 18.2416 60.0978 18.2829 60.0977 18.2962C60.0977 18.3095 60.0723 18.3441 60.0414 18.3732C60.0104 18.4023 59.9851 18.4382 59.9851 18.4531C59.9851 18.4681 59.9697 18.493 59.9508 18.5087C59.9115 18.5412 59.5802 19.2096 59.5802 19.2561C59.5802 19.2729 59.5715 19.2963 59.561 19.308C59.5504 19.3197 59.5139 19.4205 59.48 19.5319C59.4461 19.6432 59.4092 19.7576 59.398 19.786C59.3699 19.8573 59.3718 20.4368 59.4002 20.4543C59.4125 20.4619 59.4228 20.5157 59.4228 20.5738C59.4231 20.7052 59.5179 21.1672 59.5825 21.3514C59.6513 21.5474 59.7926 21.8143 59.8722 21.8986C59.9096 21.9382 59.9401 21.9812 59.9401 21.9943C59.9401 22.0075 59.9856 22.0662 60.0412 22.125C60.0969 22.1837 60.1424 22.2424 60.1424 22.2554C60.1425 22.2685 60.178 22.3135 60.2213 22.3555C60.2647 22.3974 60.3001 22.4429 60.3001 22.4564C60.3001 22.47 60.3456 22.5258 60.4014 22.5804C60.457 22.6351 60.5026 22.6904 60.5026 22.7033C60.5026 22.7162 60.5582 22.7852 60.6263 22.8567C60.6943 22.9281 60.7501 22.9993 60.7501 23.015C60.7501 23.0307 60.7956 23.0882 60.8513 23.1429C60.907 23.1975 60.9525 23.2532 60.9525 23.2665C60.9525 23.2798 61.0082 23.3457 61.0763 23.4129C61.1443 23.4801 61.2001 23.5456 61.2002 23.5583C61.2003 23.5711 61.2709 23.6525 61.357 23.7391C61.4431 23.8258 61.514 23.9068 61.5144 23.9192C61.5149 23.9315 61.5822 24.0125 61.664 24.0991C61.7458 24.1858 61.8394 24.2912 61.8719 24.3337C61.9046 24.376 61.992 24.4758 62.0662 24.5553C62.1405 24.6349 62.2107 24.7166 62.2223 24.7368C62.2339 24.7572 62.2785 24.8118 62.3216 24.8583C62.3645 24.9048 62.4169 24.9707 62.4379 25.0047C62.4588 25.0387 62.4976 25.0858 62.5242 25.1094C62.5508 25.133 62.5727 25.1633 62.573 25.1769C62.5733 25.1904 62.6365 25.2688 62.7136 25.3509C62.8412 25.4869 62.9745 25.6544 63.0345 25.7541C63.0474 25.7754 63.0717 25.8096 63.0887 25.83C63.1275 25.8768 63.2249 26.068 63.2249 26.0975C63.2249 26.1096 63.2486 26.1711 63.2777 26.2342C63.3623 26.4182 63.4339 26.6338 63.4446 26.7371L63.4544 26.8327H62.8685C62.5022 26.8327 62.2774 26.8242 62.2687 26.8101C62.2611 26.7978 62.19 26.7877 62.1106 26.7877C61.9717 26.7877 61.8965 26.7658 61.7175 26.6736C61.4913 26.5569 61.2935 26.4726 61.2457 26.4726C61.222 26.4726 61.1971 26.4637 61.1902 26.4525C61.1617 26.4064 60.6678 26.3672 60.548 26.4017C60.5044 26.4141 60.4102 26.4369 60.3384 26.4524C60.2667 26.4678 60.2028 26.4888 60.1965 26.499C60.1901 26.5093 60.169 26.5177 60.1494 26.5177C60.0816 26.5177 59.7483 26.6974 59.6494 26.7873C59.5947 26.837 59.5421 26.8777 59.5324 26.8777C59.5227 26.8777 59.4323 26.9561 59.3315 27.052C59.2307 27.1479 59.1367 27.2305 59.1225 27.2357C59.1084 27.2408 59.0613 27.2787 59.018 27.3198C58.9745 27.3611 58.9279 27.3948 58.9143 27.3949C58.9007 27.395 58.8715 27.4151 58.8494 27.4396C58.8273 27.4641 58.8009 27.4789 58.7909 27.4727C58.7808 27.4665 58.7188 27.4874 58.6533 27.5192C58.547 27.5707 58.4847 27.5914 58.3034 27.6355C58.2756 27.6422 58.2184 27.6315 58.1763 27.6115C58.1342 27.5914 58.0902 27.5751 58.0784 27.5751C58.0668 27.5751 58.0388 27.5549 58.0164 27.5301C57.9941 27.5054 57.9647 27.4851 57.9511 27.485C57.9376 27.485 57.8941 27.4546 57.8546 27.4175C57.815 27.3805 57.7728 27.3501 57.7607 27.3501C57.7486 27.3501 57.7101 27.3267 57.6751 27.2981C57.6306 27.2634 57.583 27.2329 57.5328 27.2071C57.4829 27.1819 57.4341 27.1547 57.3865 27.1254C57.3192 27.0826 56.8502 26.8487 56.6042 26.7351C56.5328 26.7022 56.4549 26.6751 56.4312 26.6751C56.4074 26.6751 56.3828 26.6668 56.3764 26.6565C56.3701 26.6462 56.2951 26.6246 56.2098 26.6085C56.0529 26.5789 55.8805 26.5856 55.6823 26.6292C55.6235 26.6421 55.5324 26.6622 55.4798 26.6739L55.2942 26.715C55.2447 26.7259 55.1821 26.7467 55.155 26.7612C55.128 26.7758 55.0552 26.7876 54.9932 26.7876C54.9312 26.7876 54.8744 26.7978 54.8667 26.8101C54.8588 26.8228 54.7507 26.8327 54.6192 26.8327C54.4877 26.8327 54.3795 26.8425 54.3717 26.8551C54.3641 26.8675 54.3161 26.8777 54.265 26.8777C54.1701 26.8777 53.9525 26.9419 53.8318 27.0056C53.7479 27.0499 53.5759 27.211 53.5482 27.2714C53.5368 27.2961 53.5022 27.3569 53.4712 27.4064C53.4402 27.4558 53.4047 27.5166 53.3924 27.5414C53.3801 27.5661 53.3446 27.6268 53.3136 27.6764C53.2825 27.7258 53.2512 27.7815 53.2439 27.8001C53.2367 27.8187 53.2175 27.8642 53.2012 27.9013C53.0878 28.1609 53.08 28.2028 53.0769 28.572C53.0752 28.7702 53.0655 28.9485 53.0554 28.9681C53.0268 29.0233 52.9431 29.3152 52.9431 29.3598C52.9431 29.3817 52.9717 29.416 53.0068 29.4361C53.098 29.4884 53.1289 29.5749 53.1157 29.7407C53.1028 29.9029 53.0827 30.0196 53.0567 30.0837C53.0466 30.1084 53.0201 30.1743 52.9978 30.2299C52.9754 30.2856 52.9422 30.349 52.924 30.3707C52.9028 30.3967 52.8835 30.4243 52.8663 30.4531C52.8529 30.4766 52.8085 30.5436 52.7677 30.6018C52.6723 30.738 52.6288 30.8649 52.6285 31.0082C52.6279 31.1871 52.5935 31.2066 52.3081 31.1894C52.1809 31.1817 52.0131 31.1662 51.9351 31.1549C51.6816 31.1183 51.4709 31.2025 51.2462 31.4298C51.1585 31.5185 50.977 31.6721 50.8428 31.7711C50.7085 31.8701 50.5604 31.984 50.5138 32.0242C50.4672 32.0644 50.4162 32.0973 50.4006 32.0973C50.3849 32.0973 50.3487 32.1226 50.32 32.1536C50.2913 32.1845 50.2528 32.2098 50.2344 32.2098C50.216 32.2098 50.1947 32.2199 50.187 32.2322C50.1793 32.2447 50.1509 32.2549 50.1238 32.2549C50.0967 32.255 50.0455 32.2702 50.0101 32.2887C49.9746 32.3071 49.9119 32.3223 49.8708 32.3223C49.8297 32.3223 49.7897 32.3324 49.782 32.3447C49.7744 32.3571 49.7187 32.3673 49.6583 32.3673C49.5979 32.3673 49.5422 32.3774 49.5345 32.3898C49.5269 32.4022 49.474 32.4123 49.4171 32.4123C49.3171 32.4123 48.8686 32.5488 48.809 32.5974C48.7935 32.61 48.7809 32.6145 48.7809 32.6075C48.7809 32.6005 48.7327 32.6151 48.674 32.64C48.6152 32.6648 48.5469 32.6934 48.5221 32.7034C48.2427 32.8164 47.8767 33.0056 47.8622 33.0446C47.8581 33.0557 47.8365 33.0648 47.8144 33.0648C47.7921 33.0648 47.7613 33.0799 47.7459 33.0985C47.7305 33.1171 47.7052 33.1322 47.6897 33.1322C47.6741 33.1322 47.6479 33.1484 47.6314 33.1683C47.615 33.1882 47.5808 33.2136 47.5556 33.2249C47.5132 33.2437 47.4738 33.2667 47.2996 33.3741C47.1546 33.4635 47.0572 33.5341 47.0168 33.5793C46.9933 33.6056 46.9616 33.6272 46.9465 33.6272C46.9314 33.6272 46.9064 33.6424 46.891 33.661C46.8756 33.6795 46.8395 33.6947 46.8108 33.6947C46.7821 33.6947 46.7524 33.7048 46.7447 33.7172C46.7371 33.7296 46.6915 33.7396 46.6435 33.7396C46.5954 33.7396 46.5505 33.7487 46.5437 33.7598C46.5369 33.7709 46.4933 33.7852 46.4468 33.7916C46.4003 33.7981 46.3167 33.8143 46.261 33.8278C46.0447 33.8799 45.8412 33.9234 45.7603 33.9349C45.7138 33.9416 45.6702 33.956 45.6633 33.967C45.6565 33.9781 45.637 33.9872 45.62 33.9872C45.5722 33.9872 45.3035 34.1169 45.2716 34.1553C45.2559 34.1743 45.2311 34.1896 45.2165 34.1896C45.2019 34.1896 45.1556 34.2251 45.1136 34.2684C45.0716 34.3117 45.0246 34.3472 45.0091 34.3472C44.9936 34.3472 44.9536 34.3724 44.9202 34.4034C44.8661 34.4536 44.8411 34.4594 44.6884 34.4577C44.5943 34.4567 44.4566 34.4465 44.3824 34.435C44.289 34.4215 44.1952 34.4109 44.1011 34.4034C44.0033 34.3955 43.9058 34.3845 43.8087 34.3705C43.5908 34.3375 43.1703 34.3161 42.74 34.3162C42.387 34.3163 42.2603 34.3287 41.9862 34.3903C41.667 34.462 41.612 34.4751 41.5814 34.4867C41.5628 34.4936 41.502 34.5113 41.4463 34.526C41.3906 34.5407 41.3148 34.5614 41.2776 34.5722C41.1841 34.599 41.0903 34.6251 40.9964 34.6503C40.8127 34.6919 40.723 34.7179 40.6589 34.748C40.6155 34.7683 40.565 34.7863 40.5464 34.7879C40.4962 34.7925 40.0472 35.0188 39.9952 35.0658C39.9704 35.0881 39.9378 35.1102 39.9226 35.1148C39.8867 35.126 39.5339 35.4735 39.5339 35.4979C39.5339 35.5082 39.4859 35.5719 39.4271 35.6395C39.2408 35.8537 39.2064 35.9108 39.1485 36.102C39.1098 36.2296 39.1091 36.7211 39.1476 36.7596C39.1621 36.7741 39.174 36.834 39.174 36.8926C39.174 36.9513 39.1841 37.0056 39.1964 37.0132C39.2088 37.0208 39.219 37.0697 39.219 37.1218C39.219 37.2256 39.2801 37.4125 39.351 37.5257C39.3956 37.5967 39.4115 37.6288 39.5271 37.8794C39.5584 37.9475 39.5931 38.0207 39.604 38.0423C39.6401 38.1129 39.6251 38.1481 39.5344 38.2054C39.4624 38.2508 39.4161 38.2619 39.2979 38.2619C39.217 38.2619 39.1333 38.2527 39.1119 38.2414C38.9572 38.1602 38.8585 38.1458 38.5498 38.1593C38.2222 38.1737 38.1005 38.1952 37.9365 38.2678C37.7843 38.3352 37.7515 38.3472 37.6778 38.3626L37.5203 38.3958C37.4709 38.4063 37.395 38.4259 37.3517 38.4396C37.2435 38.4737 37.1373 38.4707 37.1056 38.4324V38.4323Z" fill="#D67900"/>
<path d="M25.1085 39.0591C25.1085 39.0591 25.3019 39.5054 25.5664 40.0495C25.8307 40.5935 26.1659 41.2352 26.4491 41.626C26.6369 41.885 26.8562 42.1311 27.1195 42.3127C27.4571 42.5455 28.2477 42.8032 28.2477 42.8032C28.2477 42.8032 28.2181 42.0557 28.0557 41.6802C27.9036 41.3286 27.5706 40.8974 27.2862 40.6404C26.6277 40.0453 26.0676 39.6406 25.6723 39.3848C25.277 39.1289 25.1085 39.0591 25.1085 39.0591ZM28.3177 39.8754C28.3177 39.8754 28.3339 40.1927 28.3714 40.5858C28.409 40.9789 28.468 41.4478 28.5537 41.751C28.6476 42.0807 28.7899 42.3947 28.976 42.6826C29.1257 42.9142 29.5226 43.3037 29.5226 43.3037C29.5226 43.3037 29.6742 42.82 29.6716 42.5708C29.6678 42.1931 29.5753 41.811 29.4232 41.4652C29.2933 41.1699 29.0915 40.7227 28.8475 40.3991C28.6036 40.0754 28.3177 39.8754 28.3177 39.8754H28.3177ZM25.5626 42.8676C25.5626 42.8676 26.4395 43.7613 26.9718 44.0774C27.2248 44.2277 27.5078 44.3375 27.7974 44.3906C28.068 44.4402 28.6228 44.3906 28.6228 44.3906C28.6228 44.3906 28.5736 44.0446 28.2244 43.6362C27.9719 43.3412 27.4781 43.1593 27.1141 43.0241C26.3964 42.7576 25.5626 42.8676 25.5626 42.8676ZM28.4367 43.1678C28.4367 43.1678 28.9493 44.2176 29.2898 44.6886C29.5189 45.0054 29.7719 45.3151 30.0812 45.5541C31.0669 46.3159 31.6143 46.2465 31.6143 46.2465C31.6143 46.2465 31.5745 45.7165 31.466 45.48C31.236 44.9786 30.8669 44.5308 30.4398 44.1817C29.8603 43.7081 28.4367 43.1678 28.4367 43.1678ZM28.2513 46.0363C28.2513 46.0363 28.8891 46.6444 29.2528 46.8894C29.5264 47.0739 29.8176 47.2426 30.1307 47.3469C30.3962 47.4354 30.6794 47.4717 30.9591 47.4829C31.6438 47.5105 31.9729 47.4088 31.9729 47.4088C31.9729 47.4088 31.9722 47.0689 31.3795 46.6174C31.0329 46.3534 30.6052 46.1934 30.1801 46.0982C29.5524 45.9576 28.2513 46.0363 28.2513 46.0363ZM30.7118 42.7228C30.7118 42.7228 30.9466 43.5916 31.1074 43.9963C31.2484 44.3508 31.4021 44.7054 31.6143 45.0225C31.7915 45.2869 32.0125 45.5901 32.2613 45.7886C32.4703 45.9555 32.9497 46.1229 32.9497 46.1229C32.9497 46.1229 32.9219 45.5036 32.8384 45.208C32.7362 44.8459 32.5823 44.4913 32.3685 44.1817C32.0986 43.7908 31.7158 43.4904 31.3671 43.1678C30.8845 42.7214 30.7118 42.7228 30.7118 42.7228ZM31.8936 46.4492C31.8936 46.4492 32.414 47.042 32.7112 47.2995C33.0713 47.6114 33.4599 47.8942 33.8721 48.1333C34.1104 48.2715 34.3595 48.3998 34.6242 48.4766C34.8936 48.5548 35.1775 48.5855 35.458 48.5911C35.6277 48.5945 35.9648 48.5421 35.9648 48.5421C35.9648 48.5421 35.6576 47.9341 35.4253 47.6918C35.1542 47.4092 34.8101 47.1981 34.4606 47.0215C34.0084 46.7929 33.5184 46.6319 33.0219 46.531C32.6523 46.4559 31.8937 46.4492 31.8937 46.4492H31.8936ZM34.4606 46.0569C34.4606 46.0569 34.9113 46.7449 35.1964 47.0379C35.4778 47.327 35.8065 47.5697 36.1446 47.79C36.4491 47.9881 36.7591 48.2002 37.1093 48.2968C37.3987 48.3766 38.0085 48.3458 38.0085 48.3458C38.0085 48.3458 37.893 47.8544 37.7633 47.6428C37.5698 47.3273 37.296 47.0567 36.9949 46.8416C36.5941 46.5554 36.1269 46.3588 35.6542 46.2203C35.2688 46.1074 34.4606 46.0569 34.4606 46.0569ZM32.4494 49.2614C32.4494 49.2614 32.8829 49.6001 33.5777 49.8009C33.9214 49.9003 34.2681 49.963 34.6242 49.9972C34.9283 50.0263 35.531 49.9876 35.834 49.9481C36.2032 49.9001 36.6189 49.6538 36.6189 49.6538C36.6189 49.6538 36.3432 49.2476 36.0466 49.1143C35.5284 48.8814 34.7752 48.8017 34.2075 48.8205C33.0681 48.8583 32.4494 49.2614 32.4494 49.2614ZM36.198 48.7352C36.198 48.7352 37.1781 49.5219 37.6846 49.8006C38.1335 50.0476 38.6203 50.2405 39.1217 50.3457C40.0111 50.5325 40.8561 50.3953 40.8561 50.3953C40.8561 50.3953 40.7196 50.0011 40.5836 49.8502C40.223 49.4504 39.7267 49.1674 39.2208 48.983C38.6337 48.7689 37.9865 48.7693 37.3625 48.7352C37.0078 48.7158 36.198 48.7352 36.198 48.7352ZM39.4438 48.0414C39.4438 48.0414 40.2456 49.2501 40.7818 49.7263C41.1229 50.0292 41.5195 50.2839 41.9464 50.4449C42.3147 50.5838 43.1436 50.6431 43.1436 50.6431C43.1436 50.6431 43.1598 50.3714 43.0853 50.1878C42.9292 49.8036 42.5763 49.4041 42.2437 49.1564C41.7282 48.7724 41.1397 48.4796 40.5341 48.2645C40.1845 48.1403 39.4438 48.0414 39.4438 48.0414ZM38.1491 51.3482C38.1491 51.3482 39.2075 51.6274 39.7493 51.6911C40.1089 51.7333 40.4743 51.7442 40.8352 51.7156C41.1662 51.6892 41.5136 51.6752 41.815 51.5359C42.268 51.3265 42.509 51.0787 42.509 51.0787C42.2507 50.7686 41.7956 50.6997 41.4557 50.6541C41.0538 50.601 40.642 50.6156 40.2392 50.6623C39.7761 50.7159 39.3135 50.8125 38.8757 50.9726C38.6196 51.0661 38.1491 51.3482 38.1491 51.3482ZM42.9556 51.0459C43.0331 51.0909 43.0774 51.1277 43.105 51.1603C43.105 51.1603 43.8529 51.3547 44.2154 51.4869C44.489 51.5867 44.7716 51.6789 45.0155 51.838C45.2817 52.0117 45.4997 52.2518 45.7177 52.483C45.9658 52.7462 46.4035 53.324 46.4035 53.324L46.518 53.4976L46.6044 53.493C46.6044 53.493 46.6532 52.9897 46.7336 52.7729C46.8136 52.557 47.0475 52.4107 47.0475 52.4107L47.0522 52.292C46.3391 51.8609 45.5561 51.4196 44.7951 51.2338C44.4332 51.1464 44.0643 51.0779 43.6928 51.0542C43.4537 51.0389 42.9556 51.0459 42.9556 51.0459ZM28.3467 45.0725C28.295 45.2352 28.34 45.4345 28.4337 45.5772C28.5327 45.7278 28.7117 45.8278 28.8861 45.873C28.965 45.8935 29.0565 45.891 29.1297 45.8556C29.2148 45.8145 29.2943 45.7373 29.3212 45.6468C29.3613 45.5115 29.3194 45.3529 29.2516 45.2292C29.1765 45.0923 29.0479 44.9752 28.9035 44.916C28.7854 44.8675 28.6399 44.8523 28.5207 44.8985C28.4442 44.9282 28.3715 44.9944 28.3466 45.0726L28.3467 45.0725ZM29.9963 42.6528C29.8772 42.7913 29.828 43.0166 29.8479 43.2098C29.8688 43.4136 29.984 43.6074 30.1197 43.7433C30.181 43.8047 30.2639 43.8494 30.3453 43.8512C30.4397 43.8535 30.5454 43.8161 30.61 43.7381C30.7066 43.6216 30.7402 43.439 30.735 43.2785C30.7293 43.1009 30.6669 42.9157 30.5643 42.7812C30.4804 42.6711 30.3571 42.5806 30.2299 42.566C30.1482 42.5567 30.0536 42.5864 29.9963 42.6529V42.6528ZM31.9734 48.307C32.0443 48.4648 32.2214 48.5886 32.3998 48.6376C32.588 48.6894 32.8076 48.6508 32.985 48.5734C33.0651 48.5384 33.1399 48.4777 33.1762 48.4035C33.2185 48.3174 33.2308 48.2071 33.1898 48.1205C33.1285 47.9911 32.9824 47.8964 32.8389 47.8453C32.6804 47.7887 32.4908 47.7816 32.3287 47.829C32.196 47.8679 32.0639 47.9499 31.9968 48.0618C31.9537 48.1337 31.9393 48.2312 31.9734 48.307ZM36.6765 50.6915C36.7724 50.8347 36.9657 50.9258 37.1472 50.9431C37.3388 50.9615 37.5455 50.8854 37.7045 50.7783C37.7764 50.7299 37.8386 50.6572 37.8612 50.5778C37.8875 50.4856 37.8806 50.3749 37.8259 50.2967C37.7442 50.1798 37.5861 50.1122 37.438 50.0866C37.2744 50.0584 37.0891 50.0844 36.9398 50.1592C36.8176 50.2205 36.7033 50.3242 36.6573 50.4461C36.6277 50.5244 36.6304 50.6228 36.6765 50.6915ZM33.1688 45.5945C33.1128 45.7711 33.1616 45.9875 33.2633 46.1424C33.3708 46.3059 33.5653 46.4145 33.7547 46.4636C33.8402 46.4858 34.0441 46.4831 34.1237 46.4447C34.216 46.4001 34.198 46.3162 34.2271 46.2179C34.2707 46.0711 34.2252 45.899 34.1515 45.7645C34.0701 45.616 33.9304 45.4888 33.7735 45.4244C33.6453 45.3719 33.4872 45.3554 33.3578 45.4055C33.2747 45.4377 33.1958 45.5095 33.1688 45.5945ZM38.2764 47.7213C38.2011 47.8771 38.2202 48.0924 38.2972 48.2604C38.3785 48.4379 38.5492 48.5814 38.7225 48.6676C38.8009 48.7064 38.8954 48.7246 38.9757 48.7048C39.0688 48.6818 39.1612 48.6204 39.2012 48.5332C39.2609 48.403 39.2395 48.2303 39.1865 48.0876C39.1279 47.9297 39.0116 47.78 38.871 47.6864C38.7559 47.6096 38.6082 47.5611 38.4793 47.5816C38.3965 47.5948 38.3126 47.6465 38.2764 47.7213Z" fill="#4D5B2D"/>
<path d="M64.7095 39.0591C64.7095 39.0591 64.5161 39.5054 64.2516 40.0495C63.9873 40.5935 63.6521 41.2352 63.3689 41.626C63.1811 41.885 62.9618 42.1311 62.6985 42.3127C62.3609 42.5455 61.5703 42.8032 61.5703 42.8032C61.5703 42.8032 61.5999 42.0557 61.7623 41.6802C61.9144 41.3286 62.2474 40.8974 62.5317 40.6404C63.1903 40.0453 63.7504 39.6406 64.1457 39.3848C64.541 39.1289 64.7095 39.0591 64.7095 39.0591ZM61.5003 39.8754C61.5003 39.8754 61.4841 40.1927 61.4465 40.5858C61.409 40.9789 61.35 41.4478 61.2643 41.751C61.1704 42.0807 61.0281 42.3947 60.842 42.6826C60.6923 42.9142 60.2954 43.3037 60.2954 43.3037C60.2954 43.3037 60.1438 42.82 60.1464 42.5708C60.1502 42.1931 60.2427 41.811 60.3948 41.4652C60.5247 41.1699 60.7265 40.7227 60.9705 40.3991C61.2144 40.0754 61.5003 39.8754 61.5003 39.8754H61.5003ZM64.2553 42.8676C64.2553 42.8676 63.3785 43.7613 62.8462 44.0774C62.5931 44.2277 62.3102 44.3375 62.0206 44.3906C61.75 44.4402 61.1952 44.3906 61.1952 44.3906C61.1952 44.3906 61.2444 44.0446 61.5936 43.6362C61.8461 43.3412 62.3399 43.1593 62.7039 43.0241C63.4216 42.7576 64.2553 42.8676 64.2553 42.8676ZM61.3813 43.1678C61.3813 43.1678 60.8687 44.2176 60.5282 44.6886C60.299 45.0054 60.0461 45.3151 59.7368 45.5541C58.7511 46.3159 58.2037 46.2465 58.2037 46.2465C58.2037 46.2465 58.2435 45.7165 58.352 45.48C58.5819 44.9786 58.9511 44.5308 59.3782 44.1817C59.9577 43.7081 61.3813 43.1678 61.3813 43.1678ZM61.5667 46.0363C61.5667 46.0363 60.9289 46.6444 60.5652 46.8894C60.2916 47.0739 60.0004 47.2426 59.6873 47.3469C59.4218 47.4354 59.1386 47.4717 58.8589 47.4829C58.1742 47.5105 57.8451 47.4088 57.8451 47.4088C57.8451 47.4088 57.8458 47.0689 58.4385 46.6174C58.7851 46.3534 59.2128 46.1934 59.6379 46.0982C60.2656 45.9576 61.5667 46.0363 61.5667 46.0363ZM59.1062 42.7228C59.1062 42.7228 58.8714 43.5916 58.7106 43.9963C58.5696 44.3508 58.4159 44.7054 58.2037 45.0225C58.0265 45.2869 57.8055 45.5901 57.5567 45.7886C57.3477 45.9555 56.8683 46.1229 56.8683 46.1229C56.8683 46.1229 56.8961 45.5036 56.9796 45.208C57.0818 44.8459 57.2357 44.4913 57.4495 44.1817C57.7194 43.7908 58.1022 43.4904 58.4509 43.1678C58.9335 42.7214 59.1062 42.7228 59.1062 42.7228ZM57.9243 46.4492C57.9243 46.4492 57.404 47.042 57.1068 47.2995C56.7467 47.6114 56.3581 47.8942 55.9459 48.1333C55.7076 48.2715 55.4585 48.3998 55.1938 48.4766C54.9244 48.5548 54.6405 48.5855 54.36 48.5911C54.1903 48.5945 53.8532 48.5421 53.8532 48.5421C53.8532 48.5421 54.1604 47.9341 54.3927 47.6918C54.6637 47.4092 55.0079 47.1981 55.3574 47.0215C55.8096 46.7929 56.2996 46.6319 56.7961 46.531C57.1657 46.4559 57.9243 46.4492 57.9243 46.4492H57.9243ZM55.3574 46.0569C55.3574 46.0569 54.9067 46.7449 54.6216 47.0379C54.3402 47.327 54.0114 47.5697 53.6733 47.79C53.3689 47.9881 53.0588 48.2002 52.7086 48.2968C52.4192 48.3766 51.8095 48.3458 51.8095 48.3458C51.8095 48.3458 51.9249 47.8544 52.0547 47.6428C52.2482 47.3273 52.522 47.0567 52.8231 46.8416C53.2239 46.5554 53.6911 46.3588 54.1638 46.2203C54.5492 46.1074 55.3574 46.0569 55.3574 46.0569ZM57.3686 49.2614C57.3686 49.2614 56.9351 49.6001 56.2403 49.8009C55.8966 49.9003 55.5499 49.963 55.1938 49.9972C54.8896 50.0263 54.287 49.9876 53.984 49.9481C53.6148 49.9001 53.1991 49.6538 53.1991 49.6538C53.1991 49.6538 53.4748 49.2476 53.7714 49.1143C54.2896 48.8814 55.0428 48.8017 55.6105 48.8205C56.7499 48.8583 57.3686 49.2614 57.3686 49.2614ZM53.62 48.7352C53.62 48.7352 52.6399 49.5219 52.1334 49.8006C51.6845 50.0476 51.1976 50.2405 50.6962 50.3457C49.8068 50.5325 48.9619 50.3953 48.9619 50.3953C48.9619 50.3953 49.0984 50.0011 49.2344 49.8502C49.595 49.4504 50.0913 49.1674 50.5972 48.983C51.1843 48.7689 51.8315 48.7693 52.4555 48.7352C52.8102 48.7158 53.62 48.7352 53.62 48.7352ZM50.3742 48.0414C50.3742 48.0414 49.5724 49.2501 49.0362 49.7263C48.6951 50.0292 48.2985 50.2839 47.8716 50.4449C47.5033 50.5838 46.6744 50.6431 46.6744 50.6431C46.6744 50.6431 46.6582 50.3714 46.7327 50.1878C46.8888 49.8036 47.2417 49.4041 47.5743 49.1564C48.0898 48.7724 48.6782 48.4796 49.2839 48.2645C49.6335 48.1403 50.3742 48.0414 50.3742 48.0414ZM51.6689 51.3482C51.6689 51.3482 50.6105 51.6274 50.0687 51.6911C49.7091 51.7333 49.3437 51.7442 48.9828 51.7156C48.6518 51.6892 48.3044 51.6752 48.003 51.5359C47.55 51.3265 47.309 51.0787 47.309 51.0787C47.5673 50.7686 48.0224 50.6997 48.3623 50.6541C48.7642 50.601 49.176 50.6156 49.5788 50.6623C50.0419 50.7159 50.5045 50.8125 50.9423 50.9726C51.1984 51.0661 51.6689 51.3482 51.6689 51.3482ZM46.8624 51.0459C46.7849 51.0909 46.7405 51.1277 46.713 51.1603C46.713 51.1603 45.9651 51.3547 45.6026 51.4869C45.329 51.5867 45.0464 51.6789 44.8025 51.838C44.5363 52.0117 44.3183 52.2518 44.1003 52.483C43.8522 52.7462 43.4145 53.324 43.4145 53.324L43.3 53.4976L43.2136 53.493C43.2136 53.493 43.1648 52.9897 43.0844 52.7729C43.0044 52.557 42.7705 52.4107 42.7705 52.4107L42.7658 52.292C43.4789 51.8609 44.2619 51.4196 45.0229 51.2338C45.3848 51.1464 45.7537 51.0779 46.1252 51.0542C46.3643 51.0389 46.8624 51.0459 46.8624 51.0459ZM61.4713 45.0725C61.523 45.2352 61.478 45.4345 61.3843 45.5772C61.2853 45.7278 61.1063 45.8278 60.9318 45.873C60.853 45.8935 60.7615 45.891 60.6882 45.8556C60.6032 45.8145 60.5237 45.7373 60.4968 45.6468C60.4567 45.5115 60.4986 45.3529 60.5664 45.2292C60.6415 45.0923 60.77 44.9752 60.9144 44.916C61.0326 44.8675 61.1781 44.8523 61.2973 44.8985C61.3738 44.9282 61.4465 44.9944 61.4713 45.0726L61.4713 45.0725ZM59.8217 42.6528C59.9408 42.7913 59.99 43.0166 59.9701 43.2098C59.9492 43.4136 59.834 43.6074 59.6983 43.7433C59.637 43.8047 59.5541 43.8494 59.4727 43.8512C59.3783 43.8535 59.2726 43.8161 59.208 43.7381C59.1114 43.6216 59.0778 43.439 59.083 43.2785C59.0887 43.1009 59.1511 42.9157 59.2537 42.7812C59.3376 42.6711 59.4609 42.5806 59.5881 42.566C59.6698 42.5567 59.7644 42.5864 59.8217 42.6529V42.6528ZM57.8446 48.307C57.7737 48.4648 57.5966 48.5886 57.4182 48.6376C57.23 48.6894 57.0104 48.6508 56.833 48.5734C56.7529 48.5384 56.6781 48.4777 56.6418 48.4035C56.5995 48.3174 56.5872 48.2071 56.6282 48.1205C56.6894 47.9911 56.8356 47.8964 56.9791 47.8453C57.1376 47.7887 57.3272 47.7816 57.4893 47.829C57.622 47.8679 57.7541 47.9499 57.8212 48.0618C57.8643 48.1337 57.8787 48.2312 57.8446 48.307ZM53.1415 50.6915C53.0456 50.8347 52.8523 50.9258 52.6708 50.9431C52.4792 50.9615 52.2725 50.8854 52.1135 50.7783C52.0416 50.7299 51.9794 50.6572 51.9568 50.5778C51.9305 50.4856 51.9373 50.3749 51.9921 50.2967C52.0738 50.1798 52.2319 50.1122 52.38 50.0866C52.5436 50.0584 52.7289 50.0844 52.8782 50.1592C53.0004 50.2205 53.1147 50.3242 53.1607 50.4461C53.1902 50.5244 53.1876 50.6228 53.1415 50.6915ZM56.6492 45.5945C56.7052 45.7711 56.6564 45.9875 56.5547 46.1424C56.4472 46.3059 56.2527 46.4145 56.0633 46.4636C55.9778 46.4858 55.7739 46.4831 55.6943 46.4447C55.602 46.4001 55.62 46.3162 55.5909 46.2179C55.5473 46.0711 55.5927 45.899 55.6665 45.7645C55.7479 45.616 55.8876 45.4888 56.0445 45.4244C56.1727 45.3719 56.3308 45.3554 56.4602 45.4055C56.5433 45.4377 56.6222 45.5095 56.6492 45.5945ZM51.5416 47.7213C51.6169 47.8771 51.5978 48.0924 51.5208 48.2604C51.4395 48.4379 51.2688 48.5814 51.0955 48.6676C51.0171 48.7064 50.9226 48.7246 50.8423 48.7048C50.7492 48.6818 50.6568 48.6204 50.6168 48.5332C50.5571 48.403 50.5785 48.2303 50.6315 48.0876C50.6901 47.9297 50.8064 47.78 50.947 47.6864C51.0621 47.6096 51.2098 47.5611 51.3387 47.5816C51.4215 47.5948 51.5053 47.6465 51.5416 47.7213Z" fill="#4D5B2D"/>
</g>
<defs>
<clipPath id="clip0_757_40">
<rect x="0.0877686" width="89.6425" height="59.7617" rx="1.76926" fill="white"/>
</clipPath>
</defs>
</svg>
