<svg width="90" height="61" viewBox="0 0 90 61" fill="none" xmlns="http://www.w3.org/2000/svg">
<g clip-path="url(#clip0_757_46)">
<path d="M-1.52588e-05 60.3953H89.6425V0.633667H-1.52588e-05V60.3953Z" fill="#005430"/>
<path d="M67.2318 24.3718C67.2255 23.322 66.8182 20.4941 66.7148 19.5455C66.6117 18.5968 66.5077 17.7362 66.5328 17.5347C66.5574 17.3402 66.8566 17.8051 67.0149 17.8427C67.0967 17.8263 67.0602 17.5327 66.9115 17.2819C66.8108 17.1117 66.4676 16.475 66.2594 16.102C66.1615 15.9254 66.1397 15.823 66.0925 15.8013C66.0455 15.7796 65.6666 16.5441 65.7081 16.6289C65.8115 16.7843 65.8824 16.8584 65.8985 17.1329C65.9149 17.4073 66.0567 19.3667 66.2376 20.8518C66.3738 21.9722 66.6725 24.3861 66.6831 25.8869C66.6861 26.3765 66.6318 26.8432 66.5666 27.0381C66.3994 27.3444 66.138 27.6206 65.1646 28.1901C64.0703 28.8305 62.6105 29.3635 61.983 29.7202C61.5929 29.9426 61.7222 29.9724 62.0618 29.875C62.4007 29.7777 64.1527 29.4657 65.0039 29.106C65.803 28.7675 66.3216 28.2012 66.7153 27.3751C67.2015 26.3538 67.2386 25.4871 67.2318 24.3718Z" fill="white"/>
<path d="M63.844 16.3972C63.9286 16.3644 64.6289 16.3283 64.8175 16.3672C64.6936 16.5443 63.8539 16.9362 63.8503 17.0081C63.8732 17.0566 64.4303 16.9186 64.606 16.8419C64.7209 16.7728 64.7976 16.6658 64.8827 16.5771C65.0835 16.346 65.3216 15.9175 65.2616 15.8637C65.1642 15.777 64.2096 15.8309 64.0839 15.8488C63.9996 15.861 63.7857 16.2444 63.7464 16.3427C63.7079 16.4411 63.7595 16.43 63.844 16.3972Z" fill="white"/>
<path d="M65.2746 22.6197C65.4206 22.1253 65.4566 21.5255 65.258 20.8942C65.0539 20.2442 64.547 19.8479 64.1814 19.6449L64.1162 20.2707C64.1162 20.2707 64.6288 20.5254 64.9794 21.1669C65.2015 21.5737 65.294 22.1491 65.1185 22.7905C65.0894 22.9497 65.2031 22.8619 65.2746 22.6197Z" fill="white"/>
<path d="M59.8512 25.7578C59.9827 25.3126 60.0149 24.7726 59.8365 24.2041C59.6526 23.6186 59.1962 23.2617 58.8669 23.0796L58.808 23.6428C58.808 23.6428 59.2696 23.8724 59.5852 24.4495C59.7855 24.8155 59.8684 25.3343 59.711 25.9117C59.6848 26.0545 59.7871 25.9758 59.8512 25.7578Z" fill="white"/>
<path d="M41.0226 17.2369C41.2337 17.6231 41.3213 18.17 41.1552 18.7791C41.1273 18.9302 41.2348 18.8472 41.3033 18.6172C41.4414 18.148 41.4757 17.578 41.2869 16.9779C41.093 16.3602 40.6114 15.9841 40.2641 15.7916L40.2028 16.3859C40.2028 16.3859 40.6897 16.6278 41.0226 17.2369Z" fill="white"/>
<path d="M28.312 17.4366C28.4894 17.8523 28.5014 18.4136 28.2149 19.0048C28.1592 19.1534 28.2948 19.083 28.4086 18.8608C28.641 18.4065 28.7715 17.838 28.6536 17.2099C28.5327 16.5642 28.0477 16.124 27.6845 15.8857L27.5198 16.4756C27.5198 16.4756 28.0324 16.7813 28.312 17.4366Z" fill="white"/>
<path d="M31.8257 26.7282C32.051 26.31 32.1449 26.0285 32.245 25.5331C32.3326 25.0972 32.3383 24.5937 32.3066 24.0812C32.981 23.8063 33.7848 23.35 34.0549 23.3164C33.8702 23.9505 34.311 24.6349 35.2015 24.5456C35.2697 25.2627 35.3281 25.8925 35.3636 26.2661C35.4362 27.0319 35.4252 27.9969 35.4231 28.1646C35.4201 28.3331 35.542 28.3014 35.6672 27.926C35.8342 27.4236 35.8858 26.1114 35.8252 25.2438C35.8107 25.0268 35.7862 24.734 35.7564 24.4003C36.3337 24.1332 36.4298 23.6176 36.6456 23.3979C36.8404 24.0802 37.9125 24.1728 38.2435 24.0267C38.6538 23.8454 38.7883 23.5192 38.8939 22.7623C38.9997 22.0056 38.6914 21.7009 38.5812 21.6184C38.5703 21.7099 38.3018 22.5993 38.3018 22.5993C38.3018 22.5993 38.5564 22.8682 38.5692 23.0004C38.3619 23.188 37.9245 23.1996 37.5573 23.0801C37.1898 22.9605 37.0772 22.7406 37.099 22.593C37.1203 22.445 37.2586 22.3103 37.2632 22.1299C37.2673 21.9496 37.1808 22.0018 37.0338 22.1614C36.8867 22.3214 36.7918 22.4651 36.5883 22.8084C36.4218 23.0892 36.1518 23.4317 35.6754 23.5296C35.5968 22.7053 35.5071 21.8282 35.4471 21.2774C35.4157 20.9865 35.1022 18.4733 35.0798 18.192C35.0605 17.9471 35.0242 17.6583 35.0302 17.5226C35.0362 17.4146 35.1039 17.4575 35.2086 17.5705C35.3137 17.6833 35.4973 17.88 35.5289 17.8646C35.6359 17.8121 35.5265 17.4855 35.3865 17.1929C35.2468 16.8996 34.7699 15.7423 34.6698 15.6946C34.6182 15.6704 34.2963 16.3827 34.2772 16.523C34.3271 16.6108 34.4575 16.7487 34.4622 17.1412C34.4638 17.2507 34.5342 18.2828 34.6319 19.2587C34.7173 20.1206 34.8305 20.9384 34.8414 21.0334C34.9192 21.6913 35.0136 22.6185 35.1033 23.5301C34.5863 23.4317 34.4488 23.0907 34.4603 22.8962C34.4734 22.6768 34.5724 22.4291 34.5249 22.3731C34.4254 22.3133 33.8328 22.6445 33.0064 23.0004C32.774 23.1003 32.5121 23.2075 32.2357 23.3091C32.1637 22.6879 32.0687 22.0971 32.0305 21.6454L32.0259 21.5952C32.5694 21.5601 33.0143 21.2857 33.2168 21.0244C33.4697 20.6977 33.6465 20.0255 33.6636 19.5104C33.6808 18.9949 33.2648 18.0523 33.1657 17.7526C33.0659 17.4527 33.0143 17.2449 33.0056 17.1412C32.9966 17.0375 33.2304 17.2613 33.3775 17.3052C33.477 17.3251 33.4427 17.1094 33.321 16.9614C33.2001 16.8138 32.5464 15.8218 32.5006 15.8914C32.4725 15.9322 32.2106 16.662 32.1934 16.7737C32.2965 16.8418 32.4171 17.0295 32.4256 17.2093C32.4343 17.3892 32.5784 18.1799 32.738 18.6193C32.8981 19.0587 33.2391 19.9017 33.2607 20.1335C33.0171 20.3052 32.4624 20.5961 31.9138 20.5787C31.8199 19.8099 31.701 18.9169 31.6374 18.2846C31.6129 18.0402 31.6112 17.7794 31.615 17.6432C31.618 17.5352 31.6958 17.5501 31.8027 17.6611C31.9102 17.772 32.075 17.9335 32.1088 17.9219C32.1825 17.8974 32.1187 17.6525 31.9727 17.3617C31.8267 17.0708 31.2467 15.8407 31.145 15.7948C31.0934 15.7713 30.8337 16.4622 30.8173 16.6032C30.8692 16.6905 31.002 16.8254 31.0151 17.2179C31.0255 17.5304 31.1777 19.062 31.3081 20.4109C30.7652 20.1302 30.58 19.7289 30.5129 19.0552C30.4659 18.5855 30.4613 17.7203 30.2938 16.9967C30.1994 16.5875 30.0005 16.1719 29.7648 15.9512C29.7086 16.0871 29.4576 16.9218 29.4576 16.9218C29.5394 17.1614 29.794 17.9683 29.7852 18.6675C29.7768 19.3667 29.7217 20.0502 28.9381 20.5212C28.1551 20.9923 26.9807 20.8049 26.6906 20.0699C26.4006 19.3344 27.0453 17.4903 27.0369 17.0549C27.0281 16.6196 26.9504 16.5595 26.7684 16.6314C26.5867 16.7033 26.2149 17.123 25.8946 17.8058C25.5743 18.4891 25.4319 19.3354 25.2499 19.9107C25.0685 20.4861 24.7779 21.069 24.3283 21.0367C23.8787 21.0049 23.6367 20.5935 23.4984 19.9985C23.3598 19.403 23.4446 18.6188 23.4823 18.4178C23.5761 17.9143 23.3587 18.0175 23.2256 18.808C23.1432 19.2955 23.0613 20.0742 23.3513 20.8892C23.6408 21.7041 24.1343 22.0081 24.5668 21.9039C24.9994 21.8002 25.3798 20.7855 25.514 20.3297C25.6479 19.8747 26.2473 17.8535 26.5867 17.7541C26.6342 17.9819 26.3229 18.7162 26.2233 19.575C26.124 20.4339 26.3556 21.5876 27.4458 21.7871C28.536 21.9869 29.2756 21.2799 29.5438 20.789C29.8123 20.2974 29.9375 19.7821 29.9678 19.5226C30.0027 20.1814 30.4523 21.2103 31.3256 21.5036L31.4156 21.5296C31.4694 22.0689 31.5569 22.7729 31.6374 23.5122C31.4674 23.5646 31.2958 23.612 31.1251 23.6529C31.1032 23.582 31.0792 23.5127 31.05 23.4489C30.7835 22.8755 30.3423 22.3471 29.731 22.3837C29.1065 22.4207 28.4255 23.2541 28.4552 23.8628C28.4749 24.2721 28.7002 24.6081 29.5198 24.6941C29.8941 24.7337 30.2916 24.6921 30.7022 24.6026C30.76 24.7718 30.7966 24.9401 30.8007 25.0934C30.541 25.3971 28.392 27.018 26.7829 27.1739C25.1738 27.3295 24.683 26.486 24.6669 25.6393C24.6549 24.9951 25.0423 24.3521 25.3145 23.9072C25.7041 23.6221 26.0239 23.2657 26.2258 22.9908C26.2806 23.0246 26.3327 23.0559 26.3824 23.0849C26.5747 23.1966 26.6514 23.3636 26.6514 23.3636C26.6868 23.3091 26.8522 23.0115 26.7875 22.8659C26.7578 22.8301 26.6124 22.7406 26.4375 22.6344C26.6211 22.1768 26.6186 21.72 26.3807 21.6184C26.1147 21.5051 25.7674 21.8199 25.6177 22.0119C25.5399 22.1118 25.5102 22.225 25.5096 22.3201C25.5085 22.4424 25.5661 22.5529 25.7085 22.6513C25.8504 22.7481 25.9821 22.8359 26.106 22.9151C25.7543 23.2844 24.9233 23.8254 24.4148 24.1433C24.396 24.0966 24.3215 24.1458 24.2214 24.2638L24.0836 24.3488C23.6779 24.597 22.705 25.1421 22.5138 25.2755C22.3223 25.4092 22.4423 25.385 22.5138 25.3552C22.6488 25.2823 22.8262 25.1941 23.0253 25.0967C23.3074 24.9587 23.6356 24.8026 23.9565 24.646C23.8615 24.8069 23.7633 24.9951 23.6763 25.2004C23.2935 26.1041 22.6747 27.9772 24.0132 29.1042C25.2938 30.183 27.4949 29.7726 29.3204 28.6515C31.1461 27.53 31.5403 27.1358 31.8257 26.7282ZM25.8738 22.2727C25.8105 22.226 25.8018 22.1637 25.8534 22.1203C25.9191 22.0643 26.0031 22.0114 26.0986 21.9935C26.3011 21.9559 26.3818 22.1884 26.3005 22.5506C26.1466 22.4566 25.9884 22.3577 25.8738 22.2727ZM30.0611 23.8005C29.1316 23.8048 29.0887 23.636 29.1062 23.5281C29.1234 23.4206 29.4128 23.1257 29.7801 23.3202C29.9353 23.4027 30.1102 23.5752 30.272 23.7919C30.2005 23.7972 30.1301 23.8 30.0611 23.8005ZM27.2142 28.6885C25.4581 29.1678 23.745 28.4252 23.6413 26.9549C23.562 25.8322 23.9715 24.9862 24.2355 24.5095C24.4874 24.3849 24.7253 24.2638 24.922 24.1554C24.4623 24.8957 24.1933 25.8872 24.373 26.7272C24.5766 27.6786 25.4043 28.2554 26.8058 28.0693C28.1933 27.8854 30.0695 26.5657 30.6015 26.0681C30.7636 25.8885 30.8705 25.7265 31.0162 25.3966C31.0762 25.2612 31.1605 25.0823 31.1919 24.8803C31.2124 24.7486 31.2233 24.6079 31.2257 24.4646C31.3886 24.4159 31.5523 24.3614 31.7171 24.3029C31.773 24.9053 31.8142 25.499 31.8167 26.0126C30.9521 27.0266 28.9703 28.209 27.2142 28.6885Z" fill="white"/>
<path d="M57.9314 24.8331C57.8719 23.8493 57.7284 22.0688 57.6482 21.1655C57.5773 20.3617 57.4379 19.2599 57.3359 18.2901C57.3102 18.0459 57.3075 17.8121 57.3102 17.6761C57.3132 17.5687 57.4207 17.61 57.5282 17.7205C57.6357 17.831 57.8037 17.9697 57.8354 17.9528C57.9404 17.8983 57.8147 17.629 57.6671 17.3391C57.5195 17.0488 56.9343 15.8479 56.8325 15.8023C56.7807 15.7791 56.5065 16.4984 56.4907 16.6394C56.543 16.7262 56.677 16.8606 56.6915 17.2531C56.7062 17.6459 56.9045 19.4514 57.0478 20.9115C57.1471 21.9265 57.2753 23.5827 57.3686 24.8315C57.364 24.8336 57.4567 26.0188 57.4668 26.152C57.5241 26.9188 57.4944 27.8836 57.4886 28.0511C57.4824 28.2193 57.6054 28.1901 57.7374 27.8167C57.8719 27.4356 57.9486 26.5846 57.959 25.8163L57.9314 24.8331Z" fill="white"/>
<path d="M52.9451 21.3894C52.765 21.4443 52.4823 21.2539 52.5039 20.8546C52.5235 20.4939 52.678 20.1562 52.7374 19.943C52.8193 19.6489 52.8198 19.3654 52.7505 19.5261C52.5945 19.8853 52.3039 20.5797 52.2439 21.0509C52.1836 21.522 52.3364 21.8257 52.544 21.9294C52.8026 22.0593 52.989 21.8532 53.115 21.5495C53.2361 21.2587 53.2132 20.9192 53.1292 20.9992C53.0588 21.0826 53.0326 21.3624 52.9451 21.3894Z" fill="white"/>
<path d="M50.3566 22.8406C50.4521 22.5868 50.4745 22.3381 50.4011 22.4746C50.2355 22.7803 49.9253 23.371 49.8345 23.7814C49.7439 24.1918 49.8538 24.4695 50.0284 24.5747C50.2461 24.7063 50.4254 24.5376 50.561 24.2791C50.6906 24.0316 50.6971 23.7312 50.6174 23.7963C50.5487 23.8649 50.5031 24.1088 50.4246 24.1267C50.2611 24.1628 50.0282 23.9761 50.0786 23.626C50.1245 23.3107 50.2873 23.0239 50.3566 22.8406Z" fill="white"/>
<path d="M42.8192 28.1939C42.9788 27.9348 43.0582 27.6662 42.9474 27.8019C42.7002 28.1051 42.2323 28.6935 42.0435 29.1251C41.8553 29.5567 41.9153 29.8808 42.0831 30.0284C42.2924 30.2125 42.5256 30.0612 42.7294 29.8041C42.925 29.5577 42.9981 29.2308 42.8958 29.2865C42.8061 29.3493 42.7035 29.6074 42.6132 29.6122C42.4274 29.6213 42.213 29.3738 42.3445 29.001C42.4634 28.6645 42.7038 28.3815 42.8192 28.1939Z" fill="white"/>
<path d="M56.034 20.6341C55.8509 20.68 55.5803 20.4749 55.6256 20.0771C55.6668 19.7182 55.8417 19.389 55.9134 19.1797C56.0133 18.8899 56.0304 18.6071 55.9516 18.7635C55.7748 19.1146 55.4431 19.7926 55.3544 20.2603C55.2657 20.7276 55.3997 21.0387 55.601 21.1529C55.852 21.2952 56.0495 21.0994 56.1941 20.8023C56.3325 20.5183 56.3303 20.1783 56.2411 20.254C56.166 20.3342 56.1232 20.6119 56.034 20.6341Z" fill="white"/>
<path d="M55.9779 25.5139C56.2284 25.6561 56.427 25.4604 56.571 25.1633C56.7091 24.8793 56.7072 24.5392 56.6185 24.6149C56.5429 24.6946 56.5001 24.9728 56.4109 24.995C56.2278 25.0407 55.9567 24.8359 56.0025 24.4381C56.0437 24.0792 56.2183 23.7497 56.2903 23.5406C56.3899 23.2508 56.4071 22.9676 56.3285 23.1245C56.1512 23.4756 55.82 24.1536 55.7313 24.6207C55.6426 25.0886 55.7766 25.3996 55.9779 25.5139Z" fill="white"/>
<path d="M59.179 19.2805C59.2996 18.9299 59.3203 18.5876 59.2248 18.777C59.0104 19.2018 58.6093 20.0221 58.5018 20.5883C58.3949 21.1541 58.5572 21.5302 58.8008 21.6687C59.1039 21.8407 59.3438 21.6038 59.5186 21.2446C59.6853 20.9009 59.6829 20.489 59.5754 20.581C59.4845 20.6776 59.4324 21.0136 59.3244 21.0406C59.1034 21.0961 58.7752 20.8481 58.8306 20.3669C58.8805 19.9325 59.0919 19.5342 59.179 19.2805Z" fill="white"/>
<path d="M33.5979 25.3447C33.7952 24.9175 33.8667 24.4897 33.7215 24.7174C33.3966 25.2272 32.7847 26.2142 32.5757 26.9134C32.3664 27.6128 32.5214 28.1042 32.8092 28.3057C33.1682 28.5559 33.5008 28.2845 33.7673 27.853C34.0224 27.4391 34.0732 26.9207 33.9261 27.0244C33.7993 27.1354 33.6896 27.5526 33.5505 27.5745C33.2645 27.6194 32.8848 27.2708 33.0174 26.6718C33.1374 26.1312 33.4555 25.654 33.5979 25.3447Z" fill="white"/>
<path d="M61.2183 29.5811C61.3694 29.4572 62.6839 28.7492 62.9258 28.6054C62.9258 28.6054 63.1733 28.2018 63.0991 28.159C63.0246 28.1161 62.5447 28.5524 62.2463 28.5645C61.9475 28.5767 61.5386 28.3572 61.5255 28.1774C61.5642 28.0417 61.9235 27.8379 62.0534 27.8295C62.1832 27.822 62.1622 28.1176 62.2056 28.1537C62.249 28.1892 62.4217 27.9496 62.4435 27.8497C62.4648 27.7501 62.447 27.3329 62.2094 27.3927C61.8332 27.4878 61.2657 28.1854 61.2011 28.4049C61.1359 28.6248 61.4864 28.8163 61.7424 28.9205C61.7205 28.9285 61.5296 29.0203 61.4087 29.1399C61.4087 29.1399 61.2788 29.2854 61.2183 29.5811Z" fill="white"/>
<path d="M56.7361 30.4581C56.8873 30.3343 58.2017 29.6268 58.4437 29.4825C58.4437 29.4825 58.6917 29.0789 58.6169 29.036C58.5425 28.9931 58.0626 29.4295 57.7641 29.4416C57.4654 29.4537 57.0564 29.2343 57.0433 29.0544C57.0821 28.9187 57.4414 28.7149 57.5712 28.7071C57.7011 28.699 57.6801 28.9944 57.7235 29.0302C57.7668 29.0663 57.9395 28.8267 57.9614 28.7268C57.9826 28.6272 57.9644 28.21 57.7273 28.2697C57.3511 28.3653 56.7836 29.0625 56.7189 29.2825C56.6537 29.5019 57.0043 29.6934 57.2597 29.7975C57.2384 29.8056 57.0474 29.8972 56.9265 30.017C56.9265 30.017 56.7967 30.1625 56.7361 30.4581Z" fill="white"/>
<path d="M46.6401 17.7678C46.758 17.9047 47.5301 18.8857 48.1349 19.5024C48.7395 20.1196 49.7759 21.1185 50.5374 21.803C50.6847 21.9357 50.841 22.0795 51.0001 22.2291C51.1921 23.7036 51.4142 25.58 51.5075 26.3559C51.5995 27.1199 51.6131 28.0847 51.615 28.2527C51.6166 28.4209 51.7378 28.3866 51.8529 28.009C52.0073 27.5023 52.0251 26.1902 51.9432 25.3235C51.8925 24.7882 51.7727 23.7856 51.6567 22.8612C52.1064 23.3053 52.5311 23.746 52.8173 24.0759C53.3436 24.6815 53.7864 25.1383 54.0562 25.7894C54.2472 26.2499 54.2278 26.6164 54.3061 26.6888C54.3738 26.7514 54.4485 26.2002 54.365 25.6658C54.2297 24.7978 54.0442 24.4298 52.93 23.1906C52.5049 22.7169 52.0046 22.2217 51.5154 21.7589C51.4966 21.6161 51.4794 21.484 51.4639 21.3667C51.4251 21.0768 51.0475 18.5711 51.0178 18.2904C50.9924 18.046 50.948 17.7582 50.9515 17.6222C50.9542 17.514 51.023 17.5561 51.131 17.6666C51.2385 17.7768 51.4268 17.9698 51.4587 17.9529C51.564 17.8984 51.4467 17.5748 51.2991 17.2845C51.152 16.9947 50.6454 15.848 50.5436 15.8026C50.4921 15.7794 50.1884 16.4985 50.1729 16.6393C50.2255 16.726 50.3592 16.8612 50.3737 17.2532C50.3778 17.3627 50.4749 18.3933 50.5968 19.3664C50.7049 20.2263 50.8386 21.0418 50.8525 21.1361L50.853 21.1434C50.3486 20.6834 49.9042 20.2926 49.6346 20.0472C49.0044 19.4744 47.6125 18.1151 47.5565 17.9115C47.544 17.8472 47.652 17.8868 47.8506 17.9186C48.0501 17.9506 48.2274 18.0185 48.1955 17.9206C48.181 17.8745 48.1046 17.7605 47.9145 17.6429C47.7241 17.5251 47.2363 17.2199 46.8734 17.004C46.5097 16.7883 46.3297 16.6075 46.2546 16.6592C46.2175 16.6847 46.2506 17.4235 46.2724 17.5155C46.3632 17.5234 46.5228 17.6303 46.6401 17.7678Z" fill="white"/>
<path d="M47.6337 16.439C47.7829 16.4062 48.4901 16.4241 48.7468 16.4781C48.6393 16.5528 47.9158 16.9183 47.7728 17.0053C47.6307 17.0926 47.5947 17.143 47.6661 17.1344C47.8735 17.0769 48.3408 17.0053 48.5648 16.8885C48.776 16.7896 49.1358 16.3074 49.2758 16.1275C49.4149 15.9477 49.4149 15.8579 49.3795 15.8097C49.2365 15.732 48.3149 15.6541 47.8705 15.7643C47.7475 15.8478 47.5068 16.2925 47.4714 16.385C47.4359 16.4781 47.4845 16.4718 47.6337 16.439Z" fill="white"/>
<path d="M51.5668 16.3812C51.6874 16.3548 52.2573 16.3691 52.4638 16.4125C52.3773 16.4728 51.7946 16.7674 51.6795 16.838C51.5641 16.9079 51.5354 16.9488 51.593 16.9417C51.7602 16.8958 52.137 16.838 52.3173 16.7435C52.4873 16.6638 52.7773 16.2751 52.89 16.1305C53.0021 15.9852 53.0021 15.9131 52.9735 15.8745C52.8589 15.8112 52.116 15.7486 51.7578 15.8377C51.6585 15.9048 51.465 16.2632 51.4364 16.3379C51.4072 16.4125 51.4468 16.4077 51.5668 16.3812Z" fill="white"/>
<path d="M54.7641 16.3401C54.8841 16.3136 55.454 16.328 55.6606 16.3714C55.5746 16.4317 54.9916 16.7263 54.8762 16.7964C54.7613 16.8668 54.7327 16.9076 54.7903 16.9006C54.9575 16.8547 55.3635 16.7964 55.5438 16.7023C55.714 16.6226 55.9156 16.2339 56.0283 16.0889C56.141 15.9441 56.141 15.8715 56.1118 15.8334C55.9972 15.7701 55.3127 15.7075 54.955 15.796C54.8557 15.8636 54.6618 16.2221 54.6331 16.2967C54.6045 16.3714 54.6435 16.3666 54.7641 16.3401Z" fill="white"/>
<path d="M52.7695 17.8973C52.5801 18.1954 52.8175 18.436 52.904 18.6769C52.7872 18.7836 52.6077 18.6863 52.5477 18.5927C52.42 18.4007 52.4628 18.0095 52.3125 17.9492C52.274 18.0549 52.2489 18.1722 52.2489 18.1722C52.2489 18.1722 52.3633 18.4398 52.3346 18.6169C52.3163 18.7238 52.2219 18.8487 52.0973 18.8512C51.765 18.8593 51.9286 18.3674 51.8004 18.0887C51.7742 18.1568 51.7554 18.23 51.7249 18.2938C51.7483 18.3664 51.7611 18.4683 51.765 18.5271C51.7726 18.6439 51.7633 18.7697 51.7832 18.8694C51.8108 19.0104 51.8891 19.104 52.0086 19.113C52.2569 19.1327 52.3701 18.9317 52.4074 18.7667C52.4503 18.935 52.7785 19.1204 52.94 18.9138C53.1539 18.6414 52.9828 18.408 52.8732 18.1518C52.794 17.9623 52.8169 17.838 52.7695 17.8973Z" fill="white"/>
<path d="M43.4429 17.1066C43.4601 17.2291 43.5231 17.3129 43.626 17.3255C43.8382 17.3525 43.9457 17.1837 43.9858 17.0435C44.0139 17.19 44.2884 17.3626 44.4376 17.1916C44.6349 16.9653 44.4982 16.7575 44.4158 16.5322C44.3569 16.3652 44.3822 16.2593 44.3386 16.3085C44.1613 16.5572 44.3547 16.7749 44.4177 16.986C44.3119 17.0728 44.1621 16.9817 44.1146 16.8992C44.0137 16.7285 44.0688 16.3932 43.9427 16.335C43.9045 16.4248 43.8775 16.5244 43.8775 16.5244C43.8775 16.5244 43.9629 16.7597 43.9296 16.9108C43.9092 17.0024 43.8221 17.1061 43.7141 17.1033C43.4279 17.097 43.5922 16.6798 43.4945 16.4349C43.4691 16.4921 43.4492 16.5549 43.4195 16.6079C43.4367 16.672 43.4429 16.7597 43.4429 16.8109C43.4451 16.9118 43.4309 17.0193 43.4429 17.1066Z" fill="white"/>
<path d="M50.2147 28.6586C50.2466 28.6079 50.317 28.4687 50.2992 28.3736C50.2815 28.2785 50.165 27.8818 49.9388 27.7824C49.714 27.683 49.5438 27.8913 49.436 28.1812L49.3613 28.1794C49.3436 28.2223 49.3212 28.2863 49.3035 28.4021C49.2784 28.5693 49.2309 28.6771 48.9441 28.9374C48.703 29.1553 47.9216 29.6787 47.4153 29.9246C46.9084 30.171 46.5436 30.3837 46.4091 30.4482C46.2752 30.5118 46.3142 30.5355 46.4481 30.4954C46.5818 30.4556 47.2546 30.2389 47.5228 30.1284C47.7904 30.0172 48.1178 29.8343 48.5123 29.5783C48.951 29.2938 49.2131 29.0092 49.3013 28.757C49.364 28.5772 49.3801 28.5053 49.3801 28.5053C49.3801 28.5053 49.5449 28.6026 49.8245 28.6665C50.1031 28.7305 50.1822 28.7098 50.2147 28.6586ZM49.8365 28.0949C49.9607 28.1421 50.0362 28.2773 50.0586 28.3592C49.9162 28.3625 49.654 28.2901 49.5424 28.2397C49.6096 28.1098 49.7263 28.0535 49.8365 28.0949Z" fill="white"/>
<path d="M47.2453 28.9376C46.8562 28.8837 45.876 28.7346 45.6362 28.1655C45.8375 27.8719 46.7648 27.5001 47.9265 27.1523C49.0882 26.8052 50.3019 26.3547 50.6282 26.1373C50.6997 26.1131 50.838 26.1204 50.838 26.1204C50.8964 25.9522 51.188 25.3614 51.2063 25.2379C50.8817 25.2563 48.8805 25.4033 47.9917 25.451C47.1023 25.4989 45.3895 25.4873 44.8188 25.481C45.1688 25.2293 45.9996 24.7379 47.1869 24.3187C47.3407 24.2642 47.4832 24.215 47.616 24.1706C47.7148 24.3467 47.7882 24.5207 47.8034 24.6723C47.879 24.5947 47.9358 24.3371 47.9167 24.0728C48.6088 23.8518 48.9654 23.7787 49.1193 23.7371C49.2164 23.6112 49.3885 23.1022 49.4142 22.7321C49.3108 22.5437 48.9869 22.3091 48.6988 22.1076C48.3019 21.8304 47.8738 21.5888 47.4466 21.6944C46.8625 21.8377 46.7455 22.9107 46.8816 23.1382C46.925 23.2101 47.0278 23.3375 47.1492 23.4947C46.7225 23.6624 46.2762 23.8596 45.8828 24.067C45.0065 24.5286 44.0282 25.0335 43.7428 25.5191L43.661 25.5589C43.638 25.6049 43.4574 26.3563 43.4312 26.4372C43.6135 26.4309 44.9743 26.4334 45.9221 26.4039C46.8693 26.3737 47.6976 26.3437 48.022 26.3437C47.5415 26.4574 46.2825 26.9253 45.9204 27.2005C45.5584 27.4764 45.3309 27.8959 45.3249 28.615C44.9874 28.4829 44.3602 28.1809 43.8257 27.458C43.2299 26.6524 43.3532 25.8238 43.1148 24.7364C42.7683 23.1584 42.0284 21.8261 41.5676 21.4185C41.4124 21.9754 41.3925 22.3952 41.3925 22.3952C41.3925 22.3952 41.9698 23.6715 42.2619 24.4862C42.5541 25.3012 42.8038 26.104 42.7915 26.2839C42.5509 26.8115 41.1265 27.9168 39.9394 28.5638C38.8138 29.1773 37.8221 29.2433 37.4707 28.8065C37.4017 28.7212 37.3547 28.6203 37.3283 28.5061C37.4811 28.4347 37.6344 28.3628 37.7915 28.2909C38.8037 27.8298 40.6013 26.8592 41.0225 26.35C41.477 25.7327 41.4708 24.8638 41.2042 24.3664C40.9388 23.8692 40.5224 23.2936 40.49 23.0901C40.4646 22.994 40.7603 23.1292 40.9349 23.1382C41.0195 23.1319 40.9772 23.0182 40.7958 22.8383C40.6507 22.6951 40.0895 22.2302 39.875 22.0488C39.8213 22.0027 39.7812 22.0213 39.7703 22.07C39.7285 22.2557 39.6431 22.6532 39.6101 22.8494L39.6331 22.9483C39.6947 22.9849 39.7656 23.026 39.8 23.1287C39.8486 23.2742 40.0185 23.6803 40.2971 24.1928C40.5762 24.7051 40.9794 25.2706 41.019 25.5562C40.691 25.9744 39.0375 26.865 37.4268 27.599C37.5263 27.2903 37.6835 26.9412 37.8919 26.5535C37.9511 26.4879 38.0051 26.407 38.0553 26.3157C38.216 26.0221 38.2316 25.6631 38.1342 25.739C38.0507 25.8195 37.9907 26.1108 37.8952 26.1305C37.6996 26.1706 37.4251 25.9423 37.4941 25.5249C37.5566 25.1483 37.758 24.8083 37.845 24.5906C37.9656 24.2894 37.9986 23.9918 37.9072 24.1537C37.7018 24.5154 37.3163 25.2162 37.1979 25.7057C37.08 26.1946 37.2052 26.5288 37.4118 26.6582C37.489 26.7074 37.5629 26.7228 37.6333 26.7132C37.492 26.9821 37.3174 27.312 37.19 27.7055C36.5423 27.9953 35.9121 28.2543 35.3904 28.441C33.5153 29.1122 32.1791 29.5077 31.2444 29.8013L31.2078 29.8177C31.2766 29.5955 31.2673 29.4058 31.1937 29.4628C31.1102 29.5438 31.0504 29.8351 30.9549 29.8543C30.7593 29.8944 30.4849 29.6663 30.5536 29.2486C30.6164 28.8721 30.8177 28.5325 30.9047 28.3146C31.0248 28.0137 31.0581 27.7156 30.9669 27.8777C30.7612 28.2395 30.376 28.9402 30.2576 29.4295C30.1395 29.9186 30.2647 30.2528 30.471 30.3824C30.728 30.5439 30.947 30.3459 31.1151 30.0397L31.174 29.9138C31.2324 29.9138 31.3309 29.9002 31.4779 29.8674C31.9063 29.771 32.9771 29.6156 34.4495 29.4237C35.5397 29.2819 36.2924 28.9825 37.02 28.6493C37.0167 28.7298 37.0159 28.8118 37.0194 28.8963C37.059 29.8954 37.7138 30.1774 38.6092 29.9905C39.4729 29.8091 40.6774 29.0171 41.3993 28.4829C42.152 27.9259 42.5863 27.4283 42.6971 27.2547C42.8979 26.8292 42.953 26.359 42.9666 26.1373C43.0324 26.7482 43.0856 27.5937 43.6634 28.3189C44.1954 28.9863 45.2856 29.9176 47.3361 29.943C47.3429 29.6991 47.2453 28.9376 47.2453 28.9376ZM47.1097 22.7468C47.4032 22.4174 48.0296 22.6328 48.4997 23.0505C48.2588 23.107 47.9317 23.2076 47.5707 23.3365C47.3563 23.078 47.117 22.8288 47.1097 22.7468Z" fill="white"/>
<path d="M35.5816 18.2301C35.7148 18.1694 36.1221 17.9862 36.561 17.7305C36.9992 17.4765 37.4109 17.1687 37.6122 16.9642C37.6894 16.8857 37.7582 16.8244 37.8021 16.7515C37.9336 16.806 38.0242 16.8625 38.0806 16.8847C38.1655 16.9175 38.2787 16.9647 38.3524 16.723C38.4258 16.4816 38.3284 16.3258 38.1849 16.1396C38.0635 15.9835 37.8709 15.7489 37.7145 15.6906C37.5819 15.6409 37.5189 15.9371 37.5391 15.9298H37.6278L37.645 15.9381C37.4624 16.0301 37.3211 16.3167 37.3069 16.4173C37.2925 16.5268 37.3132 16.6075 37.5751 16.6749L37.6804 16.7059C37.4619 16.9647 37.0546 17.2323 36.7771 17.422C36.3834 17.6919 35.8247 18.0291 35.6657 18.1265C35.5066 18.2233 35.52 18.2539 35.5816 18.2301ZM37.9475 16.3288L37.9617 16.1994C38.1459 16.4093 38.2825 16.659 38.2689 16.6943C38.1843 16.7011 38.079 16.6229 37.8949 16.5442C37.9153 16.4816 37.9325 16.4125 37.9475 16.3288ZM37.4188 16.329C37.4177 16.2897 37.4886 16.1802 37.6387 16.1204C37.7885 16.0602 37.8548 16.2284 37.8678 16.4332L37.8234 16.5152L37.6883 16.4685C37.5454 16.4267 37.4488 16.4029 37.4188 16.329Z" fill="white"/>
<path d="M45.4001 22.1807C45.6162 22.0379 46.2101 21.6091 46.547 21.3281C46.7814 21.1329 47.0567 20.8453 47.2436 20.6022C47.3609 20.6781 47.4703 20.7454 47.5698 20.804C47.7619 20.9162 47.8391 21.0827 47.8391 21.0827C47.8746 21.0282 48.0399 20.7301 47.9753 20.585C47.9365 20.5376 47.7003 20.3996 47.4588 20.2518C47.5813 19.9769 47.7499 19.5014 47.5085 19.3349C47.3019 19.1937 46.9535 19.4275 46.7923 19.731C46.6592 19.9822 46.642 20.1953 46.896 20.3699C46.9675 20.4191 47.0359 20.4655 47.1031 20.5096C46.8469 20.7898 46.3749 21.2045 46.0391 21.4868C45.6219 21.8359 45.2274 22.1781 45.1587 22.2599L45.1388 22.2916C45.0476 22.0379 45.0725 21.8813 45.0048 21.9655C44.7126 22.4238 45.0787 22.7951 45.2119 23.1659C45.0318 23.3293 44.756 23.1793 44.6635 23.0362C44.4665 22.7401 44.5323 22.1388 44.3017 22.0457C44.2423 22.2082 44.2035 22.389 44.2035 22.389C44.2035 22.389 44.379 22.8009 44.3345 23.0728C44.3069 23.2373 44.1612 23.4297 43.97 23.433C43.4582 23.4461 43.7105 22.6889 43.513 22.2601C43.4729 22.3653 43.4443 22.4778 43.3963 22.5752C43.4325 22.6879 43.4525 22.8443 43.4576 22.9348C43.4707 23.1147 43.456 23.3077 43.4863 23.462C43.5286 23.6789 43.6492 23.8232 43.8333 23.8366C44.215 23.8676 44.3893 23.5574 44.4472 23.3044C44.5129 23.5632 45.0184 23.8477 45.267 23.5304C45.5963 23.1109 45.3327 22.7517 45.1644 22.3572L45.1445 22.306C45.1679 22.3144 45.2561 22.2758 45.4001 22.1807ZM46.893 19.8187C47.0196 19.5839 47.2861 19.564 47.3661 19.6871C47.4296 19.7849 47.4348 19.9759 47.3393 20.1774C47.1041 20.0299 46.8943 19.8853 46.893 19.8187Z" fill="white"/>
<path d="M37.0682 20.6874C36.6186 20.6557 36.3766 20.2438 36.2383 19.6487C36.0997 19.0537 36.1845 18.269 36.2222 18.068C36.2598 17.8672 36.0478 17.9709 35.9654 18.4584C35.8836 18.9455 35.8012 19.7244 36.0912 20.5399C36.3807 21.3543 36.8742 21.6583 37.3066 21.5541C37.739 21.4504 38.1196 20.4357 38.2539 19.9804C38.3878 19.5249 38.9872 17.6672 39.3266 17.5673C39.374 17.7951 39.0628 18.3664 38.9632 19.2252C38.8641 20.0841 39.0366 21.2106 40.1268 21.4103C41.2169 21.6104 41.9566 20.9031 42.2247 20.4115C42.4932 19.9206 42.6184 19.4046 42.6487 19.1453C42.6836 19.8044 43.1332 20.8335 44.0065 21.1268C44.8504 21.4103 45.495 21.1508 45.7798 20.7833C46.0328 20.4569 46.2387 19.7847 46.2565 19.2691C46.2737 18.7541 45.8284 17.8114 45.7288 17.5113C45.629 17.2119 45.5774 17.004 45.5687 16.9004C45.5602 16.7967 45.794 17.0204 45.9411 17.0643C46.0407 17.0843 46.0057 16.8686 45.8846 16.7205C45.7638 16.573 45.1095 15.5809 45.0637 15.65C45.0356 15.6914 44.7737 16.4211 44.7565 16.5329C44.8602 16.601 44.9802 16.7886 44.9892 16.9685C44.9974 17.1483 45.1706 17.9391 45.3308 18.3785C45.4909 18.8179 45.8022 19.6608 45.824 19.8926C45.5128 20.1121 44.8116 20.3913 44.1457 20.1083C43.4797 19.8243 43.2672 19.4129 43.1938 18.6779C43.1469 18.2082 43.1422 17.343 42.9747 16.6196C42.8803 16.2108 42.6814 15.7951 42.4452 15.5744C42.3895 15.7098 42.1385 16.545 42.1385 16.545C42.2204 16.7846 42.4749 17.5915 42.4667 18.2907C42.4577 18.9894 42.4026 19.6732 41.6191 20.1444C40.8361 20.6155 39.7205 20.4279 39.4305 19.6926C39.1405 18.9576 39.7852 17.304 39.7767 16.8686C39.768 16.4332 39.6897 16.373 39.5083 16.4451C39.3266 16.517 38.9542 16.9367 38.6344 17.6195C38.3141 18.3028 38.172 18.9856 37.9898 19.561C37.8083 20.1363 37.5178 20.7192 37.0682 20.6874Z" fill="white"/>
<path d="M24.0136 18.1388C24.5669 18.0987 25.0345 17.6792 25.1554 17.5678C25.2765 17.4555 25.3417 17.2883 25.2549 17.3518C24.6149 17.9232 23.7585 17.9393 23.7105 17.8432C23.7323 17.7473 23.9577 17.5915 24.2864 17.372C24.4861 17.2386 24.664 17.1135 24.7972 16.9362L24.8334 16.9425C25.0771 16.9959 25.3583 17.1024 25.4443 17.0171C25.5842 16.8792 25.6028 16.6531 25.4511 16.4095C25.3229 16.2027 25.0239 16.0102 24.7641 15.8712C24.505 15.733 24.4548 15.9537 24.4215 16.0324C24.3896 16.1058 24.4027 16.1684 24.4575 16.1699C24.374 16.2836 24.3145 16.4302 24.2927 16.5512C24.2785 16.6294 24.29 16.6935 24.3219 16.7462C24.3312 16.7611 24.3792 16.8199 24.47 16.8547L24.5827 16.8897C24.3887 17.0688 24.1653 17.2091 24.048 17.28C23.8363 17.4078 23.5853 17.6316 23.5075 17.8629C23.4295 18.0949 23.4598 18.1789 24.0136 18.1388ZM24.9917 16.5069L25.013 16.3888V16.3131C25.1884 16.4408 25.4688 16.6824 25.4517 16.8272C25.3406 16.802 25.1289 16.7573 24.9278 16.7056C24.9535 16.6453 24.9745 16.5792 24.9917 16.5069ZM24.4717 16.5437C24.3426 16.4408 24.4684 16.3381 24.5827 16.272C24.7303 16.1868 24.8168 16.2571 24.8924 16.4809C24.8659 16.5449 24.8288 16.6072 24.7852 16.667C24.6703 16.6315 24.5085 16.5745 24.4717 16.5437Z" fill="white"/>
<path d="M25.6736 24.3875C25.5145 24.5255 25.4528 24.9745 25.4853 25.0014C25.5175 25.0284 26.0146 25.1962 26.0923 25.2325L26.1278 25.0973C26.3646 25.3099 26.6271 26.3708 26.6854 26.3739C26.7438 26.3766 26.8284 26.2538 26.8838 25.972C26.9348 25.7107 26.9858 25.3198 27.039 25.0014C27.0887 24.7101 27.1659 24.5434 27.341 24.5101C27.5165 24.4773 27.6463 24.702 27.6916 24.8549C27.6916 24.8549 27.8146 24.561 27.8408 24.3784C27.8116 24.2823 27.5388 23.9201 27.3151 24.0399C27.0911 24.16 26.9509 24.6682 26.9056 24.9861C26.86 25.3034 26.8251 25.6969 26.77 25.7599C26.7122 25.489 26.5269 25.0042 26.3032 24.7318C26.0517 24.4266 25.7576 24.3146 25.6736 24.3875Z" fill="white"/>
<path d="M23.5532 23.8452C23.7608 23.7881 24.2281 23.7165 24.4518 23.5997C24.6627 23.5008 25.0226 23.0186 25.1623 22.8387C25.3017 22.6589 25.3019 22.5686 25.2665 22.5209C25.1238 22.4427 24.2019 22.3653 23.7572 22.4755C23.6345 22.5585 23.3941 23.0032 23.3586 23.0963C23.3226 23.1888 23.3717 23.183 23.5207 23.1502C23.6699 23.1169 24.3774 23.1349 24.6333 23.1888C24.5266 23.264 23.8031 23.6295 23.6601 23.7165C23.5177 23.8033 23.4817 23.8542 23.5532 23.8452Z" fill="white"/>
<path d="M66.4138 26.4198C66.3926 25.8807 66.1285 25.0532 65.1245 23.7834C64.778 23.345 64.2905 22.7745 63.7762 22.19C63.762 21.9908 63.7479 21.8087 63.735 21.6523C63.6676 20.8479 63.4393 19.2068 63.3411 18.2367C63.3171 17.9921 63.3152 17.7318 63.3187 17.5958C63.3223 17.4879 63.4 17.5022 63.507 17.6132C63.6139 17.724 63.7787 17.8856 63.8131 17.8745C63.8862 17.8493 63.8226 17.6044 63.6767 17.3141C63.531 17.0232 62.9801 15.8471 62.8789 15.8014C62.8268 15.7782 62.5671 16.4688 62.551 16.6101C62.6026 16.6968 62.7357 16.8318 62.7485 17.2245C62.7622 17.617 62.999 19.935 63.1351 21.3957L63.1425 21.4772C62.3737 20.6189 61.6496 19.8362 61.3517 19.5189C61.3001 19.4639 61.2434 19.4013 61.1823 19.3342C61.1337 18.9435 61.089 18.5712 61.0581 18.2637C61.033 18.0196 61.0314 17.7588 61.0358 17.6228C61.0382 17.5151 61.1165 17.5297 61.2235 17.6407C61.331 17.7514 61.4952 17.9131 61.5296 17.9015C61.6027 17.8768 61.5391 17.6319 61.3929 17.3411C61.2475 17.0502 60.6732 15.8471 60.5714 15.8014C60.5199 15.7782 60.2481 16.5238 60.232 16.6641C60.2841 16.7513 60.417 16.8863 60.4301 17.279C60.4353 17.4457 60.4787 17.9512 60.5365 18.5891C60.0269 17.9835 59.5279 17.3494 59.4924 17.2205C59.4799 17.1569 59.5876 17.196 59.7871 17.2283C59.9857 17.2601 60.172 17.3199 60.1401 17.2215C60.1251 17.1758 60.0492 17.0618 59.8591 16.9438C59.6687 16.826 59.1809 16.5208 58.818 16.3054C58.4543 16.0897 58.2743 15.9084 58.1993 15.9601C58.1622 15.9855 58.1952 16.7248 58.2164 16.8164C58.3078 16.8247 58.4767 16.8926 58.5842 17.0364C58.6928 17.1801 59.3879 18.1548 59.9377 18.8139C60.0959 19.0035 60.3436 19.2976 60.6336 19.6372C60.6904 20.2443 60.7498 20.8716 60.799 21.3957C60.9105 22.5913 61.3116 25.7445 61.3154 26.7694C61.0194 27.0471 60.414 27.4345 59.7912 27.4426C59.1683 27.4504 58.8267 27.2864 58.5757 26.8233C58.4983 26.6798 58.4262 26.5355 58.3548 26.4049C58.1851 26.0944 57.8064 25.9201 57.4414 26.0056L57.3857 26.0205L57.2864 26.0681C57.0392 26.1975 56.7836 26.4145 56.5337 26.7509C56.1015 27.3346 55.8255 27.9677 55.5057 28.5161C55.1726 29.0872 54.917 29.4703 54.3326 29.3787C53.9212 29.3142 53.6088 28.9613 53.4162 28.5272C53.9572 28.1529 54.35 27.6645 54.6373 26.9878C55.0114 26.1083 55.1448 25.1167 55.1115 24.0018C55.0796 22.9525 54.6013 20.4839 54.475 19.5378C54.349 18.5911 54.1678 17.8143 54.1888 17.6122C54.2085 17.4172 54.5189 17.8763 54.678 17.9106C54.7593 17.8924 54.7156 17.5996 54.5612 17.3522C54.4564 17.1839 54.1247 16.4186 53.9075 16.0496C53.8055 15.8751 53.7809 15.7739 53.7335 15.7532C53.6865 15.7318 53.3251 16.5039 53.3687 16.5879C53.4757 16.7407 53.5488 16.8136 53.5711 17.0876C53.5941 17.3615 53.8418 19.3723 54.0584 20.8532C54.2215 21.9706 54.5819 24.0003 54.6283 25.5006C54.6436 25.9902 54.5738 26.3416 54.5132 26.5378C54.3577 26.8385 54.1042 27.1724 53.2138 27.8063C53.0763 26.9106 53.2258 26.1829 53.0953 26.1156C52.9483 26.1315 52.9248 26.5489 52.9082 27.064C52.9 27.3018 52.9104 27.6312 52.9551 27.9851C51.8614 28.7161 50.4165 29.3818 49.738 29.7372C49.34 29.946 49.4835 29.9947 49.8204 29.8905C50.1574 29.7858 52.009 29.3003 52.9974 28.7804L53.1038 28.7214C53.154 28.8957 53.2148 29.0645 53.2896 29.2201C53.6222 29.9112 54.0974 30.3216 54.6122 30.2815C55.0452 30.2482 55.3592 29.7848 55.6331 29.2322C55.91 28.6727 56.3779 27.6103 56.8368 27.2151C57.013 27.0627 57.1953 26.9421 57.3726 26.8698C57.3726 26.8698 57.6861 26.7651 57.9745 26.9535C58.0779 27.0216 58.1551 27.1185 58.2039 27.2269C58.3177 27.4759 58.4522 27.7927 58.7272 28.058C59.2117 28.5247 59.9909 28.4283 60.5752 28.1569C61.1588 27.8853 61.4567 27.4615 61.5866 26.958C61.8081 26.0967 61.7726 25.2141 61.7304 24.4301C61.6815 23.5355 61.5386 22.6211 61.4573 21.6523C61.4311 21.3408 61.3801 20.9074 61.3214 20.4375C61.8905 21.0943 62.4814 21.761 62.8399 22.1255C62.9635 22.2513 63.0939 22.3911 63.2279 22.5386C63.3348 24.0051 63.4377 25.8401 63.492 26.6102C63.5457 27.3775 63.5111 28.342 63.5048 28.5098C63.4982 28.6775 63.5915 28.6488 63.7255 28.2765C63.905 27.7768 64.0177 26.4664 63.9784 25.5975C63.9549 25.0812 63.9034 24.1398 63.8477 23.2494C64.2894 23.7743 64.7087 24.3043 64.9815 24.6619C65.4666 25.2971 65.9121 26.0523 66.0679 26.5234C66.2234 26.9951 66.2406 27.1349 66.2709 27.2188C66.3012 27.3028 66.4351 26.9588 66.4138 26.4198Z" fill="white"/>
<path d="M58.2227 44.3608C58.1789 44.2355 58.0447 44.1436 57.8843 44.1436C57.7238 44.1436 57.5899 44.2355 57.5458 44.3608H56.0265C56.0112 44.1923 56.0261 44.0229 56.0739 43.8579L59.2106 43.856L59.298 44.0032C59.3768 44.1359 59.4765 44.2558 59.592 44.3609L58.2227 44.3608ZM60.2993 42.9032H56.5298C56.8195 42.6941 56.9714 42.389 56.9307 42.0804C56.9046 41.8858 56.7119 41.7405 56.477 41.7208H56.3589C56.0731 41.7487 55.8658 41.9548 55.8959 42.1811L55.9074 42.2681L55.9214 42.4019C55.9367 42.5699 55.922 42.7387 55.8746 42.9032H28.0118C28.4256 43.5052 29.1799 43.8743 29.9945 43.8737L55.4197 43.8581C55.1289 44.0675 54.9764 44.3731 55.0175 44.6823C55.0476 44.9086 55.3033 45.0698 55.5892 45.0419C55.8748 45.014 56.0821 44.8079 56.0522 44.5813L56.0407 44.4946H57.5349C57.5612 44.6404 57.7069 44.7524 57.8843 44.7524C58.0617 44.7524 58.2074 44.6404 58.2339 44.4946H59.7539V44.4911C60.0712 44.7163 60.4745 44.8457 60.9012 44.8457C61.3026 44.8457 61.6279 44.5669 61.6279 44.2226V44.0426C61.6279 43.4135 61.0331 42.9032 60.2993 42.9032" fill="white"/>
</g>
<defs>
<clipPath id="clip0_757_46">
<rect x="-1.52588e-05" y="0.633667" width="89.6425" height="59.7617" rx="1.76926" fill="white"/>
</clipPath>
</defs>
</svg>
