<svg width="33" height="32" viewBox="0 0 33 32" fill="none" xmlns="http://www.w3.org/2000/svg">
<g clip-path="url(#clip0_161_4158)">
<path fill-rule="evenodd" clip-rule="evenodd" d="M26.5769 2.23291C27.7021 2.23291 28.7782 2.65858 29.573 3.41021C30.3916 4.18268 30.8455 5.23347 30.8455 6.32593V21.2097C30.8455 22.3021 30.3916 23.3529 29.573 24.1254C28.7782 24.877 27.7021 25.3027 26.5769 25.3027H6.09092C4.96571 25.3027 3.88961 24.877 3.09482 24.1254C2.27622 23.3529 1.82227 22.3021 1.82227 21.2097V6.32593C1.82227 5.23347 2.27622 4.18268 3.09482 3.41021C3.88961 2.65858 4.96571 2.23291 6.09092 2.23291H26.5769ZM8.89203 17.1166C8.89203 17.7328 9.39213 18.2329 10.0083 18.2329C10.6245 18.2329 11.1246 17.7328 11.1246 17.1166V15.2562H13.3571V17.1166C13.3571 17.7328 13.8572 18.2329 14.4734 18.2329C15.0896 18.2329 15.5897 17.7328 15.5897 17.1166V12.6515C15.5897 10.8015 14.0909 9.30268 12.2409 9.30268C10.3908 9.30268 8.89203 10.8015 8.89203 12.6515V17.1166ZM13.3571 13.0236H11.1246V12.6515C11.1246 12.0353 11.6247 11.5352 12.2409 11.5352C12.8571 11.5352 13.3571 12.0353 13.3571 12.6515V13.0236ZM17.0781 17.1166C17.0781 17.7328 17.5782 18.2329 18.1944 18.2329H20.4269C22.277 18.2329 23.7758 16.7341 23.7758 14.8841V12.6515C23.7758 10.8015 22.277 9.30268 20.4269 9.30268H18.1944C17.5782 9.30268 17.0781 9.80277 17.0781 10.419V17.1166ZM19.3106 16.0004V11.5352H20.4269C21.0431 11.5352 21.5432 12.0353 21.5432 12.6515V14.8841C21.5432 15.5003 21.0431 16.0004 20.4269 16.0004H19.3106Z" fill="#F4CF3B"/>
<path fill-rule="evenodd" clip-rule="evenodd" d="M31.2177 27.5352C31.8339 27.5352 32.334 28.0352 32.334 28.6514C32.334 29.2676 31.8339 29.7677 31.2177 29.7677H1.45026C0.834077 29.7677 0.333984 29.2676 0.333984 28.6514C0.333984 28.0352 0.834077 27.5352 1.45026 27.5352H31.2177Z" fill="#F4CF3B"/>
</g>
<defs>
<clipPath id="clip0_161_4158">
<rect width="32" height="32" fill="white" transform="translate(0.333496)"/>
</clipPath>
</defs>
</svg>
