<svg width="33" height="32" viewBox="0 0 33 32" fill="none" xmlns="http://www.w3.org/2000/svg">
<path fill-rule="evenodd" clip-rule="evenodd" d="M3.52578 4.2555C7.02859 3.84994 10.0825 2.29262 12.4191 0.625H20.2473C22.5839 2.29262 25.6378 3.84994 29.1407 4.2555C29.4575 4.29219 29.6938 4.55731 29.6938 4.87625V15.9827C29.6938 23.5148 22.0472 29.8439 16.3332 31.375C10.6193 29.8439 2.97266 23.5148 2.97266 15.9828V4.87625C2.97266 4.55731 3.20891 4.29219 3.52578 4.2555ZM4.84759 5.95412V15.9828C4.84759 16.8341 4.96591 17.6779 5.18528 18.5C6.47641 23.3384 11.5743 27.9394 16.3325 29.423C19.3115 28.4896 22.324 26.3253 24.348 24.0435C26.3207 21.8194 27.8188 19.0189 27.8188 15.9828V5.95412C24.8864 5.42506 22.1265 4.17537 19.6591 2.5H13.0073C10.54 4.17537 7.78003 5.42506 4.84759 5.95412ZM6.09759 6.96994V15.9828C6.09759 16.7246 6.20191 17.4615 6.39303 18.1777C7.54572 22.4976 12.1187 26.64 16.3314 28.1065C18.9522 27.1884 21.6042 25.2531 23.4128 23.2141C25.1758 21.2264 26.5688 18.7014 26.5688 15.9828V6.96994C23.9677 6.35462 21.512 5.21894 19.2798 3.75H13.3867C11.1545 5.21894 8.69866 6.35462 6.09759 6.96994ZM18.3354 8.89581H14.3311C14.159 8.89581 14.0186 9.03619 14.0186 9.20831V12.377H10.8499C10.6778 12.377 10.5374 12.5174 10.5374 12.6895V16.6938C10.5374 16.8659 10.6778 17.0063 10.8499 17.0063H14.0186V20.1749C14.0186 20.3471 14.159 20.4874 14.3311 20.4874H18.3354C18.5075 20.4874 18.6479 20.3471 18.6479 20.1749V17.0063H21.8165C21.9887 17.0063 22.129 16.8659 22.129 16.6938V12.6895C22.129 12.5174 21.9887 12.377 21.8165 12.377H18.6479V9.20831C18.6478 9.03619 18.5075 8.89581 18.3354 8.89581Z" fill="#FF928A"/>
</svg>
