<svg width="33" height="32" viewBox="0 0 33 32" fill="none" xmlns="http://www.w3.org/2000/svg">
<path d="M29.8252 10.2055C29.3992 9.3231 28.0091 9.20833 25.1505 9.87064C26.8809 7.87695 28.1036 6.10673 28.7923 4.59441C29.8313 2.31243 29.3763 1.17482 28.8112 0.621881C27.8896 -0.280107 26.1072 -0.198415 23.7915 0.850754C22.3325 1.51172 20.0742 2.82284 17.2507 5.38298C17.3655 3.77412 17.0597 2.66823 16.3373 2.08694C15.7425 1.60826 14.9161 1.55695 14.0094 1.94313C12.6307 2.52983 11.1447 4.03944 9.93016 6.08512C9.17873 7.35169 8.27472 9.26031 7.76161 11.728C7.36665 11.0042 6.8846 10.6376 6.30871 10.6167C4.82927 10.555 3.86294 12.9768 3.44543 14.3961C2.28703 18.3431 2.30856 23.9985 5.14746 27.0483C4.57022 28.4343 4.04698 29.8508 3.57709 31.2949C3.47987 31.5951 3.65972 31.9151 3.96806 31.9878C4.22029 32.0473 4.47178 31.8828 4.54213 31.6333C4.80125 30.7145 6.20197 26.6941 8.393 22.6031C8.42507 22.5432 8.44452 22.4768 8.44796 22.409C8.51925 21.0143 8.13908 19.6704 7.36854 18.5368C7.20286 18.293 7.24202 17.9537 7.47886 17.7782C7.72596 17.5951 8.0738 17.6548 8.24629 17.9066C8.84751 18.7841 9.06767 19.4697 9.2879 20.1234C9.36115 20.3409 9.65552 20.3739 9.77421 20.1775C10.7444 18.5721 11.7963 17.0214 12.9277 15.5298C13.4036 14.0725 13.535 12.5932 13.3808 11.1646C13.3502 10.8808 13.5388 10.6102 13.8198 10.5598C14.131 10.5041 14.4192 10.7236 14.453 11.0326C14.5173 11.6205 14.536 12.2101 14.5103 12.7964C14.499 13.0537 14.8165 13.1806 14.9845 12.9853C15.6986 12.1549 16.4386 11.3452 17.1999 10.5626C17.4059 10.3508 17.7492 10.3258 17.967 10.5256C18.1923 10.7324 18.201 11.083 17.9891 11.3006C16.2992 13.0364 14.68 14.9424 13.2072 16.9639C13.0525 17.1763 13.2625 17.4599 13.5122 17.3782C14.7004 16.9897 15.9962 16.909 17.3116 17.1937C17.5944 17.2549 17.7945 17.5231 17.7494 17.8089C17.7004 18.1188 17.4021 18.3192 17.1 18.2531C14.6653 17.7194 12.3399 18.6557 10.8499 20.4949C10.7543 20.6131 8.75616 23.8545 7.07425 27.9057C6.96022 28.1803 7.08809 28.4937 7.36071 28.6122C8.42561 29.0754 9.56214 29.2524 10.6756 29.2518C17.0617 29.2518 25.5618 23.2393 24.1122 20.159C23.7814 19.4569 22.9112 19.1234 21.3523 19.1328C29.5781 13.0154 30.3127 11.2142 29.8252 10.2055Z" fill="#4DC77B"/>
</svg>
